<?xml version="1.0" encoding="UTF-8"?>
<svg version="1.1" xmlns="http://www.w3.org/2000/svg" width="200" height="200">
<path d="M0 0 C66 0 132 0 200 0 C200 66 200 132 200 200 C134 200 68 200 0 200 C0 134 0 68 0 0 Z " fill="#FAFCFA" transform="translate(0,0)"/>
<path d="M0 0 C1.61076939 0.1467658 3.22159034 0.29296664 4.8324585 0.43864441 C9.09424127 0.82556577 13.3552916 1.22004397 17.61623383 1.61610031 C22.01343164 2.02346733 26.41128266 2.42365167 30.80908203 2.82446289 C37.74089407 3.45701351 44.67235241 4.09329028 51.60351562 4.73291016 C59.74802599 5.48439197 67.89323791 6.22772395 76.0390625 6.96484375 C77.09999115 7.06086884 78.1609198 7.15689392 79.2539978 7.25582886 C81.23669238 7.43526334 83.2193888 7.61467738 85.2020874 7.79406738 C91.84077972 8.39559132 98.47898406 9.0024833 105.1171875 9.609375 C104.99683205 13.76802348 104.87251084 17.9265311 104.74487305 22.08496094 C104.7021771 23.4928077 104.66047305 24.90068498 104.61987305 26.30859375 C104.34626707 35.7665783 103.87202359 45.17531309 103.1171875 54.609375 C102.4571875 54.609375 101.7971875 54.609375 101.1171875 54.609375 C101.12733887 55.33259949 101.13749023 56.05582397 101.14794922 56.80096436 C101.20643564 64.22709812 100.85655794 71.53917315 100.2421875 78.9375 C100.15340332 80.05251892 100.06461914 81.16753784 99.97314453 82.31634521 C99.69226828 85.83106233 99.40484634 89.34520719 99.1171875 92.859375 C98.92404356 95.26168377 98.73133129 97.66402728 98.5390625 100.06640625 C98.07008799 105.91447302 97.59575768 111.76208607 97.1171875 117.609375 C86.54269278 117.743484 76.20137888 117.56443901 65.6796875 116.359375 C63.06787149 116.08036145 60.45590537 115.80312618 57.84375 115.52734375 C57.15439865 115.45362045 56.4650473 115.37989716 55.75480652 115.30393982 C47.59690134 114.43561072 39.4289017 113.67853787 31.25985718 112.92355347 C28.54889012 112.67133563 25.83850841 112.4134596 23.12817383 112.15454102 C14.34287998 111.32232591 5.55987494 110.54885365 -3.24351501 109.93269348 C-7.37583404 109.64187731 -11.50633132 109.32853754 -15.63693237 109.01437378 C-17.61750009 108.87058596 -19.59894175 108.73832262 -21.58108521 108.61819458 C-24.34602431 108.45001408 -27.10557606 108.24265437 -29.8671875 108.02734375 C-31.08464912 107.96935104 -31.08464912 107.96935104 -32.32670593 107.91018677 C-37.93350313 107.41949353 -40.61821391 105.62938398 -44.35113525 101.44477844 C-45.10931549 100.53625374 -45.10931549 100.53625374 -45.8828125 99.609375 C-46.96492364 98.39994702 -48.04811496 97.19148386 -49.1328125 95.984375 C-53.62819207 90.77866457 -58.11015291 85.54967571 -62.46923828 80.22900391 C-63.86686266 78.56610251 -63.86686266 78.56610251 -65.55810547 77.07958984 C-68.23491985 74.4954314 -69.72021779 72.66763645 -70.29516602 68.92553711 C-70.32197142 65.7070669 -70.14758824 62.56703732 -69.8828125 59.359375 C-69.80305176 58.21001465 -69.72329102 57.0606543 -69.64111328 55.87646484 C-69.47495196 53.54858682 -69.29684534 51.22152877 -69.10644531 48.89550781 C-68.90582426 45.94751728 -68.8520232 43.05462896 -68.875 40.1015625 C-68.80505944 33.54832492 -68.68120463 27.99565665 -63.87109375 23.12890625 C-60.74325694 20.42636194 -57.38580412 18.14665145 -53.90332031 15.92822266 C-51.35197595 14.26288164 -48.97755306 12.42180617 -46.58935547 10.53295898 C-44.98654904 9.2669466 -43.36055065 8.03786476 -41.7265625 6.8125 C-38.94397788 4.72607936 -38.94397788 4.72607936 -36.7890625 2.65625 C-27.84191876 -5.45683797 -11.24277844 -1.05742077 0 0 Z " fill="#EEE604" transform="translate(82.8828125,41.390625)"/>
<path d="M0 0 C3.74670722 0.35563069 7.4947164 0.69665917 11.24301147 1.03509521 C12.38241936 1.13801376 12.38241936 1.13801376 13.54484558 1.24301147 C22.46720508 2.0365766 31.40192944 2.62822476 40.34188843 3.18499756 C42.01964355 3.29255371 42.01964355 3.29255371 43.73129272 3.40228271 C44.70364868 3.46174072 45.67600464 3.52119873 46.67782593 3.5824585 C49.30509423 3.82613471 51.7827791 4.31438713 54.36801147 4.83197021 C56.71159735 5.09726872 59.05851203 5.33384505 61.40707397 5.55072021 C62.08187805 5.61324982 62.75668213 5.67577942 63.45193481 5.74020386 C65.63201028 5.94071979 67.81246656 6.1366306 69.99301147 6.33197021 C70.73222839 6.39922302 71.47144531 6.46647583 72.23306274 6.5357666 C81.82129686 7.40600349 91.39894625 8.18642423 101.02279663 8.54095459 C104.04850567 8.6587927 106.47322936 8.86704284 109.36801147 9.83197021 C109.22657316 12.56142881 109.08001618 15.29045145 108.93051147 18.01947021 C108.89119507 18.788396 108.85187866 19.55732178 108.81137085 20.34954834 C108.59294113 24.26448097 108.28109039 28.0031771 107.36801147 31.83197021 C106.70801147 31.83197021 106.04801147 31.83197021 105.36801147 31.83197021 C105.36801147 31.17197021 105.36801147 30.51197021 105.36801147 29.83197021 C104.21945679 29.77138428 103.0709021 29.71079834 101.88754272 29.64837646 C75.25721562 28.22226523 75.25721562 28.22226523 70.36801147 26.83197021 C70.03801147 27.49197021 69.70801147 28.15197021 69.36801147 28.83197021 C68.40314819 28.50712646 68.40314819 28.50712646 67.41879272 28.17572021 C58.76989836 25.51072566 49.19556966 23.6337544 40.68051147 27.64447021 C37.23355133 29.61263097 37.23355133 29.61263097 35.36801147 32.83197021 C35.21317708 36.33457104 35.21317708 36.33457104 36.36801147 39.83197021 C40.35028737 43.51557542 44.30473112 44.46575254 49.51254272 45.24212646 C50.12484741 45.4367749 50.7371521 45.63142334 51.36801147 45.83197021 C51.69801147 46.82197021 52.02801147 47.81197021 52.36801147 48.83197021 C50.95177932 48.88644068 49.53492957 48.92497529 48.11801147 48.95697021 C47.32910522 48.98017334 46.54019897 49.00337646 45.72738647 49.02728271 C43.14807004 48.81376314 41.62535191 48.04228892 39.36801147 46.83197021 C37.22024818 46.82718985 37.22024818 46.82718985 35.36801147 47.83197021 C34.08364413 49.81574691 34.08364413 49.81574691 33.36801147 51.83197021 C32.70801147 51.83197021 32.04801147 51.83197021 31.36801147 51.83197021 C31.36801147 50.18197021 31.36801147 48.53197021 31.36801147 46.83197021 C30.35480835 46.84937256 30.35480835 46.84937256 29.32113647 46.86712646 C28.42910522 46.8761499 27.53707397 46.88517334 26.61801147 46.89447021 C25.73629272 46.90607178 24.85457397 46.91767334 23.94613647 46.92962646 C21.58612768 46.84023219 19.62302623 46.50109843 17.36801147 45.83197021 C17.36801147 44.84197021 17.36801147 43.85197021 17.36801147 42.83197021 C21.65801147 43.16197021 25.94801147 43.49197021 30.36801147 43.83197021 C30.36801147 40.86197021 30.36801147 37.89197021 30.36801147 34.83197021 C26.40801147 34.83197021 22.44801147 34.83197021 18.36801147 34.83197021 C18.36801147 33.84197021 18.36801147 32.85197021 18.36801147 31.83197021 C22.98801147 31.83197021 27.60801147 31.83197021 32.36801147 31.83197021 C32.36801147 28.86197021 32.36801147 25.89197021 32.36801147 22.83197021 C17.51801147 22.33697021 17.51801147 22.33697021 2.36801147 21.83197021 C2.36801147 24.80197021 2.36801147 27.77197021 2.36801147 30.83197021 C1.93051147 33.89837646 1.93051147 33.89837646 1.36801147 36.39447021 C1.18238647 37.24138428 0.99676147 38.08829834 0.80551147 38.96087646 C0.66113647 39.5783374 0.51676147 40.19579834 0.36801147 40.83197021 C-0.29198853 40.83197021 -0.95198853 40.83197021 -1.63198853 40.83197021 C-1.63198853 40.17197021 -1.63198853 39.51197021 -1.63198853 38.83197021 C-2.27136353 38.54322021 -2.91073853 38.25447021 -3.56948853 37.95697021 C-5.63198853 36.83197021 -5.63198853 36.83197021 -6.63198853 34.83197021 C-5.97198853 34.48134521 -5.31198853 34.13072021 -4.63198853 33.76947021 C-2.22094891 31.8663988 -2.22094891 31.8663988 -2.38198853 28.14447021 C-2.46448853 27.05134521 -2.54698853 25.95822021 -2.63198853 24.83197021 C-7.63612732 21.64045608 -11.3080837 20.24860145 -17.31948853 19.64447021 C-18.35299438 19.53449707 -18.35299438 19.53449707 -19.40737915 19.42230225 C-21.48096344 19.20698325 -23.55538494 19.01565629 -25.63198853 18.83197021 C-26.85530884 18.71982178 -28.07862915 18.60767334 -29.33901978 18.49212646 C-32.10242957 18.25282763 -34.86586894 18.0365518 -37.63198853 17.83197021 C-37.65704468 18.51710693 -37.68210083 19.20224365 -37.70791626 19.90814209 C-37.8248446 23.04956372 -37.94712726 26.1907557 -38.06948853 29.33197021 C-38.10880493 30.40962646 -38.14812134 31.48728271 -38.18862915 32.59759521 C-38.41856901 38.39915485 -38.80197584 44.08465548 -39.63198853 49.83197021 C-38.62780884 49.89255615 -37.62362915 49.95314209 -36.58901978 50.01556396 C-27.92995609 50.54399651 -19.27954505 51.1360196 -10.63198853 51.83197021 C-10.63198853 52.82197021 -10.63198853 53.81197021 -10.63198853 54.83197021 C-18.55198853 54.50197021 -26.47198853 54.17197021 -34.63198853 53.83197021 C-34.63198853 57.79197021 -34.63198853 61.75197021 -34.63198853 65.83197021 C-34.91769483 69.59717113 -35.23480939 73.33023754 -35.63198853 77.08197021 C-35.77507446 78.50316162 -35.77507446 78.50316162 -35.92105103 79.95306396 C-36.15272446 82.24663092 -36.38972656 84.5395019 -36.63198853 86.83197021 C-32.32697942 86.85680828 -28.02200902 86.87489533 -23.71694946 86.88690186 C-22.25437696 86.89191067 -20.79180941 86.8987196 -19.32925415 86.90740967 C-17.21921561 86.91962719 -15.10924365 86.92523316 -12.99917603 86.92962646 C-11.73186646 86.93486328 -10.46455688 86.9401001 -9.15884399 86.94549561 C-5.86180537 86.83936775 -2.84205772 86.59092614 0.36801147 85.83197021 C1.66867068 83.89813734 1.66867068 83.89813734 2.36801147 81.83197021 C3.02801147 81.50197021 3.68801147 81.17197021 4.36801147 80.83197021 C4.90426147 81.76009521 5.44051147 82.68822021 5.99301147 83.64447021 C9.27304175 88.04661612 13.07110048 89.80353217 18.36801147 90.83197021 C20.82353132 90.9760865 23.28344249 91.0525143 25.74301147 91.08197021 C27.02949585 91.10775146 28.31598022 91.13353271 29.64144897 91.16009521 C34.79046133 90.70672306 38.04053058 89.15945111 41.68051147 85.51947021 C44.30624076 81.22282229 44.00641028 76.06153312 44.19223022 71.17181396 C44.34474219 68.27408667 44.71251918 65.65111999 45.36801147 62.83197021 C46.02801147 62.83197021 46.68801147 62.83197021 47.36801147 62.83197021 C53.97610606 70.2933623 59.52262539 77.51015514 59.05551147 87.83197021 C58.82863647 90.14197021 58.60176147 92.45197021 58.36801147 94.83197021 C63.31801147 94.83197021 68.26801147 94.83197021 73.36801147 94.83197021 C73.24426147 92.97572021 73.12051147 91.11947021 72.99301147 89.20697021 C73.61257793 79.82053841 80.13143171 74.82530925 86.75814819 68.91082764 C88.36801147 67.83197021 88.36801147 67.83197021 91.36801147 67.83197021 C91.69801147 68.49197021 92.02801147 69.15197021 92.36801147 69.83197021 C93.68801147 69.83197021 95.00801147 69.83197021 96.36801147 69.83197021 C96.36801147 68.84197021 96.36801147 67.85197021 96.36801147 66.83197021 C95.04801147 66.50197021 93.72801147 66.17197021 92.36801147 65.83197021 C92.36801147 65.17197021 92.36801147 64.51197021 92.36801147 63.83197021 C90.05801147 63.83197021 87.74801147 63.83197021 85.36801147 63.83197021 C85.36801147 63.17197021 85.36801147 62.51197021 85.36801147 61.83197021 C88.00801147 61.83197021 90.64801147 61.83197021 93.36801147 61.83197021 C93.69801147 54.57197021 94.02801147 47.31197021 94.36801147 39.83197021 C97.66801147 40.16197021 100.96801147 40.49197021 104.36801147 40.83197021 C104.69801147 38.52197021 105.02801147 36.21197021 105.36801147 33.83197021 C105.69801147 33.83197021 106.02801147 33.83197021 106.36801147 33.83197021 C106.42756741 37.51939863 106.46211453 41.20669918 106.49301147 44.89447021 C106.50976929 45.91347412 106.5265271 46.93247803 106.54379272 47.98236084 C106.5874715 54.99280505 105.91559961 61.66754576 104.91146851 68.59979248 C103.75066766 77.10617878 103.33354666 85.70895832 102.74301147 94.26947021 C102.60801899 96.17640133 102.47260499 98.08330266 102.33676147 99.99017334 C102.00899714 104.60377751 101.68689505 109.21774407 101.36801147 113.83197021 C91.90680096 114.03302147 82.57379545 113.4043733 73.15707397 112.58978271 C71.61595327 112.45973015 70.07480478 112.33000663 68.53363037 112.20059204 C65.32124054 111.9297236 62.10917454 111.65536361 58.89730835 111.37835693 C54.82133541 111.02704123 50.7447317 110.68380457 46.66785622 110.34314156 C43.48962517 110.07676597 40.31174491 109.80637767 37.13395309 109.53481674 C35.63285222 109.40693676 34.13165679 109.28016077 32.63035965 109.15460587 C24.15276112 108.44288778 15.74240188 107.54234264 7.32885742 106.25003052 C3.25932915 105.67542844 -0.77873799 105.46773277 -4.88198853 105.33197021 C-6.49671883 105.25288475 -8.1113032 105.17077073 -9.72573853 105.08587646 C-12.19168232 104.95637502 -14.65705066 104.83090468 -17.12417603 104.72601318 C-30.62944099 104.0896255 -30.62944099 104.0896255 -34.88980103 101.41400146 C-36.71996568 99.340699 -38.12578869 97.15242658 -39.63198853 94.83197021 C-41.51336754 92.53290913 -43.48551102 90.31493697 -45.44448853 88.08197021 C-46.47859585 86.86584305 -47.51114592 85.64839001 -48.54214478 84.42962646 C-50.52463875 82.09893242 -52.5479384 79.82186875 -54.62808228 77.57806396 C-55.09303101 77.06147217 -55.55797974 76.54488037 -56.03701782 76.01263428 C-57.29987909 74.61062674 -58.58248838 73.22647902 -59.86636353 71.84368896 C-62.2748701 67.73537355 -61.92358593 64.41953427 -61.63198853 59.83197021 C-61.59461161 57.90238696 -61.5573086 55.97280207 -61.52104187 54.04319763 C-60.86427222 27.57109797 -60.86427222 27.57109797 -55.94839478 21.65228271 C-53.18666711 19.24194949 -50.07859105 17.61774783 -46.79702759 16.01800537 C-42.47288303 13.64918554 -38.76800606 10.35916576 -34.94448853 7.26947021 C-33.42301484 6.07649116 -31.8984859 4.88739359 -30.37026978 3.70306396 C-29.72098511 3.19702637 -29.07170044 2.69098877 -28.40274048 2.1696167 C-20.34433314 -3.91779731 -9.58349626 -0.91083326 0 0 Z " fill="#F7ED04" transform="translate(76.63198852539063,43.16802978515625)"/>
<path d="M0 0 C1.61076939 0.1467658 3.22159034 0.29296664 4.8324585 0.43864441 C9.09424127 0.82556577 13.3552916 1.22004397 17.61623383 1.61610031 C22.01343164 2.02346733 26.41128266 2.42365167 30.80908203 2.82446289 C37.74089407 3.45701351 44.67235241 4.09329028 51.60351562 4.73291016 C59.74802599 5.48439197 67.89323791 6.22772395 76.0390625 6.96484375 C77.09999115 7.06086884 78.1609198 7.15689392 79.2539978 7.25582886 C81.23669238 7.43526334 83.2193888 7.61467738 85.2020874 7.79406738 C91.84077972 8.39559132 98.47898406 9.0024833 105.1171875 9.609375 C104.99683205 13.76802348 104.87251084 17.9265311 104.74487305 22.08496094 C104.7021771 23.4928077 104.66047305 24.90068498 104.61987305 26.30859375 C104.34626707 35.7665783 103.87202359 45.17531309 103.1171875 54.609375 C102.4571875 54.609375 101.7971875 54.609375 101.1171875 54.609375 C101.12733887 55.33259949 101.13749023 56.05582397 101.14794922 56.80096436 C101.20643564 64.22709812 100.85655794 71.53917315 100.2421875 78.9375 C100.15340332 80.05251892 100.06461914 81.16753784 99.97314453 82.31634521 C99.69226828 85.83106233 99.40484634 89.34520719 99.1171875 92.859375 C98.92404356 95.26168377 98.73133129 97.66402728 98.5390625 100.06640625 C98.07008799 105.91447302 97.59575768 111.76208607 97.1171875 117.609375 C86.54269278 117.743484 76.20137888 117.56443901 65.6796875 116.359375 C63.06787149 116.08036145 60.45590537 115.80312618 57.84375 115.52734375 C57.15439865 115.45362045 56.4650473 115.37989716 55.75480652 115.30393982 C47.59690134 114.43561072 39.4289017 113.67853787 31.25985718 112.92355347 C28.54889012 112.67133563 25.83850841 112.4134596 23.12817383 112.15454102 C14.34287998 111.32232591 5.55987494 110.54885365 -3.24351501 109.93269348 C-7.37583404 109.64187731 -11.50633132 109.32853754 -15.63693237 109.01437378 C-17.61750009 108.87058596 -19.59894175 108.73832262 -21.58108521 108.61819458 C-24.34602431 108.45001408 -27.10557606 108.24265437 -29.8671875 108.02734375 C-31.08464912 107.96935104 -31.08464912 107.96935104 -32.32670593 107.91018677 C-37.93350313 107.41949353 -40.61821391 105.62938398 -44.35113525 101.44477844 C-45.10931549 100.53625374 -45.10931549 100.53625374 -45.8828125 99.609375 C-46.96492364 98.39994702 -48.04811496 97.19148386 -49.1328125 95.984375 C-53.62819207 90.77866457 -58.11015291 85.54967571 -62.46923828 80.22900391 C-63.86686266 78.56610251 -63.86686266 78.56610251 -65.55810547 77.07958984 C-68.23491985 74.4954314 -69.72021779 72.66763645 -70.29516602 68.92553711 C-70.32197142 65.7070669 -70.14758824 62.56703732 -69.8828125 59.359375 C-69.80305176 58.21001465 -69.72329102 57.0606543 -69.64111328 55.87646484 C-69.47495196 53.54858682 -69.29684534 51.22152877 -69.10644531 48.89550781 C-68.90582426 45.94751728 -68.8520232 43.05462896 -68.875 40.1015625 C-68.80505944 33.54832492 -68.68120463 27.99565665 -63.87109375 23.12890625 C-60.74325694 20.42636194 -57.38580412 18.14665145 -53.90332031 15.92822266 C-51.35197595 14.26288164 -48.97755306 12.42180617 -46.58935547 10.53295898 C-44.98654904 9.2669466 -43.36055065 8.03786476 -41.7265625 6.8125 C-38.94397788 4.72607936 -38.94397788 4.72607936 -36.7890625 2.65625 C-27.84191876 -5.45683797 -11.24277844 -1.05742077 0 0 Z M-36.1328125 4.921875 C-37.23545649 5.84010871 -38.33832954 6.75806741 -39.44140625 7.67578125 C-40.28227783 8.39725342 -40.28227783 8.39725342 -41.14013672 9.13330078 C-44.08852941 11.63063648 -47.14796358 13.98476919 -50.1953125 16.359375 C-51.84856543 17.66614215 -53.49951112 18.97155928 -55.12744141 20.30981445 C-56.8828125 21.609375 -56.8828125 21.609375 -59.00927734 22.68041992 C-61.57872777 24.11107741 -63.0912731 25.25564579 -64.8828125 27.609375 C-66.32984139 33.16976394 -66.60087048 38.7020512 -66.8828125 44.421875 C-66.9875164 45.95661377 -67.09556147 47.49112843 -67.20703125 49.02539062 C-67.41198243 51.95112952 -67.5795462 54.87457191 -67.70727539 57.8046875 C-67.80928029 60.01559769 -67.94129025 62.22630194 -68.15014648 64.4296875 C-68.4551734 68.63646112 -67.88977655 71.11569794 -65.35546875 74.3828125 C-64.24020309 75.60328876 -63.10227064 76.80334678 -61.9453125 77.984375 C-60.74480778 79.28396951 -59.54559549 80.58475905 -58.34765625 81.88671875 C-57.45989502 82.83200439 -57.45989502 82.83200439 -56.55419922 83.79638672 C-54.25210705 86.29351445 -52.13365439 88.89786231 -50.0078125 91.546875 C-49.28722656 92.41054687 -48.56664063 93.27421875 -47.82421875 94.1640625 C-45.8828125 96.609375 -45.8828125 96.609375 -44.41015625 98.9921875 C-41.8474358 102.80551552 -39.94838347 104.34298226 -35.4296875 105.47265625 C-31.56165317 106.0215209 -27.6834002 106.25629072 -23.78369141 106.45605469 C-19.35014785 106.69038101 -14.92462751 107.02667357 -10.49682617 107.35009766 C-8.16815846 107.51716143 -5.83890222 107.67630492 -3.5090332 107.82568359 C2.73391242 108.23468705 8.9419467 108.78713006 15.15625 109.5078125 C26.9477643 110.86871314 38.77127048 111.87485422 50.59619141 112.89648438 C54.50601872 113.23557455 58.41509996 113.58253624 62.32421875 113.9296875 C64.84631235 114.14891907 67.36844645 114.36768538 69.890625 114.5859375 C71.04090179 114.68903229 72.19117859 114.79212708 73.37631226 114.89834595 C80.64212208 115.51568585 87.82620848 115.73082436 95.1171875 115.609375 C95.16507919 114.98154617 95.21297089 114.35371735 95.26231384 113.7068634 C95.76162464 107.16911778 96.26519751 100.63171035 96.77124023 94.09448242 C96.9595077 91.65511341 97.14669034 89.21566041 97.33276367 86.77612305 C97.60049463 83.2684905 97.87213254 79.76117901 98.14453125 76.25390625 C98.22686508 75.16414993 98.30919891 74.07439362 98.39402771 72.95161438 C98.47403519 71.93093369 98.55404266 70.91025299 98.63647461 69.85864258 C98.70531357 68.96373611 98.77415253 68.06882965 98.84507751 67.14680481 C99.11939171 64.58882075 99.60468034 62.12876472 100.1171875 59.609375 C100.19550424 57.69794137 100.22507375 55.78410379 100.21484375 53.87109375 C100.21162109 52.80439453 100.20839844 51.73769531 100.20507812 50.63867188 C100.19669922 49.53587891 100.18832031 48.43308594 100.1796875 47.296875 C100.17291992 45.61368164 100.17291992 45.61368164 100.16601562 43.89648438 C100.15426063 41.1340599 100.13782827 38.37174502 100.1171875 35.609375 C97.74738737 38.56314998 97.74738737 38.56314998 98.1171875 42.609375 C94.8171875 42.279375 91.5171875 41.949375 88.1171875 41.609375 C87.7871875 48.539375 87.4571875 55.469375 87.1171875 62.609375 C84.8071875 62.279375 82.4971875 61.949375 80.1171875 61.609375 C77.1471875 61.609375 74.1771875 61.609375 71.1171875 61.609375 C71.4471875 54.349375 71.7771875 47.089375 72.1171875 39.609375 C69.4771875 39.609375 66.8371875 39.609375 64.1171875 39.609375 C64.1171875 35.979375 64.1171875 32.349375 64.1171875 28.609375 C65.4371875 28.939375 66.7571875 29.269375 68.1171875 29.609375 C69.99668858 29.81980304 71.8803275 29.99467269 73.765625 30.14453125 C74.85359375 30.23154297 75.9415625 30.31855469 77.0625 30.40820312 C78.19429687 30.49521484 79.32609375 30.58222656 80.4921875 30.671875 C82.17828125 30.80819336 82.17828125 30.80819336 83.8984375 30.94726562 C88.98963262 31.34746004 94.00736497 31.65822517 99.1171875 31.609375 C99.1171875 32.269375 99.1171875 32.929375 99.1171875 33.609375 C99.7771875 33.609375 100.4371875 33.609375 101.1171875 33.609375 C101.45519902 31.06825268 101.78772129 28.52660754 102.1171875 25.984375 C102.21257812 25.27152344 102.30796875 24.55867188 102.40625 23.82421875 C102.93324851 19.72115891 103.22185734 15.75691758 103.1171875 11.609375 C99.54803999 10.41965916 96.21339848 10.37145966 92.4921875 10.234375 C82.88295339 9.80721163 73.31907739 8.98066557 63.7421875 8.109375 C62.6403714 8.01067108 62.6403714 8.01067108 61.51629639 7.90997314 C59.39596118 7.71934597 57.27605491 7.52455321 55.15625 7.328125 C53.92084473 7.21404297 52.68543945 7.09996094 51.41259766 6.98242188 C48.1171875 6.609375 48.1171875 6.609375 45.52954102 6.09130859 C42.83375674 5.55275195 40.22429529 5.34746809 37.48046875 5.1796875 C36.36196533 5.1079834 35.24346191 5.0362793 34.09106445 4.96240234 C32.88281006 4.88715332 31.67455566 4.8119043 30.4296875 4.734375 C21.94153529 4.18366885 13.46398071 3.57772611 4.9921875 2.8125 C4.23495895 2.74412933 3.47773041 2.67575867 2.69755554 2.60531616 C-0.99689662 2.26942317 -4.69049884 1.92570098 -8.38354492 1.57470703 C-12.2139387 1.21503417 -16.04641422 0.89906005 -19.8828125 0.609375 C-20.86813965 0.53130615 -21.8534668 0.4532373 -22.86865234 0.37280273 C-28.68303597 0.1081173 -31.57317669 1.00229502 -36.1328125 4.921875 Z " fill="#383611" transform="translate(82.8828125,41.390625)"/>
<path d="M0 0 C5.28 0 10.56 0 16 0 C16 7.59 16 15.18 16 23 C17.65 23 19.3 23 21 23 C22.57320272 21.42679728 22.32942336 19.70811236 22.53515625 17.52734375 C22.62216797 16.62822266 22.70917969 15.72910156 22.79882812 14.80273438 C22.88583984 13.85720703 22.97285156 12.91167969 23.0625 11.9375 C23.15337891 10.98810547 23.24425781 10.03871094 23.33789062 9.06054688 C23.56256498 6.70737865 23.78308182 4.35389381 24 2 C32.12450442 1.72868074 40.09836339 2.14721938 48.1875 2.875 C49.58681763 2.99270752 49.58681763 2.99270752 51.0144043 3.11279297 C51.89008057 3.19674316 52.76575684 3.28069336 53.66796875 3.3671875 C54.84782349 3.47716064 54.84782349 3.47716064 56.05151367 3.58935547 C58 4 58 4 60 6 C60.39764263 7.98821313 60.73775349 9.98944339 61 12 C61.99 12 62.98 12 64 12 C64.28875 11.21625 64.5775 10.4325 64.875 9.625 C66 7 66 7 68 5 C70.35546875 4.98828125 70.35546875 4.98828125 73.1875 5.3125 C74.65703125 5.47492188 74.65703125 5.47492188 76.15625 5.640625 C79.44514216 6.05625423 82.72429502 6.49044589 86 7 C83.27395167 10.29995324 80.67338112 13.41104892 77.4453125 16.234375 C70.09771335 22.75137599 68.62502637 27.20792016 68 37 C63.05 37 58.1 37 53 37 C53.04125 34.64875 53.0825 32.2975 53.125 29.875 C52.92159043 21.2873855 49.47704517 16.17597146 44.15234375 9.6953125 C42 7 42 7 42 5 C41.34 5 40.68 5 40 5 C39.96132812 6.95292969 39.96132812 6.95292969 39.921875 8.9453125 C39.86557299 10.67190756 39.80822613 12.39846876 39.75 14.125 C39.73582031 14.9809375 39.72164062 15.836875 39.70703125 16.71875 C39.49342254 22.27257643 38.68141223 25.5864495 35 30 C28.76006866 35.48357603 20.8212317 34.45671426 13 34 C7.85253617 32.94410998 3.83215603 30.59990415 0 27 C-1.6634433 23.6731134 -1.14244098 19.96638428 -1.125 16.3125 C-1.12886719 15.52166016 -1.13273437 14.73082031 -1.13671875 13.91601562 C-1.13542969 13.13548828 -1.13414063 12.35496094 -1.1328125 11.55078125 C-1.13168457 10.84606689 -1.13055664 10.14135254 -1.12939453 9.4152832 C-0.96029598 6.25888334 -0.44702247 3.12915729 0 0 Z " fill="#0D0B04" transform="translate(82,101)"/>
<path d="M0 0 C3.49998201 -0.02934711 6.99993179 -0.04691445 10.5 -0.0625 C11.48226562 -0.07087891 12.46453125 -0.07925781 13.4765625 -0.08789062 C19.08674757 -0.10659124 24.45150899 0.161121 30 1 C30 3.97 30 6.94 30 10 C25.38 10 20.76 10 16 10 C16 10.99 16 11.98 16 13 C19.96 13 23.92 13 28 13 C28 15.97 28 18.94 28 22 C23.71 21.67 19.42 21.34 15 21 C15 21.99 15 22.98 15 24 C21.93 24.495 21.93 24.495 29 25 C29 26.65 29 28.3 29 30 C29.66 30 30.32 30 31 30 C31.2475 29.195625 31.495 28.39125 31.75 27.5625 C33 25 33 25 34.875 24.0625 C37 24 37 24 38.8359375 24.95703125 C41.22926649 26.11049486 43.11436753 26.39244419 45.75 26.625 C46.54921875 26.69976562 47.3484375 26.77453125 48.171875 26.8515625 C48.77515625 26.90054688 49.3784375 26.94953125 50 27 C49.505 26.01 49.505 26.01 49 25 C47.26984651 24.47166454 45.51403917 24.02591799 43.75 23.625 C35.99134349 21.58961219 35.99134349 21.58961219 33 18 C31.875 14.5625 31.875 14.5625 32 11 C34.9891298 7.0144936 38.30270505 4.59372507 43 3 C50.3115173 2.29492634 58.46557729 2.14595942 65 6 C66 9 66 9 64.5625 12.1875 C63.7890625 13.5796875 63.7890625 13.5796875 63 15 C58.31261335 14.09276387 53.65806256 13.0452733 49 12 C49.85200155 14.27637855 49.85200155 14.27637855 52.546875 14.9296875 C54.13242188 15.39761719 54.13242188 15.39761719 55.75 15.875 C64.21256684 18.61525974 64.21256684 18.61525974 67 22 C67.72118222 25.76617383 67.35867384 27.40680866 65.375 30.6875 C60.90685425 35.03806297 56.66853367 36.41823739 50.5 36.375 C44.20780035 36.25590474 38.51866263 35.11306193 32.41796875 33.6640625 C28.07370094 32.82003333 24.00655097 32.84074458 19.59765625 32.9609375 C15.11049516 33.00965803 10.66533565 32.76768716 6.1875 32.5 C5.37958008 32.45214355 4.57166016 32.40428711 3.73925781 32.35498047 C1.82599258 32.23958899 -0.08703281 32.12023138 -2 32 C-2.39389482 21.23354159 -1.18260948 10.68572134 0 0 Z " fill="#0E0C04" transform="translate(79,65)"/>
<path d="M0 0 C6.82050658 -0.23251727 13.53421164 0.00337376 20.3125 0.75 C21.60800781 0.88921875 22.90351562 1.0284375 24.23828125 1.171875 C28.63357575 2.13947877 32.73355813 3.73355813 36 7 C36.59227922 13.2781597 36.59227922 13.2781597 34 16.4375 C33.34 16.953125 32.68 17.46875 32 18 C33.2684375 19.0209375 33.2684375 19.0209375 34.5625 20.0625 C37 23 37 23 37.125 26.625 C36 30 36 30 33.81616211 31.69042969 C30.56598509 33.2018254 28.38847398 33.3594187 24.81640625 33.328125 C23.64142578 33.32296875 22.46644531 33.3178125 21.25585938 33.3125 C20.03705078 33.291875 18.81824219 33.27125 17.5625 33.25 C16.34755859 33.24484375 15.13261719 33.2396875 13.88085938 33.234375 C8.46098003 33.18685825 3.33915367 32.99868342 -2 32 C-1.86055132 27.79142976 -1.71231417 23.583213 -1.5625 19.375 C-1.52318359 18.18519531 -1.48386719 16.99539062 -1.44335938 15.76953125 C-1.40146484 14.61582031 -1.35957031 13.46210937 -1.31640625 12.2734375 C-1.27974854 11.21560059 -1.24309082 10.15776367 -1.20532227 9.06787109 C-0.99937941 5.99072727 -0.55819179 3.0313191 0 0 Z " fill="#0C0A04" transform="translate(39,61)"/>
<path d="M0 0 C23.70505853 -0.38440635 23.70505853 -0.38440635 33 4 C35 6 35 6 35.375 9.9375 C35.30683919 13.69316081 35.30683919 13.69316081 33 16 C32.01 16.495 32.01 16.495 31 17 C31.825 17.70125 32.65 18.4025 33.5 19.125 C36 22 36 22 36.4375 25.125 C36 28 36 28 34 31 C29.36614888 33.07557915 24.99626429 33.27884982 20 33.1875 C19.26467041 33.18105469 18.52934082 33.17460937 17.77172852 33.16796875 C10.82556816 33.07225247 3.91947835 32.61409 -3 32 C-3.68209297 21.21282599 -1.66777225 10.6172629 0 0 Z " fill="#0B0904" transform="translate(43,98)"/>
<path d="M0 0 C4.03878124 0.26227835 8.07724776 0.52893516 12.11547852 0.79956055 C13.4877957 0.890919 14.86019154 0.9811041 16.23266602 1.07006836 C18.21130579 1.19853282 20.1896424 1.33163973 22.16796875 1.46484375 C23.35672607 1.543396 24.5454834 1.62194824 25.77026367 1.70288086 C28.58439077 1.96176609 31.24621037 2.38022706 34 3 C33.67 6.3 33.34 9.6 33 13 C30.03 13 27.06 13 24 13 C24.01160156 13.845625 24.02320313 14.69125 24.03515625 15.5625 C24.08489687 21.81560618 23.96940246 27.82005931 23 34 C17.72 33.67 12.44 33.34 7 33 C6.9729183 30.27076612 6.95312153 27.54180363 6.9375 24.8125 C6.92493164 23.65911133 6.92493164 23.65911133 6.91210938 22.48242188 C6.89508066 18.51473211 7.01395885 14.87428766 8 11 C5.36 11 2.72 11 0 11 C0 7.37 0 3.74 0 0 Z " fill="#0B0904" transform="translate(147,70)"/>
<path d="M0 0 C1.61076939 0.1467658 3.22159034 0.29296664 4.8324585 0.43864441 C9.09424127 0.82556577 13.3552916 1.22004397 17.61623383 1.61610031 C22.01343164 2.02346733 26.41128266 2.42365167 30.80908203 2.82446289 C37.74089407 3.45701351 44.67235241 4.09329028 51.60351562 4.73291016 C59.74802599 5.48439197 67.89323791 6.22772395 76.0390625 6.96484375 C77.09999115 7.06086884 78.1609198 7.15689392 79.2539978 7.25582886 C81.23669238 7.43526334 83.2193888 7.61467738 85.2020874 7.79406738 C91.84077972 8.39559132 98.47898406 9.0024833 105.1171875 9.609375 C105.23981287 16.75315461 104.94852353 23.70243303 104.1171875 30.796875 C104.02179688 31.65345703 103.92640625 32.51003906 103.828125 33.39257812 C103.59651907 35.46545117 103.35765255 37.53751098 103.1171875 39.609375 C102.7871875 39.609375 102.4571875 39.609375 102.1171875 39.609375 C102.0879808 36.06772585 102.07031936 32.52610803 102.0546875 28.984375 C102.04630859 27.98535156 102.03792969 26.98632812 102.02929688 25.95703125 C102.0130788 21.05917225 102.07400213 16.42281301 103.1171875 11.609375 C101.91191406 11.57199219 100.70664063 11.53460938 99.46484375 11.49609375 C87.4574762 11.06394595 75.5171163 10.20093041 63.5546875 9.109375 C62.82573273 9.04366302 62.09677795 8.97795105 61.34573364 8.9102478 C59.24705552 8.71988863 57.14885406 8.52503423 55.05078125 8.328125 C53.83447021 8.21404297 52.61815918 8.09996094 51.36499023 7.98242188 C48.1171875 7.609375 48.1171875 7.609375 45.53613281 7.09130859 C42.83806032 6.55376367 40.22633686 6.34759293 37.48046875 6.1796875 C36.36196533 6.1079834 35.24346191 6.0362793 34.09106445 5.96240234 C32.88281006 5.88715332 31.67455566 5.8119043 30.4296875 5.734375 C21.94153529 5.18366885 13.46398071 4.57772611 4.9921875 3.8125 C3.85634468 3.709944 3.85634468 3.709944 2.69755554 3.60531616 C-0.99689662 3.26942317 -4.69049884 2.92570098 -8.38354492 2.57470703 C-12.21389672 2.21481763 -16.04660297 1.90108982 -19.8828125 1.609375 C-21.3510144 1.4846582 -21.3510144 1.4846582 -22.84887695 1.35742188 C-28.96229343 1.04930798 -32.15945857 2.30726961 -36.6953125 6.359375 C-37.22833984 6.8028125 -37.76136719 7.24625 -38.31054688 7.703125 C-39.84971941 8.98734258 -41.36674228 10.29796432 -42.8828125 11.609375 C-47.62777894 15.609375 -47.62777894 15.609375 -49.8828125 15.609375 C-48.31402677 11.04366755 -44.6460511 8.78331582 -40.9453125 5.984375 C-40.31173828 5.49453125 -39.67816406 5.0046875 -39.02539062 4.5 C-27.38438058 -4.46027272 -14.02048743 -1.31867355 0 0 Z " fill="#302F0F" transform="translate(82.8828125,41.390625)"/>
<path d="M0 0 C1.720606 5.2510346 0.52807679 10.60188168 0 16 C5.94 16 11.88 16 18 16 C18 16.33 18 16.66 18 17 C14.37 17.33 10.74 17.66 7 18 C8.98 18.33 10.96 18.66 13 19 C13 19.33 13 19.66 13 20 C10.36 20 7.72 20 5 20 C4.67 27.59 4.34 35.18 4 43 C3.01 43.495 3.01 43.495 2 44 C1.505 40.535 1.505 40.535 1 37 C-0.65 36.34 -2.3 35.68 -4 35 C-3.34 34.505 -2.68 34.01 -2 33.5 C0.08850117 30.88937354 0.3800558 30.13321611 0.5625 26.9375 C0.43234875 22.94266565 0.43234875 22.94266565 -2.25 21.0625 C-6.48731742 19.42535463 -10.32785701 18.8116436 -14.859375 18.46484375 C-15.97441406 18.37783203 -17.08945312 18.29082031 -18.23828125 18.20117188 C-19.39714844 18.11416016 -20.55601563 18.02714844 -21.75 17.9375 C-23.51150391 17.80118164 -23.51150391 17.80118164 -25.30859375 17.66210938 C-28.20550948 17.43836385 -31.10263056 17.21777821 -34 17 C-34 19.31 -34 21.62 -34 24 C-34.33 24 -34.66 24 -35 24 C-35 21.36 -35 18.72 -35 16 C-27.41 16 -19.82 16 -12 16 C-12 15.67 -12 15.34 -12 15 C-15.96 14.67 -19.92 14.34 -24 14 C-24 13.67 -24 13.34 -24 13 C-22.81921875 12.95101562 -21.6384375 12.90203125 -20.421875 12.8515625 C-18.86456063 12.77651121 -17.30727009 12.70096439 -15.75 12.625 C-14.97269531 12.5940625 -14.19539063 12.563125 -13.39453125 12.53125 C-7.8309054 12.40328116 -7.8309054 12.40328116 -3 10 C-1.87108243 7.60540353 -1.87108243 7.60540353 -1.25 4.875 C-1.00765625 3.96492188 -0.7653125 3.05484375 -0.515625 2.1171875 C-0.34546875 1.41851562 -0.1753125 0.71984375 0 0 Z " fill="#CFC804" transform="translate(77,81)"/>
<path d="M0 0 C1.49536133 1.16723633 1.49536133 1.16723633 3 3 C3.2487793 5.4519043 3.2487793 5.4519043 3.07421875 8.32421875 C3.01943359 9.35224609 2.96464844 10.38027344 2.90820312 11.43945312 C2.79895508 13.04723633 2.79895508 13.04723633 2.6875 14.6875 C2.62626953 15.77095703 2.56503906 16.85441406 2.50195312 17.97070312 C2.3486115 20.64828378 2.18075343 23.32415282 2 26 C1.34 26 0.68 26 0 26 C0.01015137 26.72322449 0.02030273 27.44644897 0.03076172 28.19158936 C0.08924814 35.61772312 -0.26062956 42.92979815 -0.875 50.328125 C-1.00817627 52.00065338 -1.00817627 52.00065338 -1.14404297 53.70697021 C-1.42491922 57.22168733 -1.71234116 60.73583219 -2 64.25 C-2.19314394 66.65230877 -2.38585621 69.05465228 -2.578125 71.45703125 C-3.04709951 77.30509802 -3.52142982 83.15271107 -4 89 C-6.87241192 89.01356511 -9.74475886 89.0234513 -12.6171875 89.03125 C-13.82797974 89.03753418 -13.82797974 89.03753418 -15.06323242 89.04394531 C-20.77717006 89.05556491 -26.32713348 88.73198278 -32 88 C-32 87.67 -32 87.34 -32 87 C-26.45778869 85.7571453 -21.24109437 86.08899771 -15.625 86.4375 C-14.69816406 86.48970703 -13.77132812 86.54191406 -12.81640625 86.59570312 C-10.54386099 86.72455878 -8.27184901 86.85948311 -6 87 C-6.02501587 85.93168945 -6.02501587 85.93168945 -6.05053711 84.84179688 C-6.16779237 75.52546615 -5.53901823 66.3378533 -4.77319336 57.05859375 C-4.56060828 54.47702756 -4.35689762 51.89486711 -4.15429688 49.3125 C-4.02134843 47.65620857 -3.88790314 45.99995694 -3.75390625 44.34375 C-3.6934462 43.57913452 -3.63298615 42.81451904 -3.57069397 42.0267334 C-3.32465329 39.07994545 -3.03953941 36.19760785 -2.45898438 33.29614258 C-1.9562451 30.78110912 -1.88661958 28.48100914 -1.90234375 25.91796875 C-1.90717773 24.52094727 -1.90717773 24.52094727 -1.91210938 23.09570312 C-1.92048828 22.13599609 -1.92886719 21.17628906 -1.9375 20.1875 C-1.94201172 19.20845703 -1.94652344 18.22941406 -1.95117188 17.22070312 C-1.96291316 14.81373889 -1.97933581 12.40690143 -2 10 C-2.33 11.32 -2.66 12.64 -3 14 C-4.32 13.67 -5.64 13.34 -7 13 C-6.01 13 -5.02 13 -4 13 C-3.67 9.7 -3.34 6.4 -3 3 C-2.67 3.66 -2.34 4.32 -2 5 C-1.34 5 -0.68 5 0 5 C0 3.35 0 1.7 0 0 Z " fill="#343318" transform="translate(184,70)"/>
<path d="M0 0 C0.33 0 0.66 0 1 0 C1.08636719 0.95261719 1.17273438 1.90523438 1.26171875 2.88671875 C1.40222656 4.14097656 1.54273437 5.39523438 1.6875 6.6875 C1.81511719 7.92886719 1.94273438 9.17023438 2.07421875 10.44921875 C3.19056528 14.73090229 4.52020733 16.31307148 8 19 C10.82443916 20.10621911 10.82443916 20.10621911 13.75 20.625 C16.671875 21.2265625 16.671875 21.2265625 19 22 C19.495 23.485 19.495 23.485 20 25 C18.58376784 25.05447047 17.16691809 25.09300508 15.75 25.125 C14.56664062 25.15980469 14.56664062 25.15980469 13.359375 25.1953125 C10.78005857 24.98179293 9.25734043 24.2103187 7 23 C4.8522367 22.99521963 4.8522367 22.99521963 3 24 C1.71563266 25.9837767 1.71563266 25.9837767 1 28 C0.34 28 -0.32 28 -1 28 C-1 26.35 -1 24.7 -1 23 C-1.67546875 23.01160156 -2.3509375 23.02320312 -3.046875 23.03515625 C-4.38492188 23.04869141 -4.38492188 23.04869141 -5.75 23.0625 C-7.07257813 23.07990234 -7.07257813 23.07990234 -8.421875 23.09765625 C-10.7818838 23.00826198 -12.74498524 22.66912821 -15 22 C-15 21.01 -15 20.02 -15 19 C-10.71 19.33 -6.42 19.66 -2 20 C-2 17.03 -2 14.06 -2 11 C-5.96 11 -9.92 11 -14 11 C-14 10.01 -14 9.02 -14 8 C-9.38 8 -4.76 8 0 8 C0 5.36 0 2.72 0 0 Z " fill="#E2DC04" transform="translate(109,67)"/>
<path d="M0 0 C11.34355815 -0.33078742 22.48916821 0.57299583 33.77563477 1.59912109 C36.79583768 1.87348634 39.81673522 2.13869535 42.83789062 2.40234375 C54.25073325 3.41023479 65.63107389 4.5794817 77 6 C77 6.33 77 6.66 77 7 C66.70938334 7.19161838 56.61319904 6.62218675 46.375 5.6875 C44.85117546 5.55275367 43.32733073 5.41823556 41.8034668 5.28393555 C27.84954244 4.03994367 13.92050986 2.57371086 0 1 C0 0.67 0 0.34 0 0 Z " fill="#242313" transform="translate(81,150)"/>
<path d="M0 0 C-1.5548764 4.03527446 -4.17821081 6.07508555 -7.5 8.75 C-8.4796875 9.54921875 -9.459375 10.3484375 -10.46875 11.171875 C-13 13 -13 13 -15 13 C-14.97679687 13.77859375 -14.95359375 14.5571875 -14.9296875 15.359375 C-14.75781211 26.0156492 -15.80814045 36.42224646 -17 47 C-17.33 47 -17.66 47 -18 47 C-19.14160413 41.57738036 -19.18636431 36.50440305 -19 31 C-19.01353516 30.30084473 -19.02707031 29.60168945 -19.04101562 28.88134766 C-19.26208451 14.99763983 -19.26208451 14.99763983 -15.46533203 9.96630859 C-11.75520401 6.26976013 -5.43361717 0 0 0 Z " fill="#3F3D20" transform="translate(33,56)"/>
<path d="M0 0 C0.66 0.33 1.32 0.66 2 1 C2.25 7.625 2.25 7.625 0 11 C-3.1305429 11.39964378 -5.13083761 11.52149743 -7.875 9.875 C-9.54663625 7.08893958 -9.46376624 5.18011138 -9 2 C-6.09913676 -1.33062076 -4.07453675 -1.28669582 0 0 Z " fill="#32300F" transform="translate(29,87)"/>
<path d="M0 0 C1.20269531 0.00644531 2.40539062 0.01289062 3.64453125 0.01953125 C6.90865056 0.17428002 9.98157346 0.57380809 13.1875 1.1875 C13.1875 1.5175 13.1875 1.8475 13.1875 2.1875 C11.96675781 2.14367188 10.74601562 2.09984375 9.48828125 2.0546875 C-3.29710812 1.94664562 -9.55511998 4.35090998 -18.8125 13.1875 C-23.50493697 17.1875 -23.50493697 17.1875 -25.8125 17.1875 C-24.24371427 12.62179255 -20.5757386 10.36144082 -16.875 7.5625 C-16.24142578 7.07265625 -15.60785156 6.5828125 -14.95507812 6.078125 C-9.78421752 2.0980304 -6.78746735 -0.0795124 0 0 Z " fill="#262511" transform="translate(58.8125,39.8125)"/>
<path d="M0 0 C7.41017023 -0.11459026 14.64206267 0.08839714 22 1 C22.40820882 11.09182907 21.16108676 20.99599356 20 31 C19.67 31 19.34 31 19 31 C18.9707933 27.45835085 18.95313186 23.91673303 18.9375 20.375 C18.92912109 19.37597656 18.92074219 18.37695312 18.91210938 17.34765625 C18.90727539 15.88779297 18.90727539 15.88779297 18.90234375 14.3984375 C18.89448853 13.06304932 18.89448853 13.06304932 18.88647461 11.70068359 C19 9 19 9 20 3 C13.4 2.34 6.8 1.68 0 1 C0 0.67 0 0.34 0 0 Z " fill="#201E0B" transform="translate(166,50)"/>
<path d="M0 0 C0.33 0 0.66 0 1 0 C0.92136719 0.90878906 0.84273437 1.81757812 0.76171875 2.75390625 C0.56323649 12.93918032 3.30542874 17.84712167 10.33862305 25.16235352 C11.44871519 26.2949903 12.57083101 27.41607241 13.70898438 28.52050781 C15 30 15 30 16 33 C12.24473608 31.47229036 10.14969375 29.21377694 7.5 26.1875 C6.7471875 25.33542969 5.994375 24.48335937 5.21875 23.60546875 C4.4865625 22.74566406 3.754375 21.88585937 3 21 C2.25363281 20.16984375 1.50726562 19.3396875 0.73828125 18.484375 C-1.22204677 15.68264776 -1.46662018 14.42657162 -1.3125 11.0625 C-1.27769531 10.20011719 -1.24289062 9.33773437 -1.20703125 8.44921875 C-0.96564216 5.59354023 -0.59052342 2.80498625 0 0 Z " fill="#313015" transform="translate(14,97)"/>
<path d="M0 0 C0.33 1.32 0.66 2.64 1 4 C1.85271484 3.98259766 1.85271484 3.98259766 2.72265625 3.96484375 C7.60670484 3.90776806 12.18503965 4.18043228 17 5 C17 5.33 17 5.66 17 6 C14.36 6 11.72 6 9 6 C9 6.66 9 7.32 9 8 C11.31 8 13.62 8 16 8 C16 8.66 16 9.32 16 10 C18.475 10.495 18.475 10.495 21 11 C20.67 12.32 20.34 13.64 20 15 C17.525 14.505 17.525 14.505 15 14 C15 13.34 15 12.68 15 12 C14.34 11.67 13.68 11.34 13 11 C13.33 10.67 13.66 10.34 14 10 C8.06 9.01 8.06 9.01 2 8 C2 7.67 2 7.34 2 7 C3.65 7 5.3 7 7 7 C7 6.34 7 5.68 7 5 C4.69 5 2.38 5 0 5 C0 3.35 0 1.7 0 0 Z " fill="#B0AA04" transform="translate(153,99)"/>
<path d="M0 0 C1.49536133 1.16723633 1.49536133 1.16723633 3 3 C3.2487793 5.4519043 3.2487793 5.4519043 3.07421875 8.32421875 C2.99204102 9.86625977 2.99204102 9.86625977 2.90820312 11.43945312 C2.83537109 12.51130859 2.76253906 13.58316406 2.6875 14.6875 C2.62626953 15.77095703 2.56503906 16.85441406 2.50195312 17.97070312 C2.3486115 20.64828378 2.18075343 23.32415282 2 26 C1.67 26 1.34 26 1 26 C0.67 24.35 0.34 22.7 0 21 C-0.33 21 -0.66 21 -1 21 C-1.33 17.37 -1.66 13.74 -2 10 C-2.33 11.32 -2.66 12.64 -3 14 C-4.32 13.67 -5.64 13.34 -7 13 C-6.01 13 -5.02 13 -4 13 C-3.67 9.7 -3.34 6.4 -3 3 C-2.67 3.66 -2.34 4.32 -2 5 C-1.34 5 -0.68 5 0 5 C0 3.35 0 1.7 0 0 Z " fill="#938F2F" transform="translate(184,70)"/>
<path d="M0 0 C0.33 0 0.66 0 1 0 C1 2.31 1 4.62 1 7 C-8.0719352 7.09471858 -16.98185679 7.14516104 -26 6 C-26 5.67 -26 5.34 -26 5 C-20.45778869 3.7571453 -15.24109437 4.08899771 -9.625 4.4375 C-8.23474609 4.51581055 -8.23474609 4.51581055 -6.81640625 4.59570312 C-4.54386099 4.72455878 -2.27184901 4.85948311 0 5 C0 3.35 0 1.7 0 0 Z " fill="#323123" transform="translate(178,152)"/>
<path d="M0 0 C3.81248345 -0.02936502 7.62493726 -0.04692035 11.4375 -0.0625 C12.50677734 -0.07087891 13.57605469 -0.07925781 14.67773438 -0.08789062 C20.87624228 -0.10684631 26.8549481 0.17936741 33 1 C33 1.33 33 1.66 33 2 C21.68820569 3.23462062 11.24509393 2.55859836 0 1 C0 0.67 0 0.34 0 0 Z " fill="#232210" transform="translate(57,148)"/>
<path d="M0 0 C1.20946289 0.04060547 1.20946289 0.04060547 2.44335938 0.08203125 C3.60641602 0.14197266 3.60641602 0.14197266 4.79296875 0.203125 C5.49317139 0.23567383 6.19337402 0.26822266 6.91479492 0.30175781 C9.29763468 0.8645899 10.24818051 1.91379781 11.8125 3.75 C2.79779551 3.21839258 -6.19986323 2.64495536 -15.1875 1.75 C-15.1875 1.42 -15.1875 1.09 -15.1875 0.75 C-10.02237621 -0.34790071 -5.23123072 -0.28001722 0 0 Z " fill="#4C4914" transform="translate(160.1875,48.25)"/>
<path d="M0 0 C1.4540625 0.0309375 1.4540625 0.0309375 2.9375 0.0625 C3.5625 2.4375 3.5625 2.4375 3.9375 5.0625 C3.2775 5.7225 2.6175 6.3825 1.9375 7.0625 C-0.6875 6.6875 -0.6875 6.6875 -3.0625 6.0625 C-3.44468767 4.40635343 -3.77645102 2.73792976 -4.0625 1.0625 C-3.0625 0.0625 -3.0625 0.0625 0 0 Z " fill="#D6D6D6" transform="translate(26.0625,88.9375)"/>
<path d="M0 0 C1.88361553 2.82542329 2.31902686 3.81059318 2.6875 7 C2.77386719 7.680625 2.86023438 8.36125 2.94921875 9.0625 C3 11 3 11 2 14 C1.34 14 0.68 14 0 14 C0 13.34 0 12.68 0 12 C-0.639375 11.71125 -1.27875 11.4225 -1.9375 11.125 C-4 10 -4 10 -5 8 C-4.360625 7.608125 -3.72125 7.21625 -3.0625 6.8125 C-0.56221181 4.61527704 -0.35049575 3.24208567 0 0 Z " fill="#E6DE04" transform="translate(75,70)"/>
<path d="M0 0 C0.33 0 0.66 0 1 0 C2.18319529 9.16976353 2.3564524 17.8439463 1 27 C0.67 27 0.34 27 0 27 C-1.8867344 18.03801158 -0.96099839 9.02652058 0 0 Z " fill="#585633" transform="translate(15,76)"/>
<path d="M0 0 C2.31 0.33 4.62 0.66 7 1 C7.5625 2.9375 7.5625 2.9375 8 5 C7 6 7 6 3.4375 6.0625 C2.303125 6.041875 1.16875 6.02125 0 6 C0 4.02 0 2.04 0 0 Z " fill="#D5CF04" transform="translate(56,117)"/>
<path d="M0 0 C0 0.33 0 0.66 0 1 C-3.55013829 1.83088343 -6.66409367 2.07031086 -10.30078125 1.87890625 C-11.27724609 1.83056641 -12.25371094 1.78222656 -13.25976562 1.73242188 C-14.77086914 1.64831055 -14.77086914 1.64831055 -16.3125 1.5625 C-17.33923828 1.51029297 -18.36597656 1.45808594 -19.42382812 1.40429688 C-21.94956087 1.27507334 -24.47485261 1.14012709 -27 1 C-27 0.67 -27 0.34 -27 0 C-17.97231444 -1.50461426 -9.07712633 -0.63647596 0 0 Z " fill="#3C3A18" transform="translate(90,42)"/>
<path d="M0 0 C0.86625 0.02578125 1.7325 0.0515625 2.625 0.078125 C3.49125 0.09359375 4.3575 0.1090625 5.25 0.125 C7.625 0.328125 7.625 0.328125 10.625 1.328125 C10.625 1.988125 10.625 2.648125 10.625 3.328125 C11.945 3.658125 13.265 3.988125 14.625 4.328125 C8.025 3.998125 1.425 3.668125 -5.375 3.328125 C-2.375 0.328125 -2.375 0.328125 0 0 Z " fill="#D8D204" transform="translate(124.375,100.671875)"/>
<path d="M0 0 C2.45862401 -0.05383848 4.9160755 -0.09359038 7.375 -0.125 C8.42300781 -0.15013672 8.42300781 -0.15013672 9.4921875 -0.17578125 C11.32897486 -0.19344267 13.16601963 -0.10303261 15 0 C15.66 0.66 16.32 1.32 17 2 C16 3 16 3 12.4375 3.1875 C8.04089906 3.14774773 4.21677059 2.2047916 0 1 C0 0.67 0 0.34 0 0 Z " fill="#F5EF04" transform="translate(82,98)"/>
<path d="M0 0 C2.31 0.33 4.62 0.66 7 1 C7.33 2.32 7.66 3.64 8 5 C5.36 5 2.72 5 0 5 C0 3.35 0 1.7 0 0 Z " fill="#E6E104" transform="translate(53,81)"/>
<path d="M0 0 C1.65 0 3.3 0 5 0 C5.5625 1.9375 5.5625 1.9375 6 4 C5 5 5 5 2.4375 5.0625 C1.2309375 5.0315625 1.2309375 5.0315625 0 5 C0 3.35 0 1.7 0 0 Z " fill="#CAC504" transform="translate(57,106)"/>
<path d="M0 0 C0.33 0 0.66 0 1 0 C1.33 5.61 1.66 11.22 2 17 C1.01 17.33 0.02 17.66 -1 18 C-0.505 9.09 -0.505 9.09 0 0 Z " fill="#77731A" transform="translate(181,106)"/>
<path d="M0 0 C5.61 0.33 11.22 0.66 17 1 C17 1.33 17 1.66 17 2 C12.05 2.33 7.1 2.66 2 3 C1.34 2.01 0.68 1.02 0 0 Z " fill="#6D6914" transform="translate(73,148)"/>
<path d="M0 0 C0 0.99 0 1.98 0 3 C-2.31 3.33 -4.62 3.66 -7 4 C-7 5.65 -7 7.3 -7 9 C-7.33 9 -7.66 9 -8 9 C-8.25 6.1875 -8.25 6.1875 -8 3 C-5.22094435 0.02244037 -4.2016934 0 0 0 Z " fill="#524F18" transform="translate(28,86)"/>
<path d="M0 0 C2.31 0 4.62 0 7 0 C6.34 0.66 5.68 1.32 5 2 C7.31 2.33 9.62 2.66 12 3 C12 3.33 12 3.66 12 4 C3.42857143 4.14285714 3.42857143 4.14285714 0 3 C0 2.01 0 1.02 0 0 Z " fill="#B7B104" transform="translate(94,86)"/>
<path d="M0 0 C1.65 0 3.3 0 5 0 C5.33 1.32 5.66 2.64 6 4 C4.02 4 2.04 4 0 4 C0 2.68 0 1.36 0 0 Z " fill="#E2DB04" transform="translate(54,70)"/>
<path d="M0 0 C2.475 0.495 2.475 0.495 5 1 C4.67 2.32 4.34 3.64 4 5 C2.68 5 1.36 5 0 5 C0 3.35 0 1.7 0 0 Z " fill="#878104" transform="translate(169,109)"/>
<path d="M0 0 C0.33 0 0.66 0 1 0 C1.33 2.97 1.66 5.94 2 9 C1.34 9 0.68 9 0 9 C0 10.65 0 12.3 0 14 C-0.33 14 -0.66 14 -1 14 C-1.08333357 9.1666528 -0.95261487 4.76307437 0 0 Z " fill="#635F0C" transform="translate(186,53)"/>
<path d="M0 0 C0.66 0.33 1.32 0.66 2 1 C1.05125 1.9075 0.1025 2.815 -0.875 3.75 C-3.14549867 6.00978877 -4.83296506 7.96570916 -6 11 C-6.3125 8.8125 -6.3125 8.8125 -6 6 C-3.5625 3.25 -3.5625 3.25 -1 1 C-0.67 0.67 -0.34 0.34 0 0 Z " fill="#434004" transform="translate(117,70)"/>
<path d="M0 0 C0.66 0.66 1.32 1.32 2 2 C-3.75 7 -3.75 7 -6 7 C-4.60667426 3.63279613 -3.0210714 2.0140476 0 0 Z " fill="#35341B" transform="translate(39,50)"/>
<path d="M0 0 C3.25543229 0.34879632 4.01873107 1.02133261 6.25 3.5625 C6.8275 4.366875 7.405 5.17125 8 6 C5 6 5 6 3.61328125 4.6875 C2.40885417 3.125 1.20442708 1.5625 0 0 Z " fill="#3A3823" transform="translate(28,130)"/>
<path d="M0 0 C2.97 0.33 5.94 0.66 9 1 C4.82091936 3.08954032 4.19589427 3.16552619 0 2 C0 1.34 0 0.68 0 0 Z " fill="#DDD704" transform="translate(128,77)"/>
<path d="M0 0 C0.99 0.33 1.98 0.66 3 1 C3 3.97 3 6.94 3 10 C2.67 10 2.34 10 2 10 C2 8.35 2 6.7 2 5 C1.34 5 0.68 5 0 5 C0 3.35 0 1.7 0 0 Z " fill="#9C9704" transform="translate(144,71)"/>
</svg>
