<?xml version="1.0" encoding="UTF-8"?>
<svg version="1.1" xmlns="http://www.w3.org/2000/svg" width="512" height="512">
<path d="M0 0 C168.96 0 337.92 0 512 0 C512 168.96 512 337.92 512 512 C343.04 512 174.08 512 0 512 C0 343.04 0 174.08 0 0 Z " fill="#FEFEFE" transform="translate(0,0)"/>
<path d="M0 0 C1.04795071 -0.00724325 2.09590142 -0.01448649 3.17560822 -0.02194923 C6.6934098 -0.03888039 10.2095816 -0.01285948 13.72731018 0.01295471 C16.24717655 0.00973633 18.76704075 0.0039204 21.28689575 -0.00430298 C27.4266483 -0.01735228 33.56579458 -0.00250441 39.7054814 0.02524792 C46.86421814 0.05643817 54.02285063 0.05618816 61.18164254 0.05473018 C73.96649841 0.05322802 86.7511293 0.08071131 99.53590393 0.12428284 C111.91973473 0.16646572 124.30336744 0.18779852 136.68727112 0.18580627 C137.44868672 0.18568641 138.21010231 0.18556654 138.99459111 0.18544304 C140.13480154 0.18526144 140.13480154 0.18526144 141.29804653 0.18507618 C155.41616914 0.18300021 169.53420805 0.20072402 183.65230344 0.22753583 C188.63164333 0.23654828 193.61096772 0.23977025 198.59031487 0.24113274 C205.31185564 0.24340699 212.03316213 0.26258944 218.75464439 0.29263115 C221.21435533 0.30134986 223.67409 0.30509374 226.13381577 0.30334854 C238.39216612 0.29794537 249.82476598 0.40100177 261.69825745 3.74171448 C263.30201483 4.09772991 264.90610566 4.45225231 266.51075745 4.80421448 C278.66883601 8.64255002 289.81538734 16.82630639 298.69825745 25.74171448 C299.40208557 26.38624573 300.1059137 27.03077698 300.83106995 27.69483948 C313.68353829 39.7165399 320.92561604 57.0747558 325.69825745 73.74171448 C325.94575745 74.60538635 326.19325745 75.46905823 326.44825745 76.35890198 C332.15765967 101.17894221 325.86635482 127.95516749 313.6006012 149.72218323 C310.40013122 154.80218999 306.72348445 159.29651997 302.69825745 163.74171448 C301.86423401 164.66983948 301.03021057 165.59796448 300.1709137 166.55421448 C283.88025592 183.77781742 260.00217968 195.06898896 236.28707886 195.85473633 C232.33035964 195.92286514 228.37420107 195.96080149 224.41700745 195.97999573 C223.34071327 195.98610902 223.34071327 195.98610902 222.24267578 195.99234581 C218.4510173 196.01305305 214.65939346 196.02742514 210.86769104 196.03688049 C206.98106918 196.04796914 203.09501585 196.08244097 199.20859528 196.12205219 C196.19033325 196.1483296 193.17220544 196.15658164 190.15383911 196.16016197 C188.721864 196.16499185 187.2898934 196.17650136 185.85803223 196.19519997 C173.18190893 196.35058267 165.63183097 194.94230745 156.33058167 186.08692932 C153.94214733 183.73703093 151.59687722 181.3468204 149.25294495 178.95265198 C147.99045565 177.68403827 146.72677337 176.41661078 145.46195984 175.15031433 C142.82896456 172.50816067 140.20604081 169.85655429 137.59083557 167.1967926 C134.23299653 163.78204277 130.85771919 160.3852133 127.47576714 156.99435997 C124.8737562 154.38405795 122.27745599 151.76814306 119.68324661 149.15008926 C118.43937598 147.89480709 117.19455257 146.6404683 115.94877243 145.38708115 C114.21783576 143.64246202 112.49386951 141.89126146 110.77198792 140.13771057 C110.25470627 139.61819321 109.73742462 139.09867584 109.20446777 138.56341553 C105.69825745 134.97112225 105.69825745 134.97112225 105.69825745 132.74171448 C105.03825745 132.74171448 104.37825745 132.74171448 103.69825745 132.74171448 C103.30421942 128.72252661 103.222645 126.46732987 105.46932983 123.03968811 C110.35520896 119.56248987 114.81562809 120.07728169 120.67359924 120.16163635 C121.88721634 120.15918411 123.10083344 120.15673187 124.35122681 120.15420532 C126.98682116 120.15203216 129.62060924 120.15881682 132.25594139 120.18069458 C136.43045803 120.21464648 140.60441093 120.21045527 144.77902222 120.20057678 C154.40002813 120.18360182 164.02074535 120.21628344 173.64168549 120.24950409 C182.4487381 120.27942302 191.25547405 120.29863193 200.06257182 120.27783823 C204.20399435 120.26948698 208.34439629 120.28510042 212.48567331 120.31963348 C215.68244037 120.34008849 218.87913419 120.32820579 222.07594299 120.3217926 C223.21032806 120.33827347 224.34471313 120.35475433 225.51347351 120.37173462 C233.50417821 120.31134443 240.20188676 118.67366434 246.34817028 113.29891205 C251.36381391 107.74603329 252.22435712 101.7140053 252.0771637 94.49171448 C251.28338904 88.73071076 247.97285391 84.68983106 243.76075745 80.86671448 C238.40718107 77.15198801 233.4779884 76.4468843 227.08317566 76.49015808 C226.33640355 76.48718794 225.58963145 76.4842178 224.82022989 76.48115766 C222.32848426 76.47354489 219.83697626 76.48000044 217.3452301 76.48634338 C215.55439088 76.48359221 213.76355287 76.47991154 211.97271729 76.47537231 C208.12097652 76.46726981 204.26929377 76.46508947 200.41754532 76.46731949 C194.32392394 76.4701556 188.23041822 76.45578946 182.13682556 76.43833923 C164.81064079 76.39134071 147.48446407 76.36737187 130.15821838 76.3608551 C120.5854079 76.35710261 111.01272849 76.33905893 101.43997419 76.30576074 C95.38568467 76.28556217 89.33173354 76.28316887 83.2774241 76.29404092 C79.50647459 76.29665165 75.73572133 76.28262643 71.96482277 76.26395988 C70.22017317 76.25864641 68.47548724 76.26012022 66.73085213 76.26899529 C55.41460951 76.32190526 47.43662079 75.8051022 39.0332489 67.64103699 C38.52123932 67.12407257 38.00922974 66.60710815 37.48170471 66.07447815 C36.9164357 65.519431 36.35116669 64.96438385 35.76876831 64.39251709 C33.92372348 62.57502523 32.09366335 60.74331084 30.2646637 58.90968323 C28.97855418 57.63135716 27.69200202 56.3534763 26.4050293 55.07601929 C23.7196442 52.4055044 21.04207182 49.72744067 18.36940002 47.04420471 C14.94754149 43.61072489 11.50341217 40.20059096 8.05267429 36.79616833 C5.39390164 34.16687631 2.7491303 31.52384237 0.10818291 28.87665749 C-1.15618776 27.61331168 -2.42527646 26.3546691 -3.69917107 25.10092735 C-5.47781848 23.34700554 -7.23626688 21.57498627 -8.99095154 19.7971344 C-9.78022034 19.03079681 -9.78022034 19.03079681 -10.58543396 18.24897766 C-13.0768338 15.6844334 -14.33143896 13.6508039 -15.44616699 10.23825073 C-15.29132809 6.48957887 -14.52713475 4.79238464 -12.04042417 2.00403196 C-8.47509724 -0.5844664 -4.24193882 -0.06680887 0 0 Z " fill="#FD3009" transform="translate(96.30174255371094,157.25828552246094)"/>
<path d="M0 0 C0.50803823 0.1622919 1.01607645 0.3245838 1.53950977 0.49179363 C4.8189778 1.16915724 8.03506128 1.13970459 11.36784363 1.13130188 C12.11220132 1.13341759 12.85655901 1.13553331 13.62347299 1.13771313 C16.11903257 1.14370706 18.61454151 1.14271341 21.11010742 1.1418457 C22.89902838 1.14487765 24.68794857 1.1483992 26.47686768 1.15237427 C30.33080824 1.16026168 34.18473955 1.16540763 38.03868675 1.16866493 C44.13660383 1.17457792 50.23446263 1.19112161 56.33235168 1.21000671 C58.42069908 1.21634412 60.50904652 1.22266974 62.59739399 1.22898388 C64.16620302 1.2337326 64.16620302 1.2337326 65.76670516 1.23857725 C79.96270519 1.28063702 94.15867814 1.31362256 108.35473633 1.32592773 C117.93084773 1.3343136 127.50681486 1.35682427 137.08285409 1.3952834 C142.14857316 1.41502703 147.21407665 1.42745424 152.27983665 1.42244911 C157.04796804 1.41779546 161.81569112 1.43164733 166.58374023 1.45946121 C168.3295743 1.46636102 170.0754507 1.46651262 171.82128334 1.45926094 C189.82662501 1.39205043 189.82662501 1.39205043 196 6 C196.99 7.485 196.99 7.485 198 9 C196.35 8.67 194.7 8.34 193 8 C193 7.34 193 6.68 193 6 C188.82835275 4.99263407 184.79706916 4.85285004 180.52967834 4.85523987 C179.78643309 4.85171302 179.04318783 4.84818618 178.27741998 4.84455246 C175.7917925 4.83389454 173.30620338 4.83018958 170.82055664 4.82641602 C169.03647196 4.82010857 167.25238884 4.81334256 165.4683075 4.80615234 C161.62856944 4.79149686 157.7888374 4.77976635 153.94908333 4.77020454 C147.87711366 4.75474106 141.80519591 4.73079269 135.73326111 4.70530701 C118.46779663 4.63413123 101.20230276 4.57429691 83.93676758 4.52319336 C74.39953524 4.49488956 64.86235492 4.4595106 55.32517713 4.41653961 C49.28966913 4.38977322 43.25421996 4.37186454 37.21866429 4.36050236 C33.46315236 4.35137397 29.70771192 4.33401129 25.9522419 4.31432343 C24.21159489 4.30685295 22.47092955 4.30276717 20.73026657 4.30232811 C18.35247115 4.30124409 15.97503859 4.28798311 13.5973053 4.27174377 C12.56640788 4.27566906 12.56640788 4.27566906 11.51468426 4.27967364 C7.31870082 4.23496984 3.90591449 3.52052294 0 2 C0 1.34 0 0.68 0 0 Z " fill="#FFD7C9" transform="translate(144,231)"/>
<path d="M0 0 C0.92523183 -0.00384115 1.85046366 -0.00768229 2.80373281 -0.01163983 C3.82696207 -0.01077335 4.85019132 -0.00990687 5.90442753 -0.00901413 C6.98616106 -0.01198525 8.06789458 -0.01495637 9.18240792 -0.01801753 C12.8313784 -0.02673555 16.48031621 -0.02821538 20.1292963 -0.02970505 C22.73552871 -0.03433096 25.34176044 -0.03935531 27.94799137 -0.04475021 C35.04495375 -0.05834379 42.1419105 -0.06435965 49.23888373 -0.06876087 C53.66754098 -0.07152118 58.09619603 -0.0757581 62.5248518 -0.08026505 C74.77911174 -0.09245832 87.03336992 -0.10275799 99.2876358 -0.10614014 C100.07222786 -0.1063597 100.85681991 -0.10657927 101.66518748 -0.10680549 C102.45168612 -0.10702377 103.23818476 -0.10724204 104.04851669 -0.10746694 C105.64233776 -0.10791041 107.23615883 -0.10835697 108.8299799 -0.10880661 C110.01587237 -0.10913875 110.01587237 -0.10913875 111.22572226 -0.10947761 C124.04348335 -0.11342777 136.86118767 -0.13088816 149.67892682 -0.15416613 C162.8289612 -0.17785548 175.97896706 -0.19034086 189.12902313 -0.19150805 C196.51628082 -0.1924261 203.90346451 -0.19821102 211.29070187 -0.21632767 C218.23536477 -0.23329861 225.17988475 -0.23499944 232.12456226 -0.22618866 C234.67921099 -0.22541441 237.23386706 -0.22981156 239.78849697 -0.23964691 C243.26448578 -0.25224901 246.73996665 -0.2465537 250.21595097 -0.23606491 C251.74744877 -0.24814952 251.74744877 -0.24814952 253.30988592 -0.26047826 C254.23772549 -0.25388841 255.16556507 -0.24729857 256.121521 -0.24050903 C257.32569669 -0.24140467 257.32569669 -0.24140467 258.55419916 -0.24231839 C261.10819739 0.21893088 261.99850656 1.16199289 263.62368107 3.13142776 C261.73206273 2.8880645 261.73206273 2.8880645 259.80222988 2.63978481 C254.44725904 2.04853594 249.14988111 1.98917044 243.76690006 1.997715 C242.70777043 1.99544944 241.64864079 1.99318388 240.55741632 1.99084967 C237.0269217 1.98454566 233.49646583 1.98533669 229.96596622 1.98616409 C227.42766616 1.98317054 224.88936655 1.97976755 222.35106754 1.97598648 C216.18502764 1.96808157 210.01900182 1.96493297 203.85295732 1.9643741 C198.84318473 1.96389808 193.83341528 1.96183908 188.82364368 1.95867348 C174.61493009 1.94987796 160.40622403 1.94525291 146.19750769 1.94600395 C145.43273963 1.94604391 144.66797157 1.94608386 143.88002872 1.94612503 C143.11432656 1.94616591 142.34862439 1.94620679 141.55971913 1.94624891 C129.12717465 1.9466561 116.69466035 1.93706532 104.26212461 1.92298666 C91.49155291 1.90863926 78.72099594 1.90171543 65.95041597 1.90258044 C58.78237498 1.90291275 51.61436571 1.90015011 44.44633198 1.88940239 C37.71417626 1.87937241 30.98209891 1.87961573 24.2499361 1.88691902 C21.77429958 1.88796934 19.29865895 1.8855757 16.82302952 1.87955856 C13.45479261 1.87189929 10.08679165 1.87644285 6.71856022 1.88418961 C5.72957316 1.87904604 4.7405861 1.87390248 3.72162974 1.86860305 C2.82249082 1.87320185 1.92335191 1.87780064 0.99696636 1.8825388 C0.21924142 1.88232143 -0.55848353 1.88210406 -1.3597759 1.8818801 C-3.69091769 2.01737789 -3.69091769 2.01737789 -6.37631893 4.13142776 C-6.37631893 3.14142776 -6.37631893 2.15142776 -6.37631893 1.13142776 C-4.02147543 -0.04599399 -2.62569965 0.0040778 0 0 Z " fill="#FEDED3" transform="translate(89.37631893157959,156.86857223510742)"/>
<path d="M0 0 C0.83395294 0.16265854 1.66790588 0.32531708 2.52713013 0.49290466 C6.25968201 1.03791779 9.7938445 1.11987568 13.56591797 1.11352539 C14.6645089 1.11374443 14.6645089 1.11374443 15.78529358 1.1139679 C18.18762249 1.1132755 20.58987226 1.10551482 22.9921875 1.09765625 C24.66513018 1.09578968 26.33807342 1.0943669 28.01101685 1.09336853 C32.40040615 1.08956219 36.78976203 1.07974808 41.17913818 1.06866455 C45.66369169 1.05840985 50.14825063 1.05386223 54.6328125 1.04882812 C63.42189029 1.03812403 72.21094098 1.02107035 81 1 C81 1.33 81 1.66 81 2 C72.38530689 3.92012103 64.02168274 4.36499499 55.21484375 4.484375 C53.8228724 4.50822773 52.4309097 4.5325902 51.03895569 4.55743408 C48.14720295 4.60692718 45.25544919 4.64983145 42.36352539 4.68798828 C38.65433011 4.73754134 34.94568741 4.80470125 31.23686886 4.87673569 C28.37430786 4.93029742 25.51166141 4.97432124 22.64889717 5.01544952 C21.28007591 5.03634061 19.91129799 5.0603049 18.54258537 5.08739471 C16.64044939 5.123697 14.7380566 5.14570259 12.83569336 5.16699219 C11.21334023 5.19125275 11.21334023 5.19125275 9.55821228 5.21600342 C7 5 7 5 5 3 C2.42938689 2.35232207 2.42938689 2.35232207 0 2 C0 1.34 0 0.68 0 0 Z " fill="#FEEBE2" transform="translate(263,351)"/>
<path d="M0 0 C0.99 0.495 0.99 0.495 2 1 C1.01 1.33 0.02 1.66 -1 2 C-1 2.66 -1 3.32 -1 4 C-43.9 4 -86.8 4 -131 4 C-131 3.67 -131 3.34 -131 3 C-130.03285804 2.99503478 -130.03285804 2.99503478 -129.04617786 2.98996925 C-113.35536417 2.90873745 -97.66465746 2.81664443 -81.9739809 2.71247292 C-74.38607612 2.66235801 -66.79818208 2.61591497 -59.21020508 2.578125 C-52.59627634 2.5451767 -45.98243123 2.50532981 -39.36859483 2.45720994 C-35.86684579 2.43197312 -32.36515204 2.41018357 -28.86333656 2.39665604 C-24.95346811 2.3814229 -21.04380264 2.35078773 -17.1340332 2.31884766 C-15.97381653 2.31668747 -14.81359985 2.31452728 -13.6182251 2.31230164 C-12.55116837 2.30113815 -11.48411163 2.28997467 -10.38471985 2.2784729 C-9.46016149 2.27294214 -8.53560312 2.26741138 -7.58302784 2.26171303 C-4.76036433 1.97572005 -2.61655513 1.05201127 0 0 Z " fill="#E03B1D" transform="translate(336,275)"/>
<path d="M0 0 C0.66 0 1.32 0 2 0 C2 3.3 2 6.6 2 10 C1.34 10 0.68 10 0 10 C-0.061875 11.19625 -0.12375 12.3925 -0.1875 13.625 C-0.74912287 18.40730383 -2.68994551 20.60507231 -6 24 C-7.65 23.67 -9.3 23.34 -11 23 C-10.2575 22.29875 -9.515 21.5975 -8.75 20.875 C-2.47233337 14.31198488 -1.08659256 8.83571319 0 0 Z " fill="#EF4222" transform="translate(349,252)"/>
<path d="M0 0 C-2.83332467 3.04516202 -5.65500311 5.16868601 -9.25 7.25 C-10.58804687 8.03117187 -10.58804687 8.03117187 -11.953125 8.828125 C-12.62859375 9.21484375 -13.3040625 9.6015625 -14 10 C-14.33 9.34 -14.66 8.68 -15 8 C-14.34 8 -13.68 8 -13 8 C-13 7.34 -13 6.68 -13 6 C-12.01 6 -11.02 6 -10 6 C-9.9175 5.38125 -9.835 4.7625 -9.75 4.125 C-9 2 -9 2 -7.25 0.75 C-4.71262971 -0.0957901 -2.65765704 -0.14764761 0 0 Z " fill="#ED3C1D" transform="translate(388,331)"/>
<path d="M0 0 C0.66 0.33 1.32 0.66 2 1 C1.649375 1.845625 1.29875 2.69125 0.9375 3.5625 C-0.12277509 7.45017533 0.21685128 10.08425639 1 14 C0.34 13.67 -0.32 13.34 -1 13 C-1 12.34 -1 11.68 -1 11 C-1.66 11 -2.32 11 -3 11 C-3.36923077 4.6 -3.36923077 4.6 -1.5 1.5625 C-1.005 1.046875 -0.51 0.53125 0 0 Z " fill="#E8573C" transform="translate(203,279)"/>
<path d="M0 0 C0.66 0 1.32 0 2 0 C2 3.3 2 6.6 2 10 C1.34 10 0.68 10 0 10 C0 11.32 0 12.64 0 14 C-0.66 14 -1.32 14 -2 14 C-1.34 9.38 -0.68 4.76 0 0 Z " fill="#E6492D" transform="translate(349,252)"/>
<path d="M0 0 C2.55803184 3.83704776 4.34505724 7.75712791 3.625 12.4375 C3.41875 12.953125 3.2125 13.46875 3 14 C2.34 13.67 1.68 13.34 1 13 C0.5859375 10.05859375 0.5859375 10.05859375 0.375 6.4375 C0.30023438 5.23996094 0.22546875 4.04242188 0.1484375 2.80859375 C0.09945313 1.88175781 0.05046875 0.95492187 0 0 Z " fill="#EA5D41" transform="translate(418,221)"/>
<path d="M0 0 C0.33 1.32 0.66 2.64 1 4 C-1.97 6.475 -1.97 6.475 -5 9 C-5.66 8.67 -6.32 8.34 -7 8 C-4.69 5.36 -2.38 2.72 0 0 Z " fill="#FDDDD4" transform="translate(405,313)"/>
<path d="M0 0 C7.26153846 0.36923077 7.26153846 0.36923077 11 3.5625 C11.99 4.7690625 11.99 4.7690625 13 6 C11.35 5.67 9.7 5.34 8 5 C8 4.34 8 3.68 8 3 C5.36 2.34 2.72 1.68 0 1 C0 0.67 0 0.34 0 0 Z " fill="#FEE4DA" transform="translate(329,234)"/>
<path d="M0 0 C2.96052484 3.36423277 3.92289822 6.69159287 5 11 C4.01 10.67 3.02 10.34 2 10 C0.47839986 6.3962102 0 3.94779314 0 0 Z " fill="#EA492B" transform="translate(411,205)"/>
<path d="M0 0 C3.45925163 1.2491742 6.14693203 2.67527795 9 5 C6.69 5 4.38 5 2 5 C2 4.34 2 3.68 2 3 C1.34 2.67 0.68 2.34 0 2 C0 1.34 0 0.68 0 0 Z " fill="#E74121" transform="translate(375,169)"/>
<path d="M0 0 C0.33 0.99 0.66 1.98 1 3 C-0.65 4.32 -2.3 5.64 -4 7 C-4.66 6.67 -5.32 6.34 -6 6 C-4.02 4.02 -2.04 2.04 0 0 Z " fill="#FED6CB" transform="translate(395,324)"/>
<path d="M0 0 C0.66 0.33 1.32 0.66 2 1 C1.01 1.33 0.02 1.66 -1 2 C-1 2.66 -1 3.32 -1 4 C-3.31 4 -5.62 4 -8 4 C-5.31143836 2.20762558 -3.0466145 1.01553817 0 0 Z " fill="#E54D2D" transform="translate(336,275)"/>
</svg>
