<?xml version="1.0" encoding="UTF-8"?>
<svg version="1.1" xmlns="http://www.w3.org/2000/svg" width="160" height="65">
<path d="M0 0 C0.99 0 1.98 0 3 0 C3.10957031 1.30710938 3.21914063 2.61421875 3.33203125 3.9609375 C4.36420372 15.75767 5.86676595 27.35254208 8 39 C9.89772191 38.74273307 11.79315677 38.46856661 13.6875 38.1875 C14.74324219 38.03667969 15.79898438 37.88585938 16.88671875 37.73046875 C20.12007586 36.97182662 22.18454798 35.70408938 25 34 C27.74852193 33.64024582 30.2104588 33.85815892 33 34 C36.41867174 24.92912432 37.11370867 15.5719464 38 6 C39.32 6 40.64 6 42 6 C41.85650316 8.60431506 41.71077981 11.20845539 41.5625 13.8125 C41.51810791 14.59496094 41.47371582 15.37742187 41.42797852 16.18359375 C41.1862448 20.3028382 40.88280445 24.3968376 40.4375 28.5 C39.97817992 33.25359829 39.89189639 37.97805076 39.875 42.75 C39.87040771 43.45962891 39.86581543 44.16925781 39.86108398 44.90039062 C39.8772546 50.4216871 40.24132716 55.72398149 42 61 C40.125 60.875 40.125 60.875 38 60 C36.21392068 55.71340964 35.65736755 51.73700336 35.375 47.125 C35.26285156 45.39636719 35.26285156 45.39636719 35.1484375 43.6328125 C35.09945312 42.76398437 35.05046875 41.89515625 35 41 C34.29875 41.825 33.5975 42.65 32.875 43.5 C30 46 30 46 26.9375 46.625 C24 46 24 46 22.3125 43.4375 C20.2505386 40.69705012 20.2505386 40.69705012 17.30859375 40.890625 C14.51337487 41.16193616 11.76630217 41.51828186 9 42 C9.22719727 42.88522339 9.22719727 42.88522339 9.45898438 43.78833008 C10.14302079 46.46212319 10.82156848 49.1372795 11.5 51.8125 C11.73847656 52.74126953 11.97695313 53.67003906 12.22265625 54.62695312 C12.44824219 55.51962891 12.67382812 56.41230469 12.90625 57.33203125 C13.11572266 58.15421143 13.32519531 58.9763916 13.54101562 59.82348633 C14 62 14 62 14 65 C12.2578125 64.84765625 12.2578125 64.84765625 10 64 C7.9921875 61.55859375 7.9921875 61.55859375 5.875 58.4375 C1.30689346 51.9612583 -4.90193055 44.56879795 -12.8828125 42.515625 C-15.57810054 42.19632258 -17.38539372 42.21226606 -20 43 C-23.22528158 46.2964275 -25.50784961 50.13742068 -28 54 C-29.23657523 55.54881667 -30.50449624 57.07351459 -31.8125 58.5625 C-32.62654297 59.49255859 -32.62654297 59.49255859 -33.45703125 60.44140625 C-36.01663405 63.02692907 -37.51953296 63.98115816 -41.1875 64.125 C-42.115625 64.08375 -43.04375 64.0425 -44 64 C-44 63.34 -44 62.68 -44 62 C-43.10539062 61.60425781 -42.21078125 61.20851562 -41.2890625 60.80078125 C-34.26931019 56.95742518 -29.10554537 49.78307496 -25 43 C-26.66131257 41.33868743 -28.83762515 41.43836816 -31.06811523 41.0480957 C-37.37022646 39.94326267 -42.70170516 38.7475744 -48 35 C-48.042721 33.33388095 -48.04063832 31.66617115 -48 30 C-47 29 -47 29 -43.875 28.6875 C-38.21246455 28.72860734 -32.88863957 30.48832437 -27.48828125 32.02734375 C-24.65836838 32.8164236 -21.88055574 33.4455847 -19 34 C-12.52271269 22.74258003 -6.05497256 11.49165566 0 0 Z M-1 9 C-1.27674561 9.52843506 -1.55349121 10.05687012 -1.83862305 10.60131836 C-3.12044195 13.0473116 -4.40396316 15.49240784 -5.6875 17.9375 C-6.34008789 19.18370117 -6.34008789 19.18370117 -7.00585938 20.45507812 C-9.9262822 26.01469787 -12.9249047 31.52442654 -16 37 C-11.28708745 40.77033004 -6.73825691 40.41390706 -1 40 C1.93471013 39.58480886 1.93471013 39.58480886 4 39 C3.37536408 32.08339065 2.49987484 25.2372298 1.4375 18.375 C1.29892578 17.46621094 1.16035156 16.55742187 1.01757812 15.62109375 C0.68066063 13.4137033 0.34144335 11.20669409 0 9 C-0.33 9 -0.66 9 -1 9 Z M-43 31 C-43.66 31.66 -44.32 32.32 -45 33 C-41.09973895 35.62972146 -37.59045641 36.78046395 -33 37.75 C-31.80375 38.01296875 -30.6075 38.2759375 -29.375 38.546875 C-26.18758958 38.97481436 -24.06717512 38.85973848 -21 38 C-25.89306298 33.10693702 -36.13091392 31.30529271 -43 31 Z M24 39 C24 40.32 24 41.64 24 43 C26.78211944 42.62403791 28.5879284 42.32681541 30.8125 40.5625 C32.20169442 39.06170257 32.20169442 39.06170257 32 37 C28.28400809 36.79913557 27.22791555 36.8480563 24 39 Z M-4 42 C-2.1432125 45.71357499 -1.04392008 47.10800155 2 49.6875 C3.051875 50.59048828 3.051875 50.59048828 4.125 51.51171875 C5.9350436 53.05326755 5.9350436 53.05326755 8 54 C7.01 50.04 6.02 46.08 5 42 C2.03 42 -0.94 42 -4 42 Z " fill="#FFFFFF" transform="translate(48,0)"/>
<path d="M0 0 C0.99 0.33 1.98 0.66 3 1 C2.67 3.31 2.34 5.62 2 8 C8.58442897 6.71763854 8.58442897 6.71763854 14 3 C14.33 2.01 14.66 1.02 15 0 C16.485 0.495 16.485 0.495 18 1 C18.495 2.485 18.495 2.485 19 4 C19.7425 3.319375 20.485 2.63875 21.25 1.9375 C24 0 24 0 26.1875 0 C28.50615495 1.27925791 29.0593406 2.56996323 30 5 C30.763125 4.319375 31.52625 3.63875 32.3125 2.9375 C33.199375 2.298125 34.08625 1.65875 35 1 C35.99 1.33 36.98 1.66 38 2 C39.1875 5.0625 39.1875 5.0625 40 8 C41.60433809 7.52140759 43.20846416 7.04210442 44.8125 6.5625 C46.15248047 6.16224609 46.15248047 6.16224609 47.51953125 5.75390625 C49.35473055 5.19612127 51.18033726 4.60655425 53 4 C52.8125 5.8125 52.8125 5.8125 52 8 C49.33712754 10.13029797 47.43811195 10.93474928 44.0625 11.4375 C40.22776533 10.88968076 38.04981981 9.32367223 35 7 C34.13375 7.7425 34.13375 7.7425 33.25 8.5 C31 10 31 10 27 10 C26.505 7.525 26.505 7.525 26 5 C25.01 5 24.02 5 23 5 C22.731875 5.598125 22.46375 6.19625 22.1875 6.8125 C21.01506533 8.97224808 19.80630718 10.35790256 18 12 C17.01 11.67 16.02 11.34 15 11 C14.67 10.01 14.34 9.02 14 8 C13.319375 8.495 12.63875 8.99 11.9375 9.5 C8.33167301 11.34127336 6.00517255 11.3641066 2 11 C1.319375 10.608125 0.63875 10.21625 -0.0625 9.8125 C-0.701875 9.544375 -1.34125 9.27625 -2 9 C-2.928125 9.474375 -3.85625 9.94875 -4.8125 10.4375 C-8.71234212 12.34918731 -10.8345852 11.91639125 -15 11 C-15.8125 8.8125 -15.8125 8.8125 -16 6 C-14.1875 3.1875 -14.1875 3.1875 -11 1 C-8.31067038 0.70488037 -5.80752026 0.74625608 -3.109375 0.921875 C-2.41328125 0.94765625 -1.7171875 0.9734375 -1 1 C-0.67 0.67 -0.34 0.34 0 0 Z M-13 7 C-13 7.66 -13 8.32 -13 9 C-8.59885603 8.49701212 -6.28804981 6.91227269 -3 4 C-7.24223102 3.6363802 -9.58168085 4.4606772 -13 7 Z " fill="#FFFFFF" transform="translate(107,34)"/>
</svg>
