<?xml version="1.0" encoding="UTF-8"?>
<svg version="1.1" xmlns="http://www.w3.org/2000/svg" width="230" height="65">
<path d="M0 0 C1.4461292 10.6049475 -6.53234146 20.13965513 -12.265625 28.40625 C-13.70827039 30.56371969 -14.91350453 32.64962204 -16 35 C-15.01 34.34 -14.02 33.68 -13 33 C-9.40185203 32.93080485 -6.96988959 33.12237867 -4.234375 35.59765625 C-3.66203125 36.22542969 -3.0896875 36.85320313 -2.5 37.5 C-0.05373004 40.14240741 0.9104814 40.96907539 4.4375 42.1875 C10.22437474 41.88292765 14.27617412 39.47756504 18.625 35.75 C21.59349873 33.56268514 23.39647736 33.66478859 27 34 C26.34 36.97 25.68 39.94 25 43 C33.66017053 41.47409669 40.02857676 39.37166506 47 34 C50.91727303 31.26701882 53.20792019 30.66566885 58 31 C58.6875 32.8125 58.6875 32.8125 59 35 C57.72537443 37.20935099 56.4159488 37.86817371 54.015625 38.62890625 C52.02207269 39.13436366 50.01146171 39.57132783 48 40 C53.65916231 42.92085797 58.85744757 42.87830039 64.88964844 41.19238281 C70.6833664 38.82451547 74.27504505 36.64619566 76.80284119 30.71704102 C78.07119899 27.26578989 79.1482097 23.775865 80.1875 20.25 C80.65010397 18.79943739 81.11687296 17.35019618 81.58789062 15.90234375 C82.44082588 13.26696826 83.26283301 10.62882581 84.06713867 7.97753906 C85 5 85 5 86 3 C86.66 3 87.32 3 88 3 C87.36527889 7.55281155 86.21209025 11.6650687 84.71484375 16.0078125 C84.2623158 17.3372212 83.80984348 18.66664885 83.35742188 19.99609375 C82.64595706 22.0681827 81.93247393 24.1395584 81.2175293 26.21044922 C80.5240422 28.22453558 79.83790342 30.24101664 79.15234375 32.2578125 C78.73976318 33.4555127 78.32718262 34.65321289 77.90209961 35.88720703 C76.81443285 39.10017401 76.81443285 39.10017401 77 43 C84.96101181 42.96865743 90.60923877 41.12233228 97.56640625 37.27734375 C100 36 100 36 102 36 C100.25131061 40.22158347 98.24032585 41.26667977 94.21875 43.1171875 C88.99665709 45.19499207 83.65492007 46.64260455 78 46 C74.8640843 44.22015595 74.15897264 43.47691793 73 40 C71.9275 40.639375 70.855 41.27875 69.75 41.9375 C64.56763091 44.86486617 59.99649323 45.64092953 54 45 C51.880348 44.37408827 49.89047864 43.62258074 47.859375 42.75390625 C45.88777195 41.95449577 44.1033044 41.3400552 42 41 C40.37350062 41.73026503 38.74850483 42.46437299 37.13671875 43.2265625 C32.09275869 45.05234695 26.09323622 45.69774541 21 44 C18.36195411 44.39397335 18.36195411 44.39397335 16 45 C15.67 44.01 15.34 43.02 15 42 C14.484375 42.309375 13.96875 42.61875 13.4375 42.9375 C8.82559514 44.9478175 5.28315752 45.3826961 0.4375 43.9375 C-2.53037776 42.26469617 -3.8828641 41.18506198 -6.0625 38.75 C-8.2689422 36.42065253 -8.65894778 36.04263153 -12 35.625 C-15.8741622 37.40065767 -17.40641717 39.7721811 -19.703125 43.28515625 C-20.13109375 43.85105469 -20.5590625 44.41695312 -21 45 C-21.66 45 -22.32 45 -23 45 C-22.67 43.35 -22.34 41.7 -22 40 C-22.556875 40.27714844 -23.11375 40.55429687 -23.6875 40.83984375 C-30.27571717 43.96702116 -35.45321441 45.69772831 -42.8125 44.25 C-45.81203911 43.07371015 -46.90944888 42.28516699 -49 40 C-49.4846875 40.34933594 -49.969375 40.69867188 -50.46875 41.05859375 C-55.43622173 44.43074282 -58.96529323 45.90266602 -65 46 C-68.5 45.0625 -68.5 45.0625 -71 44 C-71.29162929 39.04230204 -71.12940055 35.97193147 -68 32 C-67.34 32 -66.68 32 -66 32 C-66.66 35.3 -67.32 38.6 -68 42 C-62.32943704 43.29950401 -58.13744793 42.97525245 -53 40 C-50.11461829 37.7071158 -47.3426281 35.33983766 -44.61328125 32.86328125 C-42 31 -42 31 -39.29296875 30.54296875 C-38.53628906 30.69378906 -37.77960938 30.84460938 -37 31 C-36.34 31.99 -35.68 32.98 -35 34 C-36.093125 33.896875 -37.18625 33.79375 -38.3125 33.6875 C-40.1378125 33.8421875 -40.1378125 33.8421875 -42 34 C-43.95578117 36.39740918 -45 37.87586608 -45 41 C-37.72320338 42.29104456 -32.90098912 41.46119192 -26 39 C-24.515 38.7215625 -24.515 38.7215625 -23 38.4375 C-20.50251279 36.64243107 -20.59420772 35.96237156 -20.0625 33 C-19.92457031 32.11570313 -19.78664062 31.23140625 -19.64453125 30.3203125 C-17.70080962 20.30720108 -14.6624483 8.17777536 -7 1 C-4.53721199 -0.231394 -2.7204945 -0.07159196 0 0 Z M-5 2 C-11.92537658 9.22411831 -15.33047013 20.31672678 -17 30 C-13.24797561 26.63345757 -10.89696805 22.86245553 -8.375 18.5625 C-7.98054688 17.90701172 -7.58609375 17.25152344 -7.1796875 16.57617188 C-4.28513017 11.70138529 -2 7.80575368 -2 2 C-2.99 2 -3.98 2 -5 2 Z M48 36 C48 36.33 48 36.66 48 37 C51.465 36.505 51.465 36.505 55 36 C55.33 35.01 55.66 34.02 56 33 C52.41465407 33 50.92504174 34.02362045 48 36 Z M23 35 C21.35 36.65 19.7 38.3 18 40 C18.33 40.66 18.66 41.32 19 42 C20.65 40.35 22.3 38.7 24 37 C23.67 36.34 23.34 35.68 23 35 Z " fill="#FFFFFF" transform="translate(128,9)"/>
<path d="M0 0 C3.22649448 4.83974172 2.61396847 9.59329662 1.59863281 15.22705078 C0.51870488 20.51318134 -0.72112631 25.75890156 -2 31 C-1.50371094 30.23816406 -1.00742188 29.47632812 -0.49609375 28.69140625 C12.14127362 9.48356703 12.14127362 9.48356703 18 6 C20.25713514 6.18809459 21.39545559 6.39545559 23 8 C23.46949261 15.94861913 23.11699982 23.32587564 21 31 C21.92232422 29.73542969 21.92232422 29.73542969 22.86328125 28.4453125 C23.67943017 27.33835189 24.49585067 26.23159149 25.3125 25.125 C25.71662109 24.56941406 26.12074219 24.01382812 26.53710938 23.44140625 C28.55387431 20.7195934 30.15051156 18.89965896 33 17 C35.625 17.25 35.625 17.25 38 18 C42.07702948 26.15405896 37.54914061 37.32921987 35.1328125 45.39453125 C33.232702 52.08111057 32.63416471 58.05590429 33 65 C32.01 65 31.02 65 30 65 C27.15179235 59.30358471 29.22314527 52.37230317 31.08398438 46.65405273 C31.36564453 45.81946533 31.64730469 44.98487793 31.9375 44.125 C35.39396916 33.78514775 35.39396916 33.78514775 36 23 C35.34 22.01 34.68 21.02 34 20 C33.34 20 32.68 20 32 20 C31.77183594 20.50660156 31.54367188 21.01320313 31.30859375 21.53515625 C29.46830254 25.0014958 27.26196518 28.19067044 25.0625 31.4375 C24.1772721 32.74794654 23.29313321 34.05912947 22.41015625 35.37109375 C21.99137207 35.98968262 21.57258789 36.60827148 21.14111328 37.24560547 C20.14534226 38.77654483 19.24871156 40.37105635 18.37109375 41.97265625 C17.91863281 42.64167969 17.46617188 43.31070313 17 44 C16.01 44 15.02 44 14 44 C14.95366293 39.62904489 15.92493594 35.27057394 17.0234375 30.93359375 C18.8822326 23.50337454 20.56162378 16.72232703 20 9 C7.06910001 14.22983066 -3.21514733 38.66190158 -8.7265625 50.6640625 C-10 53 -10 53 -13 54 C-12.41225234 49.98759834 -11.5478925 46.31076168 -10.22265625 42.48046875 C-9.87396484 41.45759766 -9.52527344 40.43472656 -9.16601562 39.38085938 C-8.43437285 37.26362762 -7.70260343 35.14643962 -6.97070312 33.02929688 C-4.28128792 25.13935503 -1.67960865 17.4829792 -1.8125 9.0625 C-1.81894531 8.14597656 -1.82539063 7.22945313 -1.83203125 6.28515625 C-1.85653473 3.9698947 -1.85653473 3.9698947 -3 2 C-8.50800189 4.31546576 -10.71117169 8.98250514 -12.984375 14.3046875 C-13.69514813 16.18890684 -14.3529662 18.09295301 -15 20 C-15.66 20 -16.32 20 -17 20 C-16.53044269 12.64360218 -13.42828253 7.31865279 -9.125 1.4375 C-5.99664564 -0.67873972 -3.67448881 -0.47632262 0 0 Z M-4 33 C-3 35 -3 35 -3 35 Z M19 33 C20 35 20 35 20 35 Z " fill="#FFFFFF" transform="translate(17,0)"/>
<path d="M0 0 C-0.33 0.99 -0.66 1.98 -1 3 C-2.65 3.33 -4.3 3.66 -6 4 C-2.25 0 -2.25 0 0 0 Z " fill="#FFFFFF" transform="translate(65,35)"/>
</svg>
