<?xml version="1.0" encoding="UTF-8"?>
<svg version="1.1" xmlns="http://www.w3.org/2000/svg" width="600" height="644">
<path d="M0 0 C198 0 396 0 600 0 C600 212.52 600 425.04 600 644 C402 644 204 644 0 644 C0 431.48 0 218.96 0 0 Z " fill="#FEFEFE" transform="translate(0,0)"/>
<path d="M0 0 C0.33 0 0.66 0 1 0 C1.08636719 0.90621094 1.17273438 1.81242187 1.26171875 2.74609375 C2.20328697 10.90923103 3.11617132 18.64782862 9.54296875 24.375 C11.62820316 25.77436261 13.74873937 26.88278247 16 28 C17.19403797 28.59890341 18.38804577 29.19786696 19.58203125 29.796875 C21.62820472 30.81844941 23.67554085 31.83752366 25.72509766 32.85229492 C37.72963071 38.81298491 48.63558859 45.5157468 59 54 C60.02867187 54.82371094 61.05734375 55.64742187 62.1171875 56.49609375 C73.34359036 65.68009256 83.37643094 76.19212817 93.54321289 86.51147461 C107.71298986 100.86430544 123.00245755 111.08439728 143 115 C142.39671875 114.54109375 141.7934375 114.0821875 141.171875 113.609375 C140.37265625 112.99578125 139.5734375 112.3821875 138.75 111.75 C137.96109375 111.14671875 137.1721875 110.5434375 136.359375 109.921875 C134.07114774 108.05795478 131.97564512 106.19314734 130 104 C130 103.34 130 102.68 130 102 C142.21299361 99.42331553 153.90635054 98.47742555 166.375 98.5625 C167.67810623 98.56407104 167.67810623 98.56407104 169.00753784 98.56567383 C181.18300967 98.59575563 192.77234671 99.47478313 204.78320312 101.55883789 C228.98310961 105.68827676 246.48414419 102.11234497 267.1875 89.125 C285.53575053 77.77269061 305.88615599 69.50124798 325.9375 61.6875 C337.13867263 57.2768804 347.4462632 52.71873997 353.28125 41.546875 C355.49852368 36.38379487 356.58586049 31.59088333 357 26 C357.66 26 358.32 26 359 26 C359.75662871 42.56667651 358.9496955 54.29235762 347.6171875 67.296875 C338.75646825 76.44854324 328.38345497 83.76990421 318.1171875 91.2421875 C312.72110531 95.18122312 307.42383264 99.24413646 302.125 103.3125 C265.72905773 131.12408839 265.72905773 131.12408839 248 129 C245.8477894 128.40306612 243.80244179 127.65994625 241.71484375 126.8671875 C235.65409981 124.93123764 229.25958029 124.08294579 223 123 C224.01578125 123.4846875 225.0315625 123.969375 226.078125 124.46875 C250.65665413 136.36371463 269.73752936 153.26238894 286 175 C285.34 175.33 284.68 175.66 284 176 C282.23510742 175.36669922 282.23510742 175.36669922 280.10546875 174.3046875 C278.92754761 173.72835571 278.92754761 173.72835571 277.72583008 173.14038086 C276.46935669 172.51401733 276.46935669 172.51401733 275.1875 171.875 C267.57604577 168.16415451 259.98027786 164.85112261 252 162 C252.79921875 162.65484375 253.5984375 163.3096875 254.421875 163.984375 C286.67438369 190.66262048 286.67438369 190.66262048 289.40625 203.98046875 C289.66052006 209.96640984 288.17672208 212.58038123 284.3359375 217.0703125 C282.2120194 220.1381942 282.54781196 222.38249565 283 226 C283.53367187 225.60167969 284.06734375 225.20335937 284.6171875 224.79296875 C296.56221975 216.29918284 310.6882685 214.94912006 325 214 C324.67 215.98 324.34 217.96 324 220 C327.3 220.33 330.6 220.66 334 221 C326.10536351 199.43517716 311.97685975 180.196881 297 163 C298.32171859 160.10360233 299.77984286 157.95674683 301.9375 155.625 C313.97576754 142.08507747 325.26558265 127.77889592 330 110 C330.66 110 331.32 110 332 110 C333.86783046 115.48675196 334.2358396 120.22192976 334 126 C334.66 126 335.32 126 336 126 C336.26167969 125.28070313 336.52335937 124.56140625 336.79296875 123.8203125 C338.04082506 120.9046094 339.54325322 118.50337105 341.3125 115.875 C348.15739362 105.21793995 351.66475933 94.106214 355 82 C355.33 82 355.66 82 356 82 C356.07518327 87.01298895 356.12907998 92.02563671 356.16479492 97.0390625 C356.17971208 98.73801402 356.20005315 100.43692821 356.22631836 102.13574219 C356.60684616 127.41472611 349.77395255 149.4714488 332.73168945 168.63720703 C330.35463854 171.31492094 328.51280602 173.76390308 327 177 C327.72703125 177.99515625 328.4540625 178.9903125 329.203125 180.015625 C362.26830016 225.76401743 362.26830016 225.76401743 360 247 C359.319375 248.7634375 359.319375 248.7634375 358.625 250.5625 C357.65806324 253.81382672 357.65806324 253.81382672 358.95703125 255.71875 C360.00546023 257.02444519 361.06962413 258.31757733 362.14453125 259.6015625 C375.79645469 277.24846985 377.1567337 300.86948249 374.5625 322.21875 C371.58244241 338.75806961 362.39546078 351.53712493 349.140625 361.52734375 C347 363 347 363 344.3515625 364.2734375 C341.06474469 366.68668247 340.93896613 368.73934471 340.125 372.6875 C336.26651441 389.40692084 327.4721226 409.45656126 313.4140625 419.92578125 C308.70551598 423.97147413 307.08919521 430.29382161 305 436 C304.58105469 437.10214844 304.16210938 438.20429688 303.73046875 439.33984375 C299.03419591 453.82693277 298.78996092 472.33029067 303 487 C303.8353125 488.5778125 303.8353125 488.5778125 304.6875 490.1875 C306.44959037 493.96340793 305.8580447 495.93886613 305 500 C303.99350763 502.68317066 302.75386627 505.20649163 301.4375 507.75 C301.08034912 508.44883301 300.72319824 509.14766602 300.35522461 509.86767578 C294.99678559 520.09560655 287.89398931 528.62928665 280 537 C279.38769531 537.67675781 278.77539062 538.35351562 278.14453125 539.05078125 C265.83274851 552.15009807 248.26452951 561.79557753 232 569 C231.34 569 230.68 569 230 569 C230 559.76 230 550.52 230 541 C223.58310937 542.26512402 223.58310937 542.26512402 217.16870117 543.54272461 C205.84915372 545.73634969 194.68282493 546.18656793 183.1809082 546.18530273 C180.91013833 546.1875268 178.63982737 546.20585947 176.36914062 546.22460938 C174.92187664 546.22753742 173.47461039 546.22952615 172.02734375 546.23046875 C170.72531006 546.23457764 169.42327637 546.23868652 168.08178711 546.24291992 C165 546 165 546 163 544 C164.32 541.69 165.64 539.38 167 537 C165.9790625 536.97873047 165.9790625 536.97873047 164.9375 536.95703125 C146.77182309 536.0632413 129.94190875 527.9612725 115 518 C107.53685158 535.75816344 106.5625375 550.95355561 107 570 C91.90497924 565.5146224 81.14843701 551.09169866 73.82421875 537.87890625 C72.81597074 535.94416008 71.89974558 533.98726415 71 532 C70.66226563 531.32453125 70.32453125 530.6490625 69.9765625 529.953125 C66.0799171 521.45668014 65.24362981 512.17648055 64 503 C63.18357746 504.26831693 62.37200895 505.53975931 61.5625 506.8125 C60.88380859 507.87404297 60.88380859 507.87404297 60.19140625 508.95703125 C58.85913661 511.08134552 58.85913661 511.08134552 58 514 C57.34 514 56.68 514 56 514 C55.94093293 510.08339894 55.90605142 506.16691543 55.875 502.25 C55.85824219 501.15816406 55.84148437 500.06632812 55.82421875 498.94140625 C55.70256283 478.38155574 62.43246408 460.38309072 76.671875 445.3203125 C91.04040404 431 91.04040404 431 97 431 C97.9255935 424.73387889 98.15183823 418.6418482 98.125 412.3125 C98.12886719 411.38888672 98.13273438 410.46527344 98.13671875 409.51367188 C98.13542969 408.61841797 98.13414062 407.72316406 98.1328125 406.80078125 C98.13112061 405.59675659 98.13112061 405.59675659 98.12939453 404.3684082 C97.99096806 401.83468135 97.55287924 399.47368164 97 397 C99 397 99 397 101.0625 398.875 C102.04700345 399.91162422 103.02521318 400.95423356 104 402 C104.67546875 402.69351562 105.3509375 403.38703125 106.046875 404.1015625 C119.26356873 418.09302793 127.18730232 435.5292894 132 454 C132.18111328 454.6894873 132.36222656 455.37897461 132.54882812 456.08935547 C133.80196967 461.51000185 134.22913889 466.87659652 134.5 472.421875 C134.58434146 473.95704743 134.66898132 475.49220349 134.75390625 477.02734375 C134.88446551 479.39958078 135.00056427 481.76831441 135.07373047 484.14306641 C135.07622068 493.4322831 135.07622068 493.4322831 139.16210938 501.31982422 C141.72916899 502.88236144 144.17566792 503.98783717 147 505 C147.9796875 505.50789063 148.959375 506.01578125 149.96875 506.5390625 C166.62543308 513.68498518 184.0934359 514.92952253 202 516 C202 517.65 202 519.3 202 521 C217.41131845 522.19828826 231.9378088 516.67023839 246 511 C246.97453125 510.61070312 247.9490625 510.22140625 248.953125 509.8203125 C249.62859375 509.54960938 250.3040625 509.27890625 251 509 C252.74685308 512.82745451 253.34886333 516.12442723 253.625 520.3125 C253.73714844 521.91544922 253.73714844 521.91544922 253.8515625 523.55078125 C253.90054687 524.35902344 253.94953125 525.16726563 254 526 C263.69381681 518.49070529 271.26223022 511.28133759 278 501 C278.67482422 500.05253906 278.67482422 500.05253906 279.36328125 499.0859375 C281.86016745 495.32773765 282.30586764 492.66228331 281.49609375 488.24609375 C281.33238281 487.50488281 281.16867187 486.76367188 281 486 C277.67362638 470.84652017 277.63256674 454.15344968 281 439 C281.22171875 437.91976563 281.4434375 436.83953125 281.671875 435.7265625 C284.71194862 422.73454976 290.03884956 409.92230087 296 398 C284.62091774 403.62965122 277.56683791 408.42814423 271.6875 419.8125 C271.18029419 420.78981079 271.18029419 420.78981079 270.6628418 421.78686523 C265.3742908 432.66812256 265.79956487 443.5460313 266.34277344 455.39941406 C266.80196722 466.04342268 265.5421401 474.92667816 258.12011719 483.06005859 C252.53203552 488.2573313 247.22248542 489.2936699 239.69921875 489.16015625 C238.50641045 489.1523539 238.50641045 489.1523539 237.289505 489.14439392 C234.75531377 489.12664842 232.22153456 489.09552223 229.6875 489.0625 C227.16421643 489.03472383 224.64099792 489.00998512 222.11763 488.99131775 C220.5514849 488.9792327 218.98536815 488.96180609 217.4193573 488.93800354 C212.51379416 488.89375395 207.85918695 489.31981008 203 490 C191.37136198 490.92982025 182.358122 490.2558932 173.0703125 482.359375 C164.95470994 473.71888273 163.72711765 462.21199101 162 451 C159.40241404 434.45201784 156.12824351 418.40068725 150.75 402.5 C150.36013916 401.34435547 149.97027832 400.18871094 149.56860352 398.99804688 C143.67198613 381.88507668 135.77359723 360.27391653 118.5625 351.5625 C116.7990625 350.7890625 116.7990625 350.7890625 115 350 C124.23458445 339.72208509 140.91178107 336.64274125 154.17749023 335.8737793 C165.22759197 335.49315797 175.2470984 336.29116389 186 339 C187.10472656 339.25523437 188.20945312 339.51046875 189.34765625 339.7734375 C196.57325336 341.54928887 203.50492544 343.84968562 210.51000977 346.34350586 C232.30959567 354.09657463 256.10584736 360.24832042 278.35546875 350.53515625 C284.04547121 348.24164723 284.04547121 348.24164723 288 344 C287.25556641 343.41605469 287.25556641 343.41605469 286.49609375 342.8203125 C279.28907719 336.88512239 273.66556784 329.6248655 270 321 C270 320.34 270 319.68 270 319 C269.1646875 318.6596875 269.1646875 318.6596875 268.3125 318.3125 C262.58283548 315.06052825 257.72439934 308.98138802 255 303 C255.24276116 299.35306528 256.18940397 297.4589996 258.625 294.8125 C260.84904673 291.82109212 261.39879316 289.79377464 261.25 286.0625 C260.26585369 280.2196854 257.59437829 276.64274136 253 273 C247.59251672 269.72122216 242.28493019 267.00144492 236 266 C236 265.34 236 264.68 236 264 C243.7629761 261.05602712 250.74447081 260.65062807 259 261 C255.27470489 248.19429806 245.4742389 241.85906509 234.92578125 234.69921875 C225.42776384 228.23387785 225.42776384 228.23387785 224.4375 223.0625 C224.4375 217.94272086 228.05175573 214.5138277 231.15234375 210.74609375 C233.25640183 207.61892075 233.94628535 205.76490868 234 202 C230.1237744 193.45794728 223.00857042 186.26088276 216.54345703 179.59472656 C214.93012244 177.92780129 213.33891557 176.24120472 211.74609375 174.5546875 C202.29610718 164.69459949 191.88595903 155.82130854 180 149 C180.54269531 150.01578125 181.08539063 151.0315625 181.64453125 152.078125 C188.60893557 165.36319243 191.40805891 177.05859031 192 192 C191.42709229 191.87882813 190.85418457 191.75765625 190.26391602 191.6328125 C152.67465998 184.02794405 114.31080763 187.63504098 77 195 C77.74757568 195.03963867 78.49515137 195.07927734 79.26538086 195.12011719 C100.5617497 196.29665828 122.09629493 197.67622417 142.5234375 204.265625 C145.04884339 205.14214714 145.04884339 205.14214714 148 205 C147.34 203.02 146.68 201.04 146 199 C160.44350457 202.11848394 188.09028836 208.88641033 197 222 C197.70232648 224.29481095 198.12126113 226.53984021 198.51171875 228.90625 C199.93324268 235.00174461 207.4161559 238.46016801 212.19921875 241.87109375 C216.54065868 245.1710725 221.51987319 249.03974638 224 254 C224.1064116 255.82987658 224.15543408 257.66323868 224.17578125 259.49609375 C224.19962891 260.61306641 224.22347656 261.73003906 224.24804688 262.88085938 C224.29037536 265.21662239 224.32196612 267.55260952 224.34179688 269.88867188 C224.53309227 277.67839812 225.94880416 283.85069865 229 291 C229.33 291.99 229.66 292.98 230 294 C221.15733037 292.78763015 213.92611696 290.04628877 205.89453125 286.27734375 C196.95270897 282.22746012 188.16770231 280.62060139 178.375 280.75 C177.64571289 280.75386719 176.91642578 280.75773437 176.16503906 280.76171875 C170.819902 280.84758441 166.14174446 281.62886814 161 283 C157.9375 283.125 157.9375 283.125 156 283 C162.96544692 274.42714225 170.70068349 268.00658637 179.9375 262 C180.69587158 261.50661133 181.45424316 261.01322266 182.2355957 260.50488281 C187.73910507 257 187.73910507 257 190 257 C187.59310197 254.27324841 185.07528977 252.88033404 181.8125 251.3125 C180.91144531 250.87550781 180.01039063 250.43851563 179.08203125 249.98828125 C178.39496094 249.66214844 177.70789063 249.33601562 177 249 C177.61875 248.29875 178.2375 247.5975 178.875 246.875 C181.0427009 243.94222819 182.02655555 241.48817594 183 238 C180.03 237.34 177.06 236.68 174 236 C171.74754119 238.68841859 170.11786042 240.64641875 169 244 C168.34 244 167.68 244 167 244 C166.49038154 242.60764957 165.99275091 241.21090882 165.5 239.8125 C165.08234375 238.64654297 165.08234375 238.64654297 164.65625 237.45703125 C164 235 164 235 164 230 C160.37 229.34 156.74 228.68 153 228 C152.979375 229.5675 152.95875 231.135 152.9375 232.75 C152.92009766 234.07257813 152.92009766 234.07257813 152.90234375 235.421875 C152.92172179 238.26953476 152.92172179 238.26953476 154 242 C141.46 240.02 128.92 238.04 116 236 C117.71965924 232.56068152 118.78331995 230.9889376 121.4375 228.4375 C122.33275391 227.56931641 122.33275391 227.56931641 123.24609375 226.68359375 C123.82488281 226.12800781 124.40367187 225.57242188 125 225 C126.00136601 224.00136788 127.00157908 223.00157659 128 222 C114.95754855 220.74212086 101.90365088 220.75787779 88.8125 220.75 C87.65281708 220.74899292 86.49313416 220.74798584 85.29830933 220.74694824 C68.33785607 220.7569161 51.76134294 221.17935015 35 224 C33.61941406 224.2168042 33.61941406 224.2168042 32.2109375 224.43798828 C19.12171675 226.51889785 6.60431228 229.93846006 -6 234 C-2.98174022 234 -0.24203465 233.83951582 2.73828125 233.51171875 C9.50766049 232.87733506 16.25787839 232.81392022 23.05004883 232.81469727 C25.16703741 232.81252104 27.28349424 232.79432002 29.40039062 232.77539062 C42.48642192 232.72206578 56.34574182 233.50917016 69 237 C69.66 237.66 70.32 238.32 71 239 C70.2565332 239.12004395 69.51306641 239.24008789 68.74707031 239.36376953 C26.53300405 246.27803031 -8.84829512 260.00028421 -40 290 C-40.96099609 290.88365234 -40.96099609 290.88365234 -41.94140625 291.78515625 C-54.59999822 303.73886143 -63.59839168 319.43980069 -71 335 C-70.12672628 334.12672628 -69.26810607 333.23884832 -68.41210938 332.34863281 C-37.19404551 299.9661558 2.96156035 274.14885554 49 271 C50.99987088 270.97727419 53.00023234 270.96951574 55 271 C52.68165963 273.31834037 50.94046337 273.86402447 47.875 275 C8.30585701 291.18737668 -19.46160712 328.22353528 -35.625 366.4375 C-37.76647888 371.55800432 -39.57220186 376.63515451 -41 382 C-40.70609375 381.3915625 -40.4121875 380.783125 -40.109375 380.15625 C-33.87794355 367.9798897 -25.30350238 357.12247942 -15.9921875 347.1484375 C-14.1813018 345.19552155 -12.50094792 343.18305841 -10.8125 341.125 C2.18696164 326.26418358 21.29466294 312.23511235 40 306 C37.36 311.28 34.72 316.56 32 322 C34.26875 320.68 36.5375 319.36 38.875 318 C47.6384583 313.00889736 56.6912586 308.86268396 66 305 C66.96164063 304.60039062 67.92328125 304.20078125 68.9140625 303.7890625 C81.0262072 299.1017 94.17348877 295.93118259 107 294 C104.60752912 296.72410051 102.22371909 297.95384834 98.9375 299.4375 C80.95407951 308.22262924 64.4523887 321.24559599 50 335 C49.40960938 335.5578418 48.81921875 336.11568359 48.2109375 336.69042969 C18.88709721 364.56852287 -5.19330952 404.21893937 -6.26628113 445.71958923 C-6.41366369 454.81532424 -6.26327564 463.90767435 -6 473 C-5.33665649 471.92528442 -5.33665649 471.92528442 -4.65991211 470.82885742 C-1.24510788 465.36746094 2.19254659 460.15881525 6.4375 455.3125 C6.90486572 454.77069092 7.37223145 454.22888184 7.85375977 453.6706543 C18.48591788 441.46012895 18.48591788 441.46012895 24 439 C23.81824219 439.59425781 23.63648438 440.18851562 23.44921875 440.80078125 C22.62136801 443.53056599 21.80787636 446.26423688 21 449 C20.73703125 449.88816406 20.4740625 450.77632813 20.203125 451.69140625 C16.79059283 463.65267972 15.62213921 475.13403497 15.6875 487.5625 C15.68973572 488.61506989 15.68973572 488.61506989 15.6920166 489.68890381 C15.79228753 516.00553243 23.13279514 538.85436928 33 563 C13.831796 559.48582927 -5.42954443 548.46037722 -21 537 C-22.06734375 536.22785156 -23.1346875 535.45570313 -24.234375 534.66015625 C-57.53036535 509.92490431 -81.25762776 472.87587829 -89 432 C-89.09765625 429.0546875 -89.09765625 429.0546875 -89 427 C-89.66 427 -90.32 427 -91 427 C-91.25265625 427.67933594 -91.5053125 428.35867188 -91.765625 429.05859375 C-92.93357143 431.8417066 -94.29033599 434.45799015 -95.71679688 437.11523438 C-100.9648985 447.006269 -104.08459586 457.22183923 -107 468 C-117.84027255 454.76143706 -122.64850671 432.45855959 -126 416 C-126.15098145 415.27087402 -126.30196289 414.54174805 -126.45751953 413.79052734 C-131.3933903 388.60001536 -131.55164533 359.09140891 -126 334 C-125.81195801 333.11103027 -125.62391602 332.22206055 -125.43017578 331.30615234 C-121.15611018 311.62912956 -114.17589798 291.87486583 -103 275 C-109.4141505 279.56873849 -115.18950262 284.69596436 -121 290 C-122.47470904 291.31750655 -123.95348837 292.63048058 -125.4375 293.9375 C-126.36369141 294.75541016 -126.36369141 294.75541016 -127.30859375 295.58984375 C-129 297 -129 297 -132 299 C-129.16721296 266.63068678 -107.62054733 233.95688565 -88 209 C-86.89591797 207.57494141 -86.89591797 207.57494141 -85.76953125 206.12109375 C-68.84486454 184.81443078 -48.57302701 167.07406189 -26 152 C-26.29074889 149.79154565 -26.58266613 147.58324511 -26.875 145.375 C-27.13394127 143.41444469 -27.39259905 141.45385067 -27.64868164 139.49291992 C-27.9086603 137.6481374 -28.1989779 135.80757377 -28.50561523 133.9699707 C-30.0409252 124.4067704 -30.35772928 115.09471388 -30.3125 105.4375 C-30.31100952 104.64863403 -30.30951904 103.85976807 -30.3079834 103.04699707 C-30.26545643 90.49900153 -29.61014793 78.31005894 -27 66 C-26.8448291 65.25363281 -26.6896582 64.50726563 -26.52978516 63.73828125 C-24.16701255 52.69755787 -20.87222934 43.6014238 -14.51171875 34.29296875 C-9.54877931 26.76520273 -7.13146647 19.12735255 -4.98046875 10.453125 C-3.83562702 6.42109279 -2.3496694 3.44058734 0 0 Z " fill="#A31E33" transform="translate(179,36)"/>
<path d="M0 0 C3.16863801 0.64078208 4.2080626 1.82608841 6.10546875 4.42578125 C6.63748886 7.13477013 6.98016453 9.57135997 7.16796875 12.30078125 C7.56474792 17.58137311 8.26377187 21.84108653 11.10546875 26.42578125 C16.07847153 30.20526336 21.58311784 32.587595 27.23046875 35.17578125 C54.77824008 47.8340017 79.95167044 70.05298843 99.3046875 93.1796875 C103.52808607 98.19293341 108.29084212 102.34918134 114.10546875 105.42578125 C117.82153312 105.6998273 120.64495222 104.69426641 124.10546875 103.42578125 C125.76527622 103.04074754 127.432507 102.68640782 129.10546875 102.36328125 C130.18828125 102.12931641 130.18828125 102.12931641 131.29296875 101.890625 C141.03390303 100.28066503 150.74132364 100.23954344 160.58862305 100.24047852 C163.13803184 100.23830675 165.68699633 100.22013975 168.23632812 100.20117188 C179.01898252 100.16435719 189.4266787 100.90572984 200.10546875 102.42578125 C221.32458411 105.42601251 236.52217522 105.98258604 254.91015625 94.109375 C270.36294996 84.15098717 286.7984998 76.66027718 303.8828125 69.95703125 C304.6586116 69.65149826 305.43441071 69.34596527 306.23371887 69.03117371 C310.13985022 67.494141 314.05054979 65.97160471 317.97192383 64.47387695 C327.27344954 60.87310571 336.57778106 57.22913572 342.10546875 48.42578125 C344.0788649 43.88341443 345.17584313 39.61565615 345.48046875 34.67578125 C345.79310751 31.24276714 346.14758925 30.36507818 348.23046875 27.36328125 C351.9095775 24.88388187 353.75013045 24.64804227 358.10546875 25.42578125 C363.13285056 29.33342802 364.22561936 33.02126418 365.35546875 38.98828125 C365.59523438 40.09139648 365.59523438 40.09139648 365.83984375 41.21679688 C374.36813296 82.61453409 369.15390804 134.67002753 346.10546875 170.42578125 C342.78011814 175.34756251 339.31367588 180.21757412 335.10546875 184.42578125 C335.389516 188.64388296 337.04055368 191.033568 339.60546875 194.30078125 C348.21641933 205.78717426 355.14022522 218.38580805 361.10546875 231.42578125 C361.56308594 232.41835938 362.02070312 233.4109375 362.4921875 234.43359375 C365.02695184 240.81942109 365.17069643 246.24058302 364.91796875 252.98828125 C364.66136558 260.4471699 365.50919925 264.55851947 370.15625 270.62890625 C372.5374628 274.04563643 373.96846674 277.47823079 375.41796875 281.36328125 C375.6598291 281.98356201 375.90168945 282.60384277 376.15087891 283.24291992 C380.03840315 293.89046254 380.42562318 304.82607313 380.35546875 316.05078125 C380.36320313 317.29601562 380.3709375 318.54125 380.37890625 319.82421875 C380.33565023 340.32757291 373.51846909 357.47110803 358.92578125 372.0390625 C356.10546875 374.42578125 356.10546875 374.42578125 353.90332031 375.70727539 C348.37002816 378.93165107 346.04939947 381.37506031 344.28344727 387.55737305 C344.05971436 388.44207275 343.83598145 389.32677246 343.60546875 390.23828125 C338.83874674 406.48144318 331.50992355 420.72278536 318.91796875 432.30078125 C314.15926637 436.95704581 312.22077597 442.2078319 310.10546875 448.42578125 C309.71230469 449.42867188 309.31914062 450.4315625 308.9140625 451.46484375 C304.09120558 465.2780437 303.58737942 482.89199141 309.1328125 496.546875 C309.96448464 498.38575724 309.96448464 498.38575724 311.10546875 499.42578125 C312.72973311 515.66842483 301.34171131 531.06360704 291.66796875 543.23828125 C277.51514611 559.75812649 261.37378021 571.52512378 242.10546875 581.42578125 C241.01621094 581.99683594 239.92695313 582.56789063 238.8046875 583.15625 C233.34651047 585.85136646 229.20159184 587.388327 223.10546875 586.42578125 C220.8671875 585.09375 220.8671875 585.09375 219.10546875 582.42578125 C218.75375262 578.64570153 219.05349186 574.95288907 219.35546875 571.17578125 C219.45408203 569.62890625 219.45408203 569.62890625 219.5546875 568.05078125 C219.71954686 565.5072368 219.9037741 562.96662637 220.10546875 560.42578125 C219.51121094 560.55855469 218.91695313 560.69132813 218.3046875 560.828125 C205.94759254 563.46097416 193.67569589 563.66657095 181.08813477 563.72094727 C179.21566263 563.73255924 177.34322588 563.75315308 175.47094727 563.7824707 C172.73821989 563.8251063 170.00645582 563.84129763 167.2734375 563.8515625 C166.44208786 563.86907059 165.61073822 563.88657867 164.75419617 563.90461731 C159.43911132 563.88480615 156.2354927 563.09993831 152.10546875 559.42578125 C151.23046875 555.67578125 151.23046875 555.67578125 151.10546875 552.42578125 C149.92984375 552.38453125 148.75421875 552.34328125 147.54296875 552.30078125 C136.21802208 551.03651834 125.0564896 544.65145701 115.10546875 539.42578125 C114.79039601 540.94608367 114.47856143 542.46705725 114.16796875 543.98828125 C113.90693359 545.25865234 113.90693359 545.25865234 113.640625 546.5546875 C112.59945983 552.14050066 111.99387202 557.40663492 112.18359375 563.09375 C112.209375 564.31642578 112.23515625 565.53910156 112.26171875 566.79882812 C112.32451716 569.35393832 112.40279044 571.90871243 112.49609375 574.46289062 C112.51671875 575.68169922 112.53734375 576.90050781 112.55859375 578.15625 C112.59114258 579.26379639 112.62369141 580.37134277 112.65722656 581.51245117 C112.10546875 584.42578125 112.10546875 584.42578125 109.76464844 586.75512695 C105.46166048 589.45851904 102.22603302 589.56383616 97.2265625 589.59375 C96.54664749 589.59793945 95.86673248 589.60212891 95.16621399 589.60644531 C92.95840708 589.61624237 90.75079384 589.61623289 88.54296875 589.61328125 C87.41924866 589.61287338 87.41924866 589.61287338 86.27282715 589.61245728 C70.4097078 589.58584416 55.51118399 588.43859496 40.10546875 584.42578125 C38.65407716 584.082805 37.20222091 583.74179137 35.75 583.40234375 C-9.93229264 572.43859352 -51.68909574 542.58613005 -76.59375 502.70629883 C-94.89453125 472.40967654 -94.89453125 472.40967654 -94.89453125 459.42578125 C-95.55453125 459.42578125 -96.21453125 459.42578125 -96.89453125 459.42578125 C-97.01183594 460.23789062 -97.12914062 461.05 -97.25 461.88671875 C-98.00361443 466.0247471 -99.0528468 470.00938158 -100.20703125 474.05078125 C-100.40748047 474.80101562 -100.60792969 475.55125 -100.81445312 476.32421875 C-102.05189683 480.64569397 -103.14230032 483.64741179 -106.89453125 486.42578125 C-110.33203125 487.05078125 -110.33203125 487.05078125 -113.89453125 486.42578125 C-118.45798832 481.86960242 -120.817641 476.83106124 -123.26953125 470.92578125 C-123.6552832 470.00144287 -124.04103516 469.07710449 -124.43847656 468.12475586 C-144.20954843 419.80317869 -146.99331281 365.00406653 -129.89453125 315.42578125 C-130.88453125 316.08578125 -131.87453125 316.74578125 -132.89453125 317.42578125 C-136.9307493 318.03998834 -138.41564166 317.76933248 -141.76953125 315.36328125 C-144.47788628 311.61937871 -144.22643594 309.99869031 -143.89453125 305.42578125 C-143.28817376 302.38495989 -142.43416994 299.44955782 -141.51953125 296.48828125 C-141.25624023 295.62855713 -140.99294922 294.76883301 -140.72167969 293.88305664 C-128.81101518 256.33492177 -108.20115947 222.69249533 -80.89453125 194.42578125 C-80.21438965 193.7184082 -79.53424805 193.01103516 -78.83349609 192.28222656 C-69.39851671 182.51557313 -59.8657228 173.43755054 -48.89453125 165.42578125 C-47.79150891 164.61219301 -46.68864255 163.79839324 -45.5859375 162.984375 C-43.03353578 161.11478138 -40.47153231 159.26123711 -37.89453125 157.42578125 C-38.20417987 155.00871821 -38.5171424 152.59216238 -38.83203125 150.17578125 C-38.91904297 149.49386719 -39.00605469 148.81195313 -39.09570312 148.109375 C-39.59136077 144.25087758 -39.59136077 144.25087758 -40.41790771 140.45429993 C-40.9153079 138.33735542 -41.03457842 136.46978635 -41.05566406 134.29760742 C-41.06512054 133.4904277 -41.07457703 132.68324799 -41.08432007 131.85160828 C-41.09092148 130.54834343 -41.09092148 130.54834343 -41.09765625 129.21875 C-41.10471588 128.30958328 -41.11177551 127.40041656 -41.11904907 126.46369934 C-41.52966259 57.92223775 -41.52966259 57.92223775 -23.26953125 37.48828125 C-19.10395914 32.11688563 -17.74193765 25.52578695 -15.96875 19.0390625 C-13.35040452 9.76171492 -10.5108196 0.57188324 0 0 Z M-2.89453125 9.42578125 C-6.16033225 15.11416415 -8.36059245 20.67787624 -9.89453125 27.05078125 C-11.34582471 32.96359391 -13.23266675 37.55740647 -16.89453125 42.42578125 C-31.85818485 62.53566492 -33.31401926 89.89438181 -33.20703125 114.17578125 C-33.20629105 115.34385315 -33.20629105 115.34385315 -33.20553589 116.53552246 C-33.18274513 128.33298291 -32.45757089 139.76128369 -30.25830078 151.37695312 C-29.6663313 154.71105238 -29.28636155 158.06288818 -28.89453125 161.42578125 C-29.78914063 162.05484375 -30.68375 162.68390625 -31.60546875 163.33203125 C-41.6718884 170.443082 -51.29612633 177.83016024 -60.40234375 186.15625 C-62.02658621 187.63537988 -63.66666341 189.09736244 -65.32421875 190.5390625 C-87.46173148 209.88286356 -104.31550132 234.53128586 -117.89453125 260.42578125 C-118.24757324 261.0923877 -118.60061523 261.75899414 -118.96435547 262.44580078 C-123.89350407 271.88173436 -127.53746233 281.66330061 -130.95703125 291.73828125 C-131.56720093 293.51996704 -131.56720093 293.51996704 -132.18969727 295.33764648 C-132.74161743 297.01515991 -132.74161743 297.01515991 -133.3046875 298.7265625 C-133.80174194 300.22956909 -133.80174194 300.22956909 -134.30883789 301.76293945 C-134.90295371 304.46407378 -134.82990083 305.86046827 -133.89453125 308.42578125 C-133.44464844 307.95269531 -132.99476563 307.47960937 -132.53125 306.9921875 C-127.82353491 302.15239222 -122.85532396 297.84015238 -117.59375 293.61328125 C-113.93790858 290.65051541 -110.40716982 287.55595488 -106.89453125 284.42578125 C-107.84906255 287.28937515 -109.09068403 289.83493996 -110.47119141 292.51196289 C-118.93239025 308.96735915 -124.90737939 325.32297803 -128.89453125 343.42578125 C-129.07532227 344.23337891 -129.25611328 345.04097656 -129.44238281 345.87304688 C-138.16051197 387.01984333 -132.04111391 436.10473822 -112.89453125 473.42578125 C-111.3060297 475.82155022 -111.3060297 475.82155022 -109.89453125 477.42578125 C-109.55421875 476.16765625 -109.21390625 474.90953125 -108.86328125 473.61328125 C-106.00572206 463.4024167 -102.64675574 454.05830325 -97.62890625 444.7109375 C-96.18752086 441.98074581 -94.96898875 439.31475627 -93.89453125 436.42578125 C-93.23453125 436.42578125 -92.57453125 436.42578125 -91.89453125 436.42578125 C-91.8694751 437.06684814 -91.84441895 437.70791504 -91.81860352 438.3684082 C-91.32808476 446.24696979 -89.39273066 453.17306802 -86.83203125 460.61328125 C-86.42936035 461.79929932 -86.02668945 462.98531738 -85.61181641 464.20727539 C-82.41378547 473.40051652 -78.66583344 481.95549014 -73.89453125 490.42578125 C-73.32089844 491.48410156 -72.74726562 492.54242187 -72.15625 493.6328125 C-65.66031927 505.26575511 -57.45061942 515.37840831 -48.27978516 524.97314453 C-46.9457048 526.37211847 -45.62872396 527.78733795 -44.3125 529.203125 C-26.51783657 547.7981481 1.66860567 566.90263767 27.10546875 572.42578125 C28.09546875 572.09578125 29.08546875 571.76578125 30.10546875 571.42578125 C29.77337402 570.66454956 29.77337402 570.66454956 29.43457031 569.88793945 C25.08856644 559.87878954 20.95322912 549.9833319 18.10546875 539.42578125 C17.83089844 538.44609375 17.55632812 537.46640625 17.2734375 536.45703125 C13.86517353 523.69702822 12.69486847 510.98139086 12.73046875 497.80078125 C12.73028748 496.75961655 12.73028748 496.75961655 12.73010254 495.69741821 C12.76728268 480.62540932 14.53666453 466.30541648 20.46875 452.32421875 C20.67886719 451.69773437 20.88898438 451.07125 21.10546875 450.42578125 C20.77546875 449.76578125 20.44546875 449.10578125 20.10546875 448.42578125 C10.55864137 456.65230272 1.99724561 465.09588615 -4.703125 475.7890625 C-5.1101062 476.43057251 -5.5170874 477.07208252 -5.93640137 477.73303223 C-6.9264046 479.29477869 -7.9110398 480.8599259 -8.89453125 482.42578125 C-10.13221751 439.68181006 -1.40961397 402.88660895 25.10546875 368.42578125 C26.05679688 367.13994141 26.05679688 367.13994141 27.02734375 365.828125 C39.35026251 349.88226813 54.60874332 335.92203727 71.10546875 324.42578125 C71.76417969 323.96494141 72.42289063 323.50410156 73.1015625 323.02929688 C83.02942548 316.13877019 93.25189941 309.7649086 104.10546875 304.42578125 C101.56710219 303.15659797 100.6805666 303.57212632 97.94921875 304.2109375 C96.67655151 304.50738159 96.67655151 304.50738159 95.37817383 304.80981445 C94.46318115 305.0337085 93.54818848 305.25760254 92.60546875 305.48828125 C91.66147217 305.71797607 90.71747559 305.9476709 89.74487305 306.18432617 C68.07118316 311.59228925 48.33261691 320.10953056 29.10546875 331.42578125 C31.77213542 326.09244792 34.43880208 320.75911458 37.10546875 315.42578125 C23.98801436 319.3184416 12.51934849 327.80739802 2.10546875 336.42578125 C1.53586426 336.88855469 0.96625977 337.35132813 0.37939453 337.828125 C-17.63736696 352.49998153 -33.64779786 370.40797806 -43.89453125 391.42578125 C-42.02333421 384.67060867 -39.7448508 378.2994591 -36.83203125 371.92578125 C-36.2438562 370.63655762 -36.2438562 370.63655762 -35.64379883 369.32128906 C-26.68598801 349.99808741 -15.67277038 332.84432537 -0.89453125 317.42578125 C0.32943359 316.10707031 0.32943359 316.10707031 1.578125 314.76171875 C15.17583178 300.54320356 33.30258782 287.61641035 52.10546875 281.42578125 C52.10546875 281.09578125 52.10546875 280.76578125 52.10546875 280.42578125 C2.14277321 282.48098433 -38.93483275 308.54538186 -72.89453125 343.42578125 C-71.49542433 338.63512195 -69.42009694 334.53715231 -66.83203125 330.30078125 C-66.4335498 329.64553467 -66.03506836 328.99028809 -65.62451172 328.31518555 C-58.8519517 317.34939087 -50.82495235 307.67721067 -41.89453125 298.42578125 C-41.36102051 297.86818115 -40.82750977 297.31058105 -40.27783203 296.73608398 C-11.57947392 267.30343087 28.29424739 253.857833 68.10546875 248.42578125 C65.35991729 245.68022979 63.026927 245.60471635 59.23046875 244.86328125 C57.99554688 244.61449219 56.760625 244.36570312 55.48828125 244.109375 C44.71027882 242.28291628 33.81741062 242.22711744 22.91796875 242.23828125 C22.19400909 242.23755615 21.47004944 242.23683105 20.72415161 242.23608398 C10.07190938 242.2372627 -0.3714674 242.62641766 -10.89453125 244.42578125 C-0.31877774 240.72067033 10.059009 237.45422408 21.10546875 235.42578125 C22.39453125 235.17054688 23.68359375 234.9153125 25.01171875 234.65234375 C43.96506538 230.98674812 62.86476754 230.11295429 82.13745117 230.2199707 C85.56371442 230.23839279 88.98970759 230.24047826 92.41601562 230.24023438 C103.35173251 230.25831484 114.21285427 230.35778148 125.10546875 231.42578125 C124.42484375 232.10640625 123.74421875 232.78703125 123.04296875 233.48828125 C122.594375 233.93945312 122.14578125 234.390625 121.68359375 234.85546875 C120.53745698 235.99593157 119.3796006 237.12465431 118.21484375 238.24609375 C117.580625 238.86226562 116.94640625 239.4784375 116.29296875 240.11328125 C115.68839844 240.69464844 115.08382812 241.27601563 114.4609375 241.875 C112.88610151 243.33348017 112.88610151 243.33348017 113.10546875 245.42578125 C113.86577393 245.53647949 114.6260791 245.64717773 115.40942383 245.76123047 C118.91256459 246.27243209 122.41526567 246.78658954 125.91796875 247.30078125 C127.11357422 247.47480469 128.30917969 247.64882813 129.54101562 247.828125 C136.75782076 248.88999823 143.93925375 250.06279706 151.10546875 251.42578125 C150.94248291 250.81895508 150.77949707 250.21212891 150.61157227 249.58691406 C149.67679209 245.59527195 150.05178768 241.50554286 150.10546875 237.42578125 C153.73546875 238.08578125 157.36546875 238.74578125 161.10546875 239.42578125 C161.22921875 240.80765625 161.35296875 242.18953125 161.48046875 243.61328125 C161.86948518 247.18772205 162.52494728 250.15937021 164.10546875 253.42578125 C164.76546875 253.42578125 165.42546875 253.42578125 166.10546875 253.42578125 C166.68296875 252.29140625 167.26046875 251.15703125 167.85546875 249.98828125 C169.82642175 246.58390788 169.82642175 246.58390788 171.98046875 245.36328125 C174.93208789 245.45009358 177.36777901 246.36803749 180.10546875 247.42578125 C179.67863243 248.70023579 179.23849673 249.97024007 178.79296875 251.23828125 C178.54933594 251.94597656 178.30570312 252.65367187 178.0546875 253.3828125 C177.03822617 255.57050498 175.89726281 256.83474843 174.10546875 258.42578125 C174.96011719 258.83570313 175.81476563 259.245625 176.6953125 259.66796875 C177.80003906 260.20679688 178.90476562 260.745625 180.04296875 261.30078125 C181.14511719 261.83445312 182.24726563 262.368125 183.3828125 262.91796875 C186.10546875 264.42578125 186.10546875 264.42578125 187.10546875 266.42578125 C186.09033203 266.77962891 186.09033203 266.77962891 185.0546875 267.140625 C181.41815963 268.72528416 178.20130575 270.78728968 174.91796875 272.98828125 C174.25885498 273.42938232 173.59974121 273.8704834 172.9206543 274.32495117 C165.37261307 279.47506537 158.7096537 285.17702735 153.10546875 292.42578125 C158.5047361 291.78483346 158.5047361 291.78483346 163.8671875 290.90234375 C167.68755245 290.34011875 171.44093834 290.24177357 175.29296875 290.23828125 C175.98455078 290.22603516 176.67613281 290.21378906 177.38867188 290.20117188 C188.77344417 290.16992364 198.02199736 293.36712076 208.2109375 298.1484375 C214.43407077 300.96698665 220.3383586 302.49797995 227.10546875 303.42578125 C225.70617178 299.91784015 225.70617178 299.91784015 224.26269531 296.42797852 C221.31662745 288.74849908 221.75410145 281.05018518 221.9296875 272.93164062 C221.88223838 267.11234542 221.66695315 263.31472306 217.765625 258.80859375 C216.57695002 257.64796029 215.35764076 256.51760702 214.10546875 255.42578125 C213.51886475 254.88034668 212.93226074 254.33491211 212.32788086 253.77294922 C208.31453728 250.08708222 203.82603792 247.16158116 199.2421875 244.234375 C195.83318442 241.34887513 195.27252282 238.26105162 194.41796875 233.98828125 C192.10530964 227.71106367 186.53702667 224.30232922 180.66235352 221.45898438 C180.00420654 221.15927734 179.34605957 220.85957031 178.66796875 220.55078125 C177.96148193 220.22271484 177.25499512 219.89464844 176.52709961 219.55664062 C160.31710701 211.85486895 160.31710701 211.85486895 143.10546875 208.42578125 C143.76546875 210.40578125 144.42546875 212.38578125 145.10546875 214.42578125 C139.91542738 213.45663348 134.80108023 212.34618625 129.69311523 211.00610352 C111.64500355 206.3912699 92.6735996 205.18526756 74.10546875 204.42578125 C78.35296162 203.62028575 82.60385429 202.83420503 86.85546875 202.05078125 C88.02335938 201.8290625 89.19125 201.60734375 90.39453125 201.37890625 C107.59999272 198.2338219 124.75558965 197.02093765 142.23046875 197.05078125 C143.54880203 197.04860596 143.54880203 197.04860596 144.89376831 197.04638672 C159.95488098 197.04911466 174.3381616 198.30244699 189.10546875 201.42578125 C188.68203349 186.30914246 185.40084809 173.80438459 178.10546875 160.42578125 C177.77546875 159.76578125 177.44546875 159.10578125 177.10546875 158.42578125 C197.16295296 170.05093536 218.90843245 188.99052824 230.10546875 209.42578125 C231.50191827 214.70912251 231.50191827 214.70912251 229.48046875 218.36328125 C228.24323867 219.95865687 227.00228142 221.55170478 225.72265625 223.11328125 C223.27647144 226.24439781 222.16741218 228.02659023 221.54296875 232.05078125 C222.36712048 236.99569163 224.77728017 239.45008847 228.76953125 242.3828125 C230.23519531 243.30126953 230.23519531 243.30126953 231.73046875 244.23828125 C242.43943822 251.19911141 252.23372103 257.77090213 256.10546875 270.42578125 C254.87183594 270.37357422 254.87183594 270.37357422 253.61328125 270.3203125 C246.1904774 270.14031379 240.05809978 270.78911756 233.10546875 273.42578125 C233.10546875 274.08578125 233.10546875 274.74578125 233.10546875 275.42578125 C233.72292969 275.57273437 234.34039062 275.7196875 234.9765625 275.87109375 C243.88509042 278.23042991 252.15764837 282.38557313 257.10546875 290.42578125 C258.18900929 293.8676159 258.60970063 296.84074796 258.10546875 300.42578125 C256.72568644 302.76611998 255.24669486 304.59295706 253.35546875 306.5390625 C251.86860057 308.38038967 251.86860057 308.38038967 252.21484375 310.80859375 C253.2499302 313.85029517 254.6237289 316.28149657 256.35546875 318.98828125 C256.938125 319.91769531 257.52078125 320.84710938 258.12109375 321.8046875 C260.20633288 324.55900926 262.27320347 326.45893036 265.10546875 328.42578125 C265.76546875 328.42578125 266.42546875 328.42578125 267.10546875 328.42578125 C267.36972656 329.30363281 267.63398438 330.18148438 267.90625 331.0859375 C270.9480047 339.55727388 276.49737358 346.44536795 283.10546875 352.42578125 C283.76546875 353.08578125 284.42546875 353.74578125 285.10546875 354.42578125 C269.73485935 365.17199527 251.31928052 366.63587137 233.18554688 363.44995117 C223.52364496 361.48282622 214.40620651 358.15589605 205.18212891 354.72070312 C196.89953097 351.64653832 188.75771013 349.22171667 180.10546875 347.42578125 C179.12578125 347.20277344 178.14609375 346.97976563 177.13671875 346.75 C156.44065504 342.57098714 133.45083073 345.09052771 115.35546875 356.23828125 C114.28296875 356.96015625 113.21046875 357.68203125 112.10546875 358.42578125 C114.10233196 360.62339871 114.10233196 360.62339871 117.23046875 362.05078125 C135.72600152 372.58136409 144.54863072 399.03681401 150.10546875 418.42578125 C151.37040196 423.30674892 152.48536956 428.21903811 153.57250977 433.14208984 C153.95874153 434.79706553 154.37458374 436.44522137 154.80834961 438.08837891 C157.26004257 447.38661693 158.64432055 456.77329624 159.94726562 466.29296875 C161.4472095 476.10531061 163.99274116 485.86102389 171.41796875 492.92578125 C173.20570908 494.26686999 173.20570908 494.26686999 175.10546875 495.42578125 C176.03746094 496.04066406 176.03746094 496.04066406 176.98828125 496.66796875 C184.9965969 501.08319981 195.03715383 500.13272431 203.81616211 498.90820312 C208.13723861 498.35581571 212.35099774 498.36510164 216.69921875 498.46875 C218.32290458 498.49112891 219.94660335 498.51258533 221.5703125 498.53320312 C224.09167308 498.57027474 226.61235581 498.61344288 229.13330078 498.67260742 C231.59287037 498.72745079 234.05168756 498.75627069 236.51171875 498.78125 C237.25466187 498.8050322 237.99760498 498.82881439 238.76306152 498.85331726 C245.12720779 498.88476475 250.13773678 496.86525693 255.05859375 492.8203125 C262.8127364 483.3611927 263.60791659 475.23179465 263.16796875 463.17578125 C262.58974912 446.27869158 264.49025647 430.63440091 276.23046875 417.55078125 C281.07412867 413.10797595 287.26098945 410.31726048 293.10546875 407.42578125 C292.82348633 408.0492041 292.54150391 408.67262695 292.25097656 409.31494141 C287.05269113 420.86739639 282.12284526 432.09389463 279.10546875 444.42578125 C278.76515625 445.49828125 278.42484375 446.57078125 278.07421875 447.67578125 C276.01523996 455.64602173 275.88547809 463.85310837 275.85546875 472.05078125 C275.851521 473.00210937 275.84757324 473.9534375 275.84350586 474.93359375 C275.90319071 482.25821757 276.85164563 489.00085225 278.546875 496.11328125 C279.75359578 503.26921988 277.18198906 507.61550276 273.32421875 513.41796875 C267.04212582 521.93418627 259.79292731 529.333835 251.10546875 535.42578125 C251.05648438 534.61753906 251.0075 533.80929687 250.95703125 532.9765625 C250.84488281 531.37361328 250.84488281 531.37361328 250.73046875 529.73828125 C250.66085937 528.68253906 250.59125 527.62679687 250.51953125 526.5390625 C250.11786786 523.51900856 249.36477856 521.18500071 248.10546875 518.42578125 C247.43 518.69648437 246.75453125 518.9671875 246.05859375 519.24609375 C245.0840625 519.63539063 244.10953125 520.0246875 243.10546875 520.42578125 C241.42710937 521.10253906 241.42710937 521.10253906 239.71484375 521.79296875 C226.70195814 526.92896502 213.27822476 531.5277666 199.10546875 530.42578125 C199.10546875 528.77578125 199.10546875 527.12578125 199.10546875 525.42578125 C198.44240723 525.38614258 197.7793457 525.34650391 197.09619141 525.30566406 C178.91394072 524.16868449 160.57181707 522.96228288 144.10546875 514.42578125 C142.8666394 513.97102417 142.8666394 513.97102417 141.6027832 513.50708008 C138.47964392 512.12147179 136.46286539 510.9176261 134.10546875 508.42578125 C132.71838341 503.69202379 132.48174691 499.12644728 132.3560791 494.21401978 C132.2496602 490.25012138 131.97853138 486.29669314 131.7265625 482.33984375 C131.68089142 481.56226212 131.63522034 480.78468048 131.58816528 479.98353577 C130.0629501 455.5630449 119.45368135 428.51118828 101.234375 411.69921875 C99.87633283 410.58542877 98.49372353 409.5016787 97.10546875 408.42578125 C96.77546875 407.76578125 96.44546875 407.10578125 96.10546875 406.42578125 C95.44546875 406.42578125 94.78546875 406.42578125 94.10546875 406.42578125 C94.26772949 407.15176514 94.42999023 407.87774902 94.59716797 408.62573242 C95.07077366 411.23465831 95.23456404 413.58123833 95.23828125 416.2265625 C95.23957031 417.12181641 95.24085938 418.01707031 95.2421875 418.93945312 C95.23832031 419.86306641 95.23445312 420.78667969 95.23046875 421.73828125 C95.23433594 422.65029297 95.23820313 423.56230469 95.2421875 424.50195312 C95.23444532 429.90212047 94.89465461 435.08311823 94.10546875 440.42578125 C93.36554688 440.70550781 92.625625 440.98523438 91.86328125 441.2734375 C74.79033884 448.4073157 64.11788355 464.64909122 57.06640625 481 C53.08879172 491.04105131 52.96372499 500.78273468 53.04296875 511.42578125 C53.04973633 513.16021484 53.04973633 513.16021484 53.05664062 514.9296875 C53.06834346 517.7617735 53.08473879 520.59374936 53.10546875 523.42578125 C53.76546875 523.42578125 54.42546875 523.42578125 55.10546875 523.42578125 C55.45480469 522.71550781 55.80414063 522.00523437 56.1640625 521.2734375 C56.84662109 519.89478516 56.84662109 519.89478516 57.54296875 518.48828125 C57.99542969 517.57175781 58.44789063 516.65523437 58.9140625 515.7109375 C60.10546875 513.42578125 60.10546875 513.42578125 61.10546875 512.42578125 C61.25242188 513.62332031 61.399375 514.82085938 61.55078125 516.0546875 C64.82221004 540.5853393 75.48157003 559.87679046 95.10546875 575.42578125 C97.4187778 577.02526922 99.54487092 578.22386798 102.10546875 579.42578125 C102.76546875 579.09578125 103.42546875 578.76578125 104.10546875 578.42578125 C104.08452148 577.7930127 104.06357422 577.16024414 104.04199219 576.50830078 C103.54966486 559.27996031 104.00488539 543.04833488 112.10546875 527.42578125 C113.00007812 527.94527344 113.8946875 528.46476563 114.81640625 529 C118.56486448 531.16793993 122.3315938 533.3024582 126.10546875 535.42578125 C126.96140625 535.91046875 127.81734375 536.39515625 128.69921875 536.89453125 C139.69170212 542.76722785 151.64883252 546.166268 164.10546875 546.42578125 C162.78546875 549.06578125 161.46546875 551.70578125 160.10546875 554.42578125 C164.5297871 556.63794042 170.55698755 555.61161872 175.4765625 555.61108398 C177.67338802 555.6132256 179.86967278 555.63124752 182.06640625 555.65039062 C194.94608244 555.70237904 207.46431491 554.33787264 220.10546875 551.80078125 C222.41546875 551.34703125 224.72546875 550.89328125 227.10546875 550.42578125 C227.10546875 559.66578125 227.10546875 568.90578125 227.10546875 578.42578125 C245.64183473 572.24699259 262.08181282 560.86103204 276.10546875 547.42578125 C276.8015625 546.78125 277.49765625 546.13671875 278.21484375 545.47265625 C288.9205743 535.26486665 299.18060396 520.85160877 303.10546875 506.42578125 C303.01410275 501.94884726 301.3209371 497.87016997 299.82421875 493.671875 C293.47938403 473.8442665 298.41000168 451.03499023 307.3828125 432.90625 C309.1600677 430.34716371 311.14506425 428.62656662 313.57788086 426.70141602 C326.24201287 416.12604607 333.46916237 397.87570537 337.3515625 382.30859375 C339.24542709 375.06676956 339.24542709 375.06676956 342.390625 372.72265625 C343.30714844 372.2121875 344.22367188 371.70171875 345.16796875 371.17578125 C358.0608147 363.31552138 366.68754945 351.40999906 370.6328125 336.8046875 C375.20009965 313.81726704 372.96501489 289.38103615 360.10546875 269.42578125 C359.19077986 268.32754489 358.25874564 267.24348451 357.30859375 266.17578125 C356.5815625 265.26828125 355.85453125 264.36078125 355.10546875 263.42578125 C355.79296875 260.11328125 355.79296875 260.11328125 357.10546875 256.42578125 C360.20733781 231.65782683 337.80449518 205.00432816 324.10546875 186.42578125 C325.52190327 183.22278861 327.24674657 181.06493923 329.66796875 178.55078125 C344.23760193 162.39461814 353.34890856 141.48795301 353.203125 119.6484375 C353.20171005 118.83708847 353.2002951 118.02573944 353.19883728 117.18980408 C353.19328232 114.62259078 353.18073842 112.05546777 353.16796875 109.48828125 C353.16294792 107.73763148 353.15838604 105.98698032 353.15429688 104.23632812 C353.14332768 99.96611155 353.12609457 95.69596166 353.10546875 91.42578125 C351.18632891 94.30449102 350.4231212 96.66460423 349.55859375 99.97314453 C346.28165271 112.45817919 340.81311415 123.06863274 333.10546875 133.42578125 C333.10546875 134.08578125 333.10546875 134.74578125 333.10546875 135.42578125 C332.44546875 135.42578125 331.78546875 135.42578125 331.10546875 135.42578125 C331.12867188 134.85730469 331.151875 134.28882813 331.17578125 133.703125 C331.29738563 128.50019477 330.78270367 124.35265882 329.10546875 119.42578125 C328.44546875 119.42578125 327.78546875 119.42578125 327.10546875 119.42578125 C326.82896484 120.46412109 326.82896484 120.46412109 326.546875 121.5234375 C320.8864358 140.61798572 307.46642479 156.10811478 294.10546875 170.42578125 C295.42386465 174.30025083 296.9660339 176.55807147 299.85546875 179.42578125 C313.11204149 193.71199071 324.12979183 212.29545045 331.10546875 230.42578125 C327.80546875 230.09578125 324.50546875 229.76578125 321.10546875 229.42578125 C321.43546875 227.44578125 321.76546875 225.46578125 322.10546875 223.42578125 C301.48707493 224.83762706 301.48707493 224.83762706 283.10546875 233.42578125 C281.62046875 234.41578125 281.62046875 234.41578125 280.10546875 235.42578125 C279.36429228 229.49636949 279.36429228 229.49636949 281.44140625 226.49609375 C281.99054688 225.85414063 282.5396875 225.2121875 283.10546875 224.55078125 C285.92865393 221.00995187 287.21712124 218.54184372 286.87109375 213.96484375 C283.66544637 203.33387031 273.65679021 194.23517165 266.10546875 186.42578125 C265.39261719 185.67296875 264.67976563 184.92015625 263.9453125 184.14453125 C259.35953187 179.40376399 254.40219555 175.34928258 249.10546875 171.42578125 C269.68859849 179.42083075 269.68859849 179.42083075 278.98828125 184.4921875 C279.68695313 184.80027344 280.385625 185.10835937 281.10546875 185.42578125 C281.76546875 185.09578125 282.42546875 184.76578125 283.10546875 184.42578125 C277.31248122 177.2222081 271.40163184 170.19691804 265.10546875 163.42578125 C264.43257813 162.68714844 263.7596875 161.94851562 263.06640625 161.1875 C251.51849129 149.01245108 235.88485481 138.25992207 220.10546875 132.42578125 C235.7758964 135.13686137 235.7758964 135.13686137 240.98046875 137.11328125 C248.88496565 139.87169855 255.27134709 138.68740766 263.04296875 135.86328125 C263.67468994 135.63648682 264.30641113 135.40969238 264.95727539 135.17602539 C275.02031054 131.23476565 283.64486542 124.44556373 292.10546875 117.86328125 C299.02678048 112.53054874 305.98890688 107.26916703 313.04296875 102.11328125 C320.86437076 96.37914631 328.57311915 90.53546197 336.10546875 84.42578125 C336.96785156 83.73097656 337.83023437 83.03617187 338.71875 82.3203125 C344.24504901 77.66707586 348.40349302 72.63090637 352.10546875 66.42578125 C352.54117187 65.72582031 352.976875 65.02585938 353.42578125 64.3046875 C357.872195 55.58287592 356.44675425 44.93714574 356.10546875 35.42578125 C355.44546875 35.42578125 354.78546875 35.42578125 354.10546875 35.42578125 C353.97591797 36.44285156 353.97591797 36.44285156 353.84375 37.48046875 C352.32618032 47.53262754 349.20462014 55.82960452 341.18359375 62.4296875 C330.33638152 69.46385685 317.58069228 73.67741249 305.61035156 78.4128418 C287.64387444 85.54927243 270.41481947 93.67670887 254.4140625 104.61328125 C251.15911776 106.8038178 248.09671888 108.48197389 244.35546875 109.73828125 C243.03289062 110.19654297 243.03289062 110.19654297 241.68359375 110.6640625 C235.39972211 112.52066094 229.48964947 112.6091087 222.98046875 112.61328125 C221.99820312 112.62552734 221.0159375 112.63777344 220.00390625 112.65039062 C214.1886023 112.6618682 208.81911434 112.12449066 203.12182617 110.99609375 C190.99753203 108.70371406 179.05172979 108.07851211 166.74243164 108.11010742 C164.17356095 108.11327436 161.60583967 108.08966796 159.03710938 108.06445312 C148.08562336 108.02478948 137.8123307 109.13312662 127.10546875 111.42578125 C128.67433013 114.77436314 130.25212507 116.66949811 133.10546875 119.05078125 C135.18207211 120.79909805 137.1850964 122.5054089 139.10546875 124.42578125 C124.03078442 121.30014476 110.88752044 114.15878047 99.10546875 104.42578125 C97.92210937 103.55179688 97.92210937 103.55179688 96.71484375 102.66015625 C93.86361145 100.21868188 91.56347866 97.56372843 89.12695312 94.71826172 C85.22537713 90.29364837 81.02382568 86.15964565 76.85546875 81.98828125 C75.97761719 81.09818359 75.09976563 80.20808594 74.1953125 79.29101562 C57.30490139 62.36350991 38.07383484 49.55508461 16.60986328 39.21435547 C8.72240437 35.3784663 3.24237478 31.88950883 0.10546875 23.42578125 C-0.84137755 18.77985664 -1.44485187 14.14405889 -1.89453125 9.42578125 C-2.22453125 9.42578125 -2.55453125 9.42578125 -2.89453125 9.42578125 Z " fill="#F3BD45" transform="translate(181.89453125,26.57421875)"/>
<path d="M0 0 C7.05185065 3.54295878 13.00333953 7.8893158 19 13 C20.13501953 13.96679688 20.13501953 13.96679688 21.29296875 14.953125 C31.92454632 24.28469392 42.61837513 34.13024506 50.9375 45.625 C51.34419922 46.18018311 51.75089844 46.73536621 52.16992188 47.30737305 C54.58406637 50.809905 55.77905847 53.74239691 56 58 C54.44173395 60.81686555 52.65369504 63.20227045 50.6171875 65.6875 C48.1848692 68.80086743 47.06212884 70.63965275 46.375 74.625 C47.45749107 80.47045179 52.30048834 83.36615492 56.96118164 86.58837891 C57.5514917 86.99233887 58.14180176 87.39629883 58.75 87.8125 C76.29450316 100.13660053 76.29450316 100.13660053 80 109 C80 110.32 80 111.64 80 113 C78.75863281 113.13277344 77.51726562 113.26554687 76.23828125 113.40234375 C74.59634139 113.58061151 72.95441501 113.75900346 71.3125 113.9375 C70.49587891 114.02451172 69.67925781 114.11152344 68.83789062 114.20117188 C64.84549781 114.63758728 60.92347148 115.11302376 57 116 C57 116.66 57 117.32 57 118 C58.11375 118.04125 59.2275 118.0825 60.375 118.125 C68.52423318 119.17790977 75.65188948 124.49485735 80.703125 130.796875 C83.03441694 134.75726251 83.78646398 138.46159777 83 143 C81.61342681 145.32993091 80.13782303 147.17067764 78.25 149.11328125 C76.76249869 150.95466255 76.76249869 150.95466255 77.11328125 153.3828125 C78.13924862 156.41099812 79.48272009 158.85667935 81.1875 161.5625 C81.75855469 162.49191406 82.32960938 163.42132813 82.91796875 164.37890625 C84.90533126 167.16827203 84.90533126 167.16827203 88.03125 168.95703125 C91.52563431 171.3617194 92.53513251 173.31307489 94.3125 177.125 C97.66155112 183.74851312 101.78580209 188.76559202 107 194 C107.58265625 194.58523438 108.1653125 195.17046875 108.765625 195.7734375 C109.17296875 196.17820312 109.5803125 196.58296875 110 197 C98.76039051 207.46446401 83.8310856 208.64795945 69.265625 208.30078125 C55.09066786 207.67176106 42.27551616 203.21038537 29.07666016 198.29492188 C20.79406222 195.22075707 12.65224138 192.79593542 4 191 C3.0203125 190.77699219 2.040625 190.55398438 1.03125 190.32421875 C-20.9081966 185.89413819 -43.92371481 189.29409773 -63 201 C-62.443125 201.3403125 -61.88625 201.680625 -61.3125 202.03125 C-38.05226969 216.80463952 -28.22132434 245.90223178 -22.43066406 271.66430664 C-22.13045249 273.01475724 -21.83126736 274.36543631 -21.53295898 275.71630859 C-21.14672722 277.37128428 -20.73088501 279.01944012 -20.29711914 280.66259766 C-17.84542618 289.96083568 -16.4611482 299.34751499 -15.15820312 308.8671875 C-13.74095361 318.13855893 -11.4155961 328.38690209 -4.1875 335 C-3.135625 335.66 -2.08375 336.32 -1 337 C-0.40058594 337.38800781 0.19882812 337.77601563 0.81640625 338.17578125 C8.88467572 342.63093574 18.85427567 341.71774035 27.71069336 340.48242188 C32.03176986 339.93003446 36.24552899 339.93932039 40.59375 340.04296875 C42.21743583 340.06534766 43.8411346 340.08680408 45.46484375 340.10742188 C47.98620433 340.14449349 50.50688706 340.18766163 53.02783203 340.24682617 C55.48740162 340.30166954 57.94621881 340.33048944 60.40625 340.35546875 C61.14919312 340.37925095 61.89213623 340.40303314 62.65759277 340.42753601 C69.62557651 340.46196727 74.77300551 338.17638098 79.75 333.3125 C86.2015939 324.49690128 86.45285928 316.44712417 86.0625 305.75 C85.46994517 288.43399836 87.52783831 272.76343849 99.75 259.5625 C104.03269404 255.60730609 110.94372251 250 117 250 C115.25759909 255.48597514 113.30314036 260.82648031 111.09399414 266.14111328 C104.43225071 282.1829068 100.81375312 297.20951492 100.75 314.625 C100.74605225 315.57632812 100.74210449 316.52765625 100.73803711 317.5078125 C100.79772196 324.83243632 101.74617688 331.575071 103.44140625 338.6875 C104.6481563 345.84361221 102.07456278 350.1866446 98.22265625 355.9921875 C92.29984153 364.00724433 85.13715459 372.20814059 77 378 C76.34 378 75.68 378 75 378 C74.01 372.39 73.02 366.78 72 361 C70.453125 361.86625 68.90625 362.7325 67.3125 363.625 C55.59230867 369.52715377 40.8755584 374.20742372 27.6875 374.0625 C26.61886719 374.05347656 25.55023438 374.04445313 24.44921875 374.03515625 C23.64097656 374.02355469 22.83273437 374.01195312 22 374 C22.33 372.02 22.66 370.04 23 368 C21.99324219 368.03480469 20.98648438 368.06960938 19.94921875 368.10546875 C-1.76177738 368.62040569 -22.34237695 364.51955887 -41 353 C-43.75621741 350.24378259 -43.46384432 347.59170034 -43.67578125 343.88671875 C-43.77878034 342.40594705 -43.88265641 340.92523614 -43.98730469 339.44458008 C-44.03963257 338.66756744 -44.09196045 337.89055481 -44.14587402 337.08999634 C-46.21207366 307.29850059 -52.60284567 275.38020945 -75.90625 254.2734375 C-77.26618748 253.1765068 -78.6322559 252.08718121 -80 251 C-80 250.34 -80 249.68 -80 249 C-80.66 249 -81.32 249 -82 249 C-81.51273437 249.91845703 -81.51273437 249.91845703 -81.015625 250.85546875 C-79.56270581 255.35393008 -79.71066855 259.61566911 -79.75 264.3125 C-79.73839844 265.68051758 -79.73839844 265.68051758 -79.7265625 267.07617188 C-79.74269806 272.70344809 -80.08507266 277.68075739 -82 283 C-84.03125 284.77734375 -84.03125 284.77734375 -86.5 285.9375 C-92.5256032 289.14593807 -97.14086414 293.23969403 -102 298 C-102.61617187 298.58007812 -103.23234375 299.16015625 -103.8671875 299.7578125 C-118.14233195 314.4276614 -121.84763168 333.90557662 -122.5625 353.5 C-122.62727539 355.16289063 -122.62727539 355.16289063 -122.69335938 356.859375 C-122.79862214 359.57281506 -122.90075846 362.28633417 -123 365 C-123.33 365 -123.66 365 -124 365 C-124.81618768 361.14660485 -125.62728585 357.29215519 -126.4375 353.4375 C-126.66759766 352.35146484 -126.89769531 351.26542969 -127.13476562 350.14648438 C-134.2919914 316.02000207 -128.9713715 282.41231283 -112.46875 251.75390625 C-110.92156863 249.37312347 -110.92156863 249.37312347 -111 248 C-111.81984375 248.40992188 -112.6396875 248.81984375 -113.484375 249.2421875 C-117.98958333 251.49479167 -122.49479167 253.74739583 -127 256 C-125.82991731 249.57402724 -123.95546439 243.94134839 -121.125 238.0625 C-120.53887939 236.84022705 -120.53887939 236.84022705 -119.94091797 235.59326172 C-111.25965375 218.03796661 -99.18493072 202.45332971 -85 189 C-95.06182353 191.26099191 -95.06182353 191.26099191 -105 194 C-101.60831932 188.35617157 -97.28348185 183.93737649 -92.625 179.3125 C-91.82280029 178.51521484 -91.02060059 177.71792969 -90.1940918 176.89648438 C-83.51570803 170.34756525 -76.61312594 164.42522131 -69 159 C-68.13375 158.37520752 -68.13375 158.37520752 -67.25 157.73779297 C-47.72801547 143.78663791 -25.35247208 131.83474839 -0.8125 131.8125 C-0.12091797 131.80025391 0.57066406 131.78800781 1.28320312 131.77539062 C11.51683733 131.74730197 20.26799926 134.15368556 29.5 138.4375 C36.55449622 141.6791838 43.44771694 144.16171058 51 146 C50.62609131 145.27135742 50.25218262 144.54271484 49.86694336 143.79199219 C46.67991405 137.58137097 44.87510382 133.23662236 44.9296875 126.203125 C44.91421875 124.51703125 44.91421875 124.51703125 44.8984375 122.796875 C44.882916 120.44795496 44.89041838 118.09876069 44.921875 115.75 C44.82875906 109.92360271 44.60928623 105.92787837 40.72265625 101.3984375 C39.51506512 100.23019761 38.27706525 99.09186315 37 98 C36.21753906 97.30648437 35.43507813 96.61296875 34.62890625 95.8984375 C33.60603516 95.14433594 33.60603516 95.14433594 32.5625 94.375 C31.8096875 93.8078125 31.056875 93.240625 30.28125 92.65625 C28.77025974 91.55922968 27.24942825 90.47562796 25.71875 89.40625 C20.3267525 85.57715033 18.57823877 83.18031323 17.375 76.5625 C14.73859406 69.7318119 7.66331322 66.55395027 1.24902344 63.62670898 C0.4449707 63.27552002 -0.35908203 62.92433105 -1.1875 62.5625 C-2.03666992 62.18488525 -2.88583984 61.80727051 -3.76074219 61.41821289 C-13.27758786 57.28653884 -23.09899598 54.07267362 -33 51 C-32.01 53.31 -31.02 55.62 -30 58 C-34.69958735 57.43454163 -39.13519282 56.49236882 -43.70922852 55.28613281 C-63.72398722 50.07810297 -84.390206 48.68150972 -105 48 C-100.19554882 44.79703255 -94.69029396 44.48107343 -89.0625 43.5 C-87.90814453 43.28730469 -86.75378906 43.07460937 -85.56445312 42.85546875 C-68.36482623 39.80648649 -51.20346004 38.5934684 -33.75 38.625 C-32.86722382 38.62388214 -31.98444763 38.62276428 -31.07492065 38.62161255 C2.28463889 38.64231944 2.28463889 38.64231944 13 44 C11.53346126 30.22225447 8.87042145 17.77529482 2.26953125 5.42578125 C1 3 1 3 0 0 Z " fill="#FEFCFC" transform="translate(358,184)"/>
<path d="M0 0 C7.05185065 3.54295878 13.00333953 7.8893158 19 13 C20.13501953 13.96679688 20.13501953 13.96679688 21.29296875 14.953125 C31.92454632 24.28469392 42.61837513 34.13024506 50.9375 45.625 C51.34419922 46.18018311 51.75089844 46.73536621 52.16992188 47.30737305 C54.58406637 50.809905 55.77905847 53.74239691 56 58 C54.44173395 60.81686555 52.65369504 63.20227045 50.6171875 65.6875 C48.1848692 68.80086743 47.06212884 70.63965275 46.375 74.625 C47.45749107 80.47045179 52.30048834 83.36615492 56.96118164 86.58837891 C57.5514917 86.99233887 58.14180176 87.39629883 58.75 87.8125 C76.29450316 100.13660053 76.29450316 100.13660053 80 109 C80 110.32 80 111.64 80 113 C78.75863281 113.13277344 77.51726562 113.26554687 76.23828125 113.40234375 C74.59634139 113.58061151 72.95441501 113.75900346 71.3125 113.9375 C70.49587891 114.02451172 69.67925781 114.11152344 68.83789062 114.20117188 C64.84549781 114.63758728 60.92347148 115.11302376 57 116 C57 116.66 57 117.32 57 118 C58.11375 118.04125 59.2275 118.0825 60.375 118.125 C68.53023783 119.1786856 75.64061803 124.49906349 80.70703125 130.79296875 C83.01533302 134.73312131 83.66505689 138.4907681 83 143 C81.61973488 145.81574084 80.11541427 147.62660838 78 150 C76.700625 148.7315625 76.700625 148.7315625 75.375 147.4375 C67.65957519 140.84659055 57.84663283 136.74474203 48.01171875 134.60546875 C47.34785156 134.40566406 46.68398438 134.20585937 46 134 C44.67527971 131.35055942 44.90692254 129.36206418 44.9296875 126.3984375 C44.91421875 124.70267578 44.91421875 124.70267578 44.8984375 122.97265625 C44.88296543 120.5976938 44.89031615 118.22245942 44.921875 115.84765625 C44.8290585 109.9935867 44.63087998 105.94313068 40.72265625 101.390625 C39.51525149 100.2247171 38.27726654 99.08892502 37 98 C36.21753906 97.30648437 35.43507813 96.61296875 34.62890625 95.8984375 C33.60603516 95.14433594 33.60603516 95.14433594 32.5625 94.375 C31.8096875 93.8078125 31.056875 93.240625 30.28125 92.65625 C28.77025974 91.55922968 27.24942825 90.47562796 25.71875 89.40625 C20.3267525 85.57715033 18.57823877 83.18031323 17.375 76.5625 C14.73859406 69.7318119 7.66331322 66.55395027 1.24902344 63.62670898 C0.4449707 63.27552002 -0.35908203 62.92433105 -1.1875 62.5625 C-2.03666992 62.18488525 -2.88583984 61.80727051 -3.76074219 61.41821289 C-13.27758786 57.28653884 -23.09899598 54.07267362 -33 51 C-32.01 53.31 -31.02 55.62 -30 58 C-34.69958735 57.43454163 -39.13519282 56.49236882 -43.70922852 55.28613281 C-63.72398722 50.07810297 -84.390206 48.68150972 -105 48 C-100.19554882 44.79703255 -94.69029396 44.48107343 -89.0625 43.5 C-87.90814453 43.28730469 -86.75378906 43.07460937 -85.56445312 42.85546875 C-68.36482623 39.80648649 -51.20346004 38.5934684 -33.75 38.625 C-32.86722382 38.62388214 -31.98444763 38.62276428 -31.07492065 38.62161255 C2.28463889 38.64231944 2.28463889 38.64231944 13 44 C11.53346126 30.22225447 8.87042145 17.77529482 2.26953125 5.42578125 C1 3 1 3 0 0 Z " fill="#F3BD46" transform="translate(358,184)"/>
<path d="M0 0 C8.20350165 4.65641162 16.01390419 11.49586094 21.33984375 19.328125 C21.00984375 19.988125 20.67984375 20.648125 20.33984375 21.328125 C19.70046875 21.01875 19.06109375 20.709375 18.40234375 20.390625 C14.41935271 19.00877097 10.52333526 18.6744707 6.33984375 18.328125 C6.33984375 18.988125 6.33984375 19.648125 6.33984375 20.328125 C7.82484375 20.823125 7.82484375 20.823125 9.33984375 21.328125 C25.19545755 37.78140052 38.47279893 64.08478066 38.33984375 87.328125 C37.62666992 87.60897949 36.91349609 87.88983398 36.17871094 88.17919922 C8.948529 98.95325997 -16.5546084 111.56049186 -40.66015625 128.328125 C-41.74039063 129.07191406 -42.820625 129.81570312 -43.93359375 130.58203125 C-53.21378329 137.04558342 -61.9550067 144.1152868 -70.66015625 151.328125 C-70.66015625 147.81924423 -70.2599608 147.5315 -67.94140625 145.09765625 C-67.34706787 144.46754639 -66.75272949 143.83743652 -66.14038086 143.18823242 C-65.48690674 142.51252197 -64.83343262 141.83681152 -64.16015625 141.140625 C-63.48670166 140.43591064 -62.81324707 139.73119629 -62.11938477 139.00512695 C-59.97519703 136.77069938 -57.81835509 134.54901415 -55.66015625 132.328125 C-54.64284424 131.26996582 -54.64284424 131.26996582 -53.60498047 130.19042969 C-45.3190183 121.5846161 -36.87249198 113.64502452 -27.27001953 106.52783203 C-25.73792208 105.38607788 -24.22764357 104.21521674 -22.71875 103.04296875 C-16.0888732 97.92849236 -9.21225754 93.36352313 -2.09448242 88.95703125 C-1.38912354 88.51359375 -0.68376465 88.07015625 0.04296875 87.61328125 C0.67879883 87.22019775 1.31462891 86.82711426 1.96972656 86.42211914 C2.42186523 86.06110107 2.87400391 85.70008301 3.33984375 85.328125 C3.33984375 84.668125 3.33984375 84.008125 3.33984375 83.328125 C2.37459119 82.3749381 1.3652897 81.46623444 0.33984375 80.578125 C-11.88426289 68.57672476 -17.5780714 49.87368847 -17.79296875 33.1328125 C-17.79560863 30.82291671 -17.79286443 28.51300944 -17.78515625 26.203125 C-17.79095703 24.45322266 -17.79095703 24.45322266 -17.796875 22.66796875 C-17.79558594 21.54261719 -17.79429687 20.41726562 -17.79296875 19.2578125 C-17.79184082 18.23929199 -17.79071289 17.22077148 -17.78955078 16.17138672 C-17.66583757 13.45296405 -17.27144267 10.97541407 -16.66015625 8.328125 C-21.13662667 11.783986 -24.26793804 15.17056305 -27.34765625 19.890625 C-32.1261216 27.03790223 -32.1261216 27.03790223 -34.66015625 30.328125 C-34.41545535 19.22760213 -31.126312 6.90216192 -23.66015625 -1.671875 C-15.95293545 -4.2409486 -7.31005505 -3.36475792 0 0 Z " fill="#FEFCFC" transform="translate(204.66015625,93.671875)"/>
<path d="M0 0 C1.60725635 3.21451269 1.05748185 6.43612536 1 10 C1.58007812 9.79503906 2.16015625 9.59007812 2.7578125 9.37890625 C7.1621984 7.85990187 11.35677777 6.5952849 16 6 C14.66511872 9.59391114 13.03977277 12.75490696 11 16 C11.86625 16.639375 12.7325 17.27875 13.625 17.9375 C19.64982977 22.96531303 25.22064772 31.25002302 26.28491211 39.10205078 C26.40171866 41.36834905 26.41521613 43.6061401 26.375 45.875 C26.36919922 46.66567871 26.36339844 47.45635742 26.35742188 48.27099609 C26.22955701 54.01662756 25.35165881 58.70876768 23 64 C25.39690917 63.3789141 27.79247494 62.75327634 30.1875 62.125 C30.86103516 61.95097656 31.53457031 61.77695312 32.22851562 61.59765625 C35.9350457 60.62130199 39.47910367 59.5177456 43 58 C41.46427505 65.95651785 39.23351215 71.63444524 33 77 C29.5625 79 29.5625 79 27 80 C34.74810168 80.72790099 39.56558074 79.35178114 46 75 C43.99688647 82.74888657 41.28108353 88.21795031 34.4453125 92.66015625 C21.4247543 100 21.4247543 100 14 100 C14 100.66 14 101.32 14 102 C16.20857055 101.85780436 18.41684987 101.71108153 20.625 101.5625 C21.85476563 101.48128906 23.08453125 101.40007812 24.3515625 101.31640625 C27.61532388 101.03336056 30.77943859 100.58961047 34 100 C26.38714176 108.34958646 16.72250478 114.10378741 5.3984375 115.41796875 C-4.86548572 115.81772155 -4.86548572 115.81772155 -8.75 112.75 C-12.33333333 108.37037037 -12.33333333 108.37037037 -13 106 C-11.96029437 97.8738797 -6.06039552 89.40916881 0 84 C2.55823951 82.3616213 5.13940417 80.8706466 7.828125 79.45703125 C10.26197363 77.82425151 11.00405449 76.72154094 12 74 C12.94200651 68.07881622 10.26123895 64.63491232 7 60 C4.68737813 56.53106719 4.89990349 55.69757203 5.1875 51.6875 C5.32121504 40.62926641 1.36651265 31.14535871 -6.31640625 23.2421875 C-10.32501709 19.89292604 -14.66746439 17.42141064 -19.27734375 14.984375 C-22.54180942 12.60510878 -23.12946021 10.87636586 -24 7 C-21.83409519 5.68498637 -20.49878708 4.96977048 -17.9375 5.125 C-15.40813233 6.26729508 -14.424788 7.64909979 -13 10 C-13 10.66 -13 11.32 -13 12 C-12.34 12 -11.68 12 -11 12 C-10.84144531 11.30132812 -10.68289063 10.60265625 -10.51953125 9.8828125 C-8.59828333 2.38888417 -8.59828333 2.38888417 -5.5 0.375 C-3 0 -3 0 0 0 Z " fill="#FDFBFB" transform="translate(494,271)"/>
<path d="M0 0 C6.15352395 1.49176338 9.83217804 6.64288682 13.125 11.7421875 C15.53111776 16.2536583 17.17091302 21.08795856 18.9375 25.875 C24.13464559 39.92685311 24.13464559 39.92685311 34 51 C34.33 51 34.66 51 35 51 C34.95359375 49.81664062 34.9071875 48.63328125 34.859375 47.4140625 C34.43996188 32.34549004 37.32845873 23.5663932 47.58984375 12.24609375 C49 11 49 11 51 11 C51.04898438 12.03898437 51.09796875 13.07796875 51.1484375 14.1484375 C51.82365148 28.27207055 51.82365148 28.27207055 56.125 41.625 C59.19509871 48.90782815 59.21270841 57.73923675 57.4453125 65.40625 C55.37980114 69.89136038 51.29223105 72.19678005 46.9609375 74.12109375 C36.76297445 77.1481936 22.94675737 75.61012588 13.51953125 70.7109375 C7.4623969 66.46071565 3.45147201 60.94484664 1 54 C0.76622009 51.61683655 0.76622009 51.61683655 0.78881836 49.12133789 C0.79219711 48.1800856 0.79557587 47.23883331 0.79905701 46.26905823 C0.81251663 45.26374557 0.82597626 44.25843292 0.83984375 43.22265625 C0.84504532 42.17855087 0.85024689 41.1344455 0.85560608 40.05870056 C0.87339127 36.72649105 0.9045471 33.39459134 0.9375 30.0625 C0.96517525 26.73400924 0.98989653 23.40556423 1.00868225 20.07701111 C1.02087484 18.00792978 1.03841437 15.93887117 1.06199646 13.86988831 C1.09482472 9.12274927 1.00347851 4.6683138 0 0 Z " fill="#F3BD46" transform="translate(366,407)"/>
<path d="M0 0 C21.97827393 -0.73945595 38.85657779 9.38938548 54.625 23.8125 C70.59305927 38.83319963 83.43931612 56.10882273 96 74 C92.09562462 74 89.73994629 72.26849663 86.5 70.3125 C80.50228251 66.77759819 74.41497744 63.72309247 68 61 C69.04081021 62.79216433 70.08270601 64.5836982 71.125 66.375 C71.76566406 67.4784375 72.40632813 68.581875 73.06640625 69.71875 C74.68758253 72.46983703 76.3639507 75.17173851 78.0625 77.875 C87 92.69053235 87 92.69053235 87 100 C80.4 101.98 73.8 103.96 67 106 C66.566875 103.56625 66.13375 101.1325 65.6875 98.625 C61.82030573 77.84301605 52.46010244 56.02758552 37.0625 41.0625 C36.381875 40.381875 35.70125 39.70125 35 39 C35 38.34 35 37.68 35 37 C44.41002278 36.6309795 44.41002278 36.6309795 49 39 C42.57864011 29.53164188 34.22176194 21.24281739 23.22265625 17.375 C19.90554434 16.81534667 16.60209001 16.89631175 13.25 16.9375 C12.55261719 16.94201172 11.85523438 16.94652344 11.13671875 16.95117188 C9.42444197 16.9628998 7.71220967 16.98083347 6 17 C8.77635232 12.98971331 11.40521193 9.32850747 15 6 C14.28457031 5.87753906 13.56914062 5.75507812 12.83203125 5.62890625 C9.94887287 4.98864625 7.41407527 4.06448444 4.6875 2.9375 C3.36298828 2.39416016 3.36298828 2.39416016 2.01171875 1.83984375 C1.34785156 1.56269531 0.68398437 1.28554687 0 1 C0 0.67 0 0.34 0 0 Z " fill="#F3BD45" transform="translate(176,75)"/>
<path d="M0 0 C0.33 0 0.66 0 1 0 C1.29662467 5.4522439 0.36980223 9.73304795 -1.625 14.75 C-1.89570312 15.44810791 -2.16640625 16.14621582 -2.4453125 16.86547852 C-6.07512476 25.99777528 -10.73959015 35.36305425 -17 43 C-17.66 43 -18.32 43 -19 43 C-19.66 37.72 -20.32 32.44 -21 27 C-21.66 27 -22.32 27 -23 27 C-23.15662109 28.52947266 -23.15662109 28.52947266 -23.31640625 30.08984375 C-26.07856524 45.8893932 -38.93033949 60.21460119 -49.65234375 71.4765625 C-51.60467605 73.57507609 -53.34137713 75.66807477 -55 78 C-58.96629821 77.46280385 -60.63665399 75.62071224 -63.3125 72.75 C-66.0863268 69.86136248 -68.74441006 67.30828039 -72.0625 65.0625 C-73.031875 64.381875 -74.00125 63.70125 -75 63 C-75 62.34 -75 61.68 -75 61 C-73.51113281 60.21689453 -73.51113281 60.21689453 -71.9921875 59.41796875 C-51.77987969 48.56158728 -33.78791872 34.30311721 -24 13 C-21.64283596 15.15454249 -20.21033856 17.19719874 -18.8125 20.0625 C-18.46832031 20.75472656 -18.12414062 21.44695312 -17.76953125 22.16015625 C-17 24 -17 24 -17 26 C-9.04057879 18.76416254 -4.06789893 9.86043703 0 0 Z " fill="#FDFBF9" transform="translate(532,119)"/>
<path d="M0 0 C1.60725635 3.21451269 1.05748185 6.43612536 1 10 C1.58007812 9.79503906 2.16015625 9.59007812 2.7578125 9.37890625 C7.1621984 7.85990187 11.35677777 6.5952849 16 6 C14.66511872 9.59391114 13.03977277 12.75490696 11 16 C11.86625 16.639375 12.7325 17.27875 13.625 17.9375 C19.51527793 22.85302744 23.51146333 29.81089405 26 37 C26.04333794 38.66610312 26.05099652 40.33411371 26 42 C25.19175781 42.37511719 24.38351562 42.75023437 23.55078125 43.13671875 C17.82256727 45.87990446 13.15430614 48.17564448 9 53 C8.01 53.66 7.02 54.32 6 55 C5.85304688 53.65808594 5.85304688 53.65808594 5.703125 52.2890625 C4.08081048 39.17069162 1.18446917 29.92604338 -9 21 C-12.30442029 18.7638527 -15.75145215 16.84835512 -19.27734375 14.984375 C-22.54180942 12.60510878 -23.12946021 10.87636586 -24 7 C-21.83409519 5.68498637 -20.49878708 4.96977048 -17.9375 5.125 C-15.40813233 6.26729508 -14.424788 7.64909979 -13 10 C-13 10.66 -13 11.32 -13 12 C-12.34 12 -11.68 12 -11 12 C-10.84144531 11.30132812 -10.68289063 10.60265625 -10.51953125 9.8828125 C-8.59828333 2.38888417 -8.59828333 2.38888417 -5.5 0.375 C-3 0 -3 0 0 0 Z " fill="#F3BD45" transform="translate(494,271)"/>
<path d="M0 0 C14.47095092 6.54698412 26.72948456 8.32116555 42.5 7.75 C42.5 8.41 42.5 9.07 42.5 9.75 C24.99172832 13.97613454 11.52416873 13.45131022 -5.44775391 7.76074219 C-10.91589926 5.94998217 -16.42012909 4.25349715 -21.92129517 2.5463562 C-23.8414297 1.94796191 -25.7590007 1.34136157 -27.67651367 0.73461914 C-28.86349854 0.36199951 -30.0504834 -0.01062012 -31.2734375 -0.39453125 C-32.32966309 -0.72815674 -33.38588867 -1.06178223 -34.47412109 -1.40551758 C-50.04810655 -5.75200908 -69.36674646 -4.93447589 -84.5 0.75 C-85.42296875 1.31074219 -86.3459375 1.87148438 -87.296875 2.44921875 C-88.02390625 2.87847656 -88.7509375 3.30773437 -89.5 3.75 C-90.16 3.42 -90.82 3.09 -91.5 2.75 C-65.97634624 -25.34027816 -30.17796301 -13.82012047 0 0 Z " fill="#A42033" transform="translate(391.5,362.25)"/>
<path d="M0 0 C3.29109383 1.19564083 5.02179599 2.98412235 7.0859375 5.7578125 C7.8984375 8.5703125 7.8984375 8.5703125 8.0859375 10.7578125 C8.7459375 10.7578125 9.4059375 10.7578125 10.0859375 10.7578125 C10.17681641 9.80068359 10.17681641 9.80068359 10.26953125 8.82421875 C10.35332031 7.99792969 10.43710937 7.17164063 10.5234375 6.3203125 C10.60464844 5.49660156 10.68585938 4.67289062 10.76953125 3.82421875 C11.0859375 1.7578125 11.0859375 1.7578125 12.0859375 0.7578125 C14.26886524 0.52299557 16.45796924 0.34417927 18.6484375 0.1953125 C20.44474609 0.06962891 20.44474609 0.06962891 22.27734375 -0.05859375 C23.20417969 -0.11917969 24.13101563 -0.17976563 25.0859375 -0.2421875 C26.7109375 2.0078125 26.7109375 2.0078125 28.0859375 4.7578125 C27.5625 6.9296875 27.5625 6.9296875 26.0859375 8.7578125 C23.921875 10.0234375 23.921875 10.0234375 21.4609375 11.0078125 C20.64367187 11.34296875 19.82640625 11.678125 18.984375 12.0234375 C18.35789062 12.26578125 17.73140625 12.508125 17.0859375 12.7578125 C17.3334375 13.83095703 17.3334375 13.83095703 17.5859375 14.92578125 C18.99283673 23.42213364 16.78868016 28.32149884 12.359375 35.3359375 C10.0859375 37.7578125 10.0859375 37.7578125 7.65625 38.42578125 C1.28647612 36.77041448 -4.1526193 29.39809138 -7.73828125 24.0234375 C-8.88368437 21.96236827 -9.95227886 19.90986983 -10.9140625 17.7578125 C-10.28757812 17.69722656 -9.66109375 17.63664062 -9.015625 17.57421875 C-7.78972656 17.44853516 -7.78972656 17.44853516 -6.5390625 17.3203125 C-5.72695313 17.23910156 -4.91484375 17.15789062 -4.078125 17.07421875 C-1.87133445 16.86691136 -1.87133445 16.86691136 0.0859375 15.7578125 C0.74148869 13.23048015 0.74148869 13.23048015 1.0859375 10.7578125 C-0.32558594 10.81001953 -0.32558594 10.81001953 -1.765625 10.86328125 C-3.01085937 10.89035156 -4.25609375 10.91742188 -5.5390625 10.9453125 C-7.38371094 10.99751953 -7.38371094 10.99751953 -9.265625 11.05078125 C-13.21877589 10.73334408 -15.56121378 9.83338552 -18.9140625 7.7578125 C-20.2890625 5.5703125 -20.2890625 5.5703125 -20.9140625 3.7578125 C-13.89325644 -1.97345775 -8.71484981 -2.11178955 0 0 Z " fill="#F3BD46" transform="translate(470.9140625,337.2421875)"/>
<path d="M0 0 C9.58934487 5.07506264 18.60179237 7.82726036 29.38330078 9.26928711 C24.97474601 13.67784188 18.26130042 12.68630232 12.41186523 12.72460938 C3.69994664 12.56877636 -2.8285519 10.15917359 -10.61669922 6.26928711 C-13.21559943 5.02890292 -15.82294299 3.80662271 -18.42919922 2.58178711 C-19.36747559 2.1347644 -19.36747559 2.1347644 -20.32470703 1.67871094 C-36.82531454 -6.09620357 -54.21568896 -6.70611286 -71.61669922 -1.73071289 C-72.94885476 -1.39270328 -74.28170403 -1.05732692 -75.61669922 -0.73071289 C-55.32792237 -25.36708478 -22.45698836 -12.05317549 0 0 Z " fill="#A31E31" transform="translate(394.61669921875,340.730712890625)"/>
<path d="M0 0 C19.70667397 0.905695 39.12045198 4.09487622 56 15 C57.7015625 15.99 57.7015625 15.99 59.4375 17 C62.88343607 21.03426661 62.93295727 24.4591154 63.5078125 29.6328125 C64.42429307 35.90270336 67.15390776 41.39675591 70 47 C66.02000265 45.20451247 62.50469393 42.73925682 58.9375 40.25 C58.31294922 39.83234375 57.68839844 39.4146875 57.04492188 38.984375 C51.8678965 35.35990473 49.55401727 31.82045158 48.3125 25.5 C45.74919132 18.66451019 38.52508976 15.49011686 32.14746094 12.57592773 C31.33567383 12.22087158 30.52388672 11.86581543 29.6875 11.5 C28.83317383 11.11980713 27.97884766 10.73961426 27.09863281 10.34790039 C18.28556874 6.52346978 9.22085605 3.65986232 0 1 C0 0.67 0 0.34 0 0 Z " fill="#FCF8F6" transform="translate(327,235)"/>
<path d="M0 0 C1.99609375 0.3046875 1.99609375 0.3046875 4.4375 0.875 C5.24058594 1.05804688 6.04367187 1.24109375 6.87109375 1.4296875 C9 2 9 2 11 3 C11.8515625 5.3984375 11.8515625 5.3984375 12.625 8.375 C12.88539063 9.35210937 13.14578125 10.32921875 13.4140625 11.3359375 C14 14 14 14 14 17 C14.66 17 15.32 17 16 17 C16.0825 16.443125 16.165 15.88625 16.25 15.3125 C17.22610013 12.30285794 18.95188814 10.37845248 21 8 C24.34373475 8.55728913 27.03312999 9.35173889 30 11 C29.68416552 14.47417927 29.36514364 16.53412708 27.1875 19.3125 C23.80769231 21.91978022 23.80769231 21.91978022 21 22 C19.38666819 21.32777841 17.77718004 20.64246515 16.203125 19.8828125 C12.50297071 18.40012656 8.57829166 17.78266973 4.671875 17.0390625 C2 16 2 16 0.15625 13.7265625 C-1.07734324 10.81761628 -1.34399049 8.88928224 -1.25 5.75 C-1.23453125 4.87859375 -1.2190625 4.0071875 -1.203125 3.109375 C-1 1 -1 1 0 0 Z " fill="#FCF7F5" transform="translate(332,263)"/>
<path d="M0 0 C0.97710937 -0.01417969 1.95421875 -0.02835937 2.9609375 -0.04296875 C5.625 0.1875 5.625 0.1875 8.625 2.1875 C7.95838391 13.29776817 3.79459195 24.61121596 -3.375 33.1875 C-3.705 33.1875 -4.035 33.1875 -4.375 33.1875 C-4.34019531 31.23070312 -4.34019531 31.23070312 -4.3046875 29.234375 C-4.19706527 20.37799777 -4.17135266 11.91696304 -6.03515625 3.20703125 C-6.14730469 2.54058594 -6.25945312 1.87414062 -6.375 1.1875 C-4.64526886 -0.54223114 -2.34983037 0.01541883 0 0 Z " fill="#FCF8F8" transform="translate(397.375,397.8125)"/>
<path d="M0 0 C0.93674561 -0.00064453 1.87349121 -0.00128906 2.83862305 -0.00195312 C10.44044484 0.05537487 17.70681845 0.77937171 25.1875 2.1875 C24.8575 2.8475 24.5275 3.5075 24.1875 4.1875 C21.40212113 4.59401475 18.67568468 4.890345 15.875 5.125 C5.81553463 6.12140962 -3.74390023 7.10655823 -12.19140625 13.1015625 C-13.8125 14.1875 -13.8125 14.1875 -16.8125 15.1875 C-18.36183246 9.3477084 -18.36183246 9.3477084 -16.87109375 6.19921875 C-12.25296871 -0.45915257 -7.63113103 -0.00534253 0 0 Z " fill="#FBF5F4" transform="translate(478.8125,246.8125)"/>
<path d="M0 0 C3 1 3 1 4 3 C4.98445336 17.59641424 4.98445336 17.59641424 1 24 C-1.23480663 26.30930018 -2.38907184 26.91059588 -5.5625 27.375 C-8 27 -8 27 -9.8125 25.9375 C-11.7639166 22.75360975 -11.54921735 20.66144898 -11 17 C-9.69679849 15.15379786 -8.23338042 13.60518557 -6.66796875 11.9765625 C-3.67767182 8.43302562 -1.90818318 4.19631435 0 0 Z " fill="#FBF7F7" transform="translate(379,484)"/>
<path d="M0 0 C1.43844998 10.77695862 -2.80041058 20.53201921 -8.60546875 29.47265625 C-9.06566406 29.97667969 -9.52585937 30.48070312 -10 31 C-10.66 31 -11.32 31 -12 31 C-12 22.09 -12 13.18 -12 4 C-4 0 -4 0 0 0 Z " fill="#FAF3F3" transform="translate(469,398)"/>
<path d="M0 0 C0.66 0.33 1.32 0.66 2 1 C2.74452555 16.88321168 2.74452555 16.88321168 -2 24 C-4 26 -4 26 -7.4375 26.3125 C-11 26 -11 26 -13 24.9375 C-14.72544074 21.59445857 -14.07800846 19.53347217 -13 16 C-11.39208259 14.37918485 -9.66909985 13.06357581 -7.8515625 11.68359375 C-5.0816975 9.16500342 -3.6195062 6.16505033 -1.9453125 2.85546875 C-1 1 -1 1 0 0 Z " fill="#FCF8F8" transform="translate(432,485)"/>
<path d="M0 0 C1.60725635 3.21451269 1.05748185 6.43612536 1 10 C-1.22109528 11.2052222 -3.4497865 12.38887404 -5.6875 13.5625 C-6.31333984 13.90474609 -6.93917969 14.24699219 -7.58398438 14.59960938 C-10.45522559 16.08784435 -12.52163954 17.02415284 -15.78515625 16.859375 C-19.03830363 15.59713087 -20.78117738 13.65026036 -23 11 C-23.8125 8.6875 -23.8125 8.6875 -24 7 C-21.83409519 5.68498637 -20.49878708 4.96977048 -17.9375 5.125 C-15.40813233 6.26729508 -14.424788 7.64909979 -13 10 C-13 10.66 -13 11.32 -13 12 C-12.34 12 -11.68 12 -11 12 C-10.84144531 11.30132812 -10.68289063 10.60265625 -10.51953125 9.8828125 C-8.59828333 2.38888417 -8.59828333 2.38888417 -5.5 0.375 C-3 0 -3 0 0 0 Z " fill="#FAF4F3" transform="translate(494,271)"/>
<path d="M0 0 C-1.60373148 4.00517396 -4.42113986 6.6771098 -7.4453125 9.640625 C-7.97518768 10.16767029 -8.50506287 10.69471558 -9.05099487 11.23773193 C-10.73767825 12.91325675 -12.43119564 14.58167722 -14.125 16.25 C-15.27259388 17.38755851 -16.41973461 18.52557436 -17.56640625 19.6640625 C-20.37238137 22.44803465 -23.18450464 25.2256576 -26 28 C-26.66 27.34 -27.32 26.68 -28 26 C-24.34017795 22.2908542 -20.67392152 18.58823822 -17.00146484 14.89160156 C-15.75226298 13.63232287 -14.50485944 12.37125764 -13.25927734 11.10839844 C-11.47178925 9.29673588 -9.67799773 7.49153161 -7.8828125 5.6875 C-7.04521896 4.83442261 -7.04521896 4.83442261 -6.19070435 3.96411133 C-2.22774341 0 -2.22774341 0 0 0 Z " fill="#F2B839" transform="translate(121,203)"/>
<path d="M0 0 C0 0.66 0 1.32 0 2 C0.99 2.66 1.98 3.32 3 4 C-5.91 4.99 -5.91 4.99 -15 6 C-12.15163299 3.15163299 -11.13102212 2.45627197 -7.5 1.3125 C-6.7265625 1.06113281 -5.953125 0.80976563 -5.15625 0.55078125 C-3 0 -3 0 0 0 Z " fill="#E6A843" transform="translate(185,266)"/>
<path d="M0 0 C0.33 0 0.66 0 1 0 C1.66 4.95 2.32 9.9 3 15 C-0.75843663 13.12078169 -2.14975355 11.97529385 -4.75 8.875 C-5.36359375 8.15054687 -5.9771875 7.42609375 -6.609375 6.6796875 C-7.06828125 6.12539063 -7.5271875 5.57109375 -8 5 C-7.67 4.34 -7.34 3.68 -7 3 C-4.03 6.465 -4.03 6.465 -1 10 C-0.67 6.7 -0.34 3.4 0 0 Z " fill="#9C1132" transform="translate(399,444)"/>
<path d="M0 0 C6.27 0 12.54 0 19 0 C19 1.65 19 3.3 19 5 C18.01 5.66 17.02 6.32 16 7 C16.33 5.35 16.66 3.7 17 2 C11.39 1.67 5.78 1.34 0 1 C0 0.67 0 0.34 0 0 Z " fill="#9C0F23" transform="translate(362,552)"/>
<path d="M0 0 C0.99 0.33 1.98 0.66 3 1 C1.55746343 4.36591866 -0.33264727 6.51047079 -3 9 C-0.69 9.33 1.62 9.66 4 10 C4 10.33 4 10.66 4 11 C-1.94 11.495 -1.94 11.495 -8 12 C-3.375 5.25 -3.375 5.25 0 3 C0 2.01 0 1.02 0 0 Z " fill="#F5C953" transform="translate(190,80)"/>
<path d="M0 0 C2 2 2 2 2.125 5.625 C2.08375 6.73875 2.0425 7.8525 2 9 C0.01926635 8.719172 -1.95958448 8.42503386 -3.9375 8.125 C-5.59072266 7.88136719 -5.59072266 7.88136719 -7.27734375 7.6328125 C-8.17582031 7.42398438 -9.07429688 7.21515625 -10 7 C-10.33 6.34 -10.66 5.68 -11 5 C-7.7 5.33 -4.4 5.66 -1 6 C-0.67 4.02 -0.34 2.04 0 0 Z " fill="#A82835" transform="translate(369,219)"/>
<path d="M0 0 C2.078125 3.7109375 2.078125 3.7109375 1.375 6.3125 C-0.31274827 9.6112807 -2.12107921 12.80583466 -4 16 C-5.35304209 11.94087374 -4.15216503 10.22850409 -2.5625 6.3125 C-2.08941406 5.13300781 -1.61632812 3.95351563 -1.12890625 2.73828125 C-0.75636719 1.83464844 -0.38382813 0.93101562 0 0 Z " fill="#EAB244" transform="translate(142,403)"/>
<path d="M0 0 C2.31 0 4.62 0 7 0 C5.68 0.33 4.36 0.66 3 1 C6.34003602 5.32239956 9.32751069 8.17477391 14 11 C13.01 11.495 13.01 11.495 12 12 C2.87822878 5.35793358 2.87822878 5.35793358 0 2 C0 1.34 0 0.68 0 0 Z " fill="#9B1132" transform="translate(309,138)"/>
<path d="M0 0 C1 2 1 2 0.56274414 3.78759766 C0.30614014 4.48933105 0.04953613 5.19106445 -0.21484375 5.9140625 C-0.48876953 6.67460937 -0.76269531 7.43515625 -1.04492188 8.21875 C-1.33947266 9.0128125 -1.63402344 9.806875 -1.9375 10.625 C-2.22818359 11.42679687 -2.51886719 12.22859375 -2.81835938 13.0546875 C-3.53882525 15.03892138 -4.26855138 17.01978837 -5 19 C-6.23286889 15.30139332 -5.58034127 13.66053718 -4.5625 9.9375 C-3.41628948 6.01832676 -3.41628948 6.01832676 -3 2 C-2.01 1.34 -1.02 0.68 0 0 Z " fill="#9B0F32" transform="translate(202,475)"/>
<path d="M0 0 C0.33 0.66 0.66 1.32 1 2 C0.01 2.66 -0.98 3.32 -2 4 C-1.34 4.66 -0.68 5.32 0 6 C-1.28650706 6.69710731 -2.57940665 7.38242876 -3.875 8.0625 C-4.59429687 8.44535156 -5.31359375 8.82820313 -6.0546875 9.22265625 C-6.69664062 9.47917969 -7.33859375 9.73570312 -8 10 C-8.66 9.67 -9.32 9.34 -10 9 C-8.71142987 7.68445979 -7.41904109 6.37265903 -6.125 5.0625 C-5.04605469 3.96615234 -5.04605469 3.96615234 -3.9453125 2.84765625 C-2 1 -2 1 0 0 Z " fill="#9D1625" transform="translate(310,356)"/>
<path d="M0 0 C0.66 0 1.32 0 2 0 C2 3.63 2 7.26 2 11 C1.01 11.495 1.01 11.495 0 12 C-1.53166168 7.91556885 -0.63081652 4.20544343 0 0 Z " fill="#A92935" transform="translate(536,62)"/>
<path d="M0 0 C0 0.66 0 1.32 0 2 C2.31 2 4.62 2 7 2 C7 2.33 7 2.66 7 3 C2.38 3 -2.24 3 -7 3 C-7 2.34 -7 1.68 -7 1 C-4.50935112 0.31292445 -2.62113708 0 0 0 Z " fill="#B1434F" transform="translate(515,370)"/>
<path d="M0 0 C0.33 0 0.66 0 1 0 C1 3.63 1 7.26 1 11 C0.34 9.68 -0.32 8.36 -1 7 C-1.66 7.66 -2.32 8.32 -3 9 C-2.5020163 5.26512223 -2.12508244 3.18762365 0 0 Z " fill="#9C1032" transform="translate(179,36)"/>
<path d="M0 0 C0 0.99 0 1.98 0 3 C-1.41623216 3.05447047 -2.83308191 3.09300508 -4.25 3.125 C-5.03890625 3.14820313 -5.8278125 3.17140625 -6.640625 3.1953125 C-9.20731941 2.9828378 -10.7916067 2.28654105 -13 1 C-8.62426048 0.40667939 -4.42471556 -0.13827236 0 0 Z " fill="#EAAE44" transform="translate(496,337)"/>
<path d="M0 0 C0.66 0.33 1.32 0.66 2 1 C1.67 2.65 1.34 4.3 1 6 C0.01 6 -0.98 6 -2 6 C-3.32 6.33 -4.64 6.66 -6 7 C-4.02 4.69 -2.04 2.38 0 0 Z " fill="#A8313C" transform="translate(187,101)"/>
<path d="M0 0 C2.64 0 5.28 0 8 0 C7.6875 1.875 7.6875 1.875 7 4 C6.01 4.66 5.02 5.32 4 6 C4.33 4.68 4.66 3.36 5 2 C3.35 1.67 1.7 1.34 0 1 C0 0.67 0 0.34 0 0 Z " fill="#F8CD48" transform="translate(338,573)"/>
<path d="M0 0 C1.485 0.99 1.485 0.99 3 2 C2.34 3.65 1.68 5.3 1 7 C0.34 7 -0.32 7 -1 7 C-0.67 4.69 -0.34 2.38 0 0 Z " fill="#F9CC48" transform="translate(144,400)"/>
<path d="M0 0 C-2.46278801 2.46278801 -4.70676982 2.99771255 -8 4 C-8.66 3.34 -9.32 2.68 -10 2 C-6.5980513 -0.09350689 -3.94727588 -0.17942163 0 0 Z " fill="#A72834" transform="translate(234,307)"/>
<path d="M0 0 C0.66 0 1.32 0 2 0 C2.33 1.98 2.66 3.96 3 6 C1.68 6 0.36 6 -1 6 C-0.67 4.02 -0.34 2.04 0 0 Z " fill="#AF414C" transform="translate(509,146)"/>
</svg>
