<?xml version="1.0" encoding="UTF-8"?>
<svg version="1.1" xmlns="http://www.w3.org/2000/svg" width="348" height="348">
<path d="M0 0 C0.69593262 0.00248749 1.39186523 0.00497498 2.10888672 0.00753784 C46.6553957 0.25243169 87.2046512 17.58148863 119.3125 48.3125 C120.48619141 49.39144531 120.48619141 49.39144531 121.68359375 50.4921875 C151.56584998 78.89228382 169.20524441 120.89043054 170.62890625 161.83984375 C171.81939567 210.53602116 155.84383528 253.87334736 122.3125 289.3125 C121.54421875 290.13363281 120.7759375 290.95476562 119.984375 291.80078125 C95.97443667 316.70141084 63.7845598 331.44379728 30.3125 338.3125 C29.11882812 338.56128906 27.92515625 338.81007813 26.6953125 339.06640625 C-0.46959873 343.63650308 -29.86142132 340.69634003 -55.6875 331.3125 C-57.02048416 330.85445134 -58.35382616 330.39744289 -59.6875 329.94140625 C-100.42004383 315.69015458 -134.57110817 283.34001305 -153.49267578 244.85546875 C-160.21494468 230.54832677 -164.61675608 215.79101989 -167.6875 200.3125 C-167.93371094 199.12527344 -168.17992187 197.93804687 -168.43359375 196.71484375 C-175.78468757 153.36873882 -164.29194431 108.20662314 -139.37304688 72.42504883 C-133.38790306 64.19547608 -126.6914395 56.67645508 -119.6875 49.3125 C-119.10742188 48.67957031 -118.52734375 48.04664063 -117.9296875 47.39453125 C-98.08873406 26.40699005 -69.71002819 12.41054031 -42.1875 5.0625 C-41.27476318 4.81612793 -40.36202637 4.56975586 -39.42163086 4.31591797 C-26.40900106 0.99124677 -13.39972953 -0.07736518 0 0 Z M-110.35327148 63.87719727 C-111.91546805 65.48087703 -111.91546805 65.48087703 -113.6875 68.3125 C-105.15766866 73.94807133 -96.56946474 79.07424875 -87.3125 83.4375 C-86.48645264 83.82736084 -85.66040527 84.21722168 -84.80932617 84.61889648 C-80.90249054 86.59839889 -80.90249054 86.59839889 -76.6875 87.3125 C-76.43806641 86.74144531 -76.18863281 86.17039062 -75.93164062 85.58203125 C-66.39154648 64.03546315 -54.19367858 42.007898 -36.89453125 25.61328125 C-35.46076741 24.3639121 -35.46076741 24.3639121 -35.6875 22.3125 C-35.0275 21.9825 -34.3675 21.6525 -33.6875 21.3125 C-61.41293308 21.3125 -91.56618601 45.65428854 -110.35327148 63.87719727 Z M-18.75 30.1875 C-19.60400391 31.02925781 -20.45800781 31.87101562 -21.33789062 32.73828125 C-22.14548828 33.54394531 -22.95308594 34.34960938 -23.78515625 35.1796875 C-24.53289307 35.92331543 -25.28062988 36.66694336 -26.05102539 37.43310547 C-27.90639517 39.1485512 -27.90639517 39.1485512 -27.6875 41.3125 C-28.3475 41.3125 -29.0075 41.3125 -29.6875 41.3125 C-32.21859465 44.00315416 -34.35316702 47.0430189 -36.5625 50 C-37.22999268 50.89178955 -37.89748535 51.7835791 -38.58520508 52.70239258 C-53.22485012 71.50151871 -53.22485012 71.50151871 -60.6875 93.3125 C-52.71060085 96.19092042 -44.70866916 98.02023466 -36.375 99.5 C-35.46419678 99.66661133 -34.55339355 99.83322266 -33.61499023 100.00488281 C-25.22672976 101.43435805 -17.32623922 101.7725788 -8.6875 102.3125 C-8.6875 75.5825 -8.6875 48.8525 -8.6875 21.3125 C-11.86782334 21.3125 -16.58748308 28.0266226 -18.75 30.1875 Z M9.3125 21.3125 C9.3125 48.0425 9.3125 74.7725 9.3125 102.3125 C23.27525269 101.45691616 23.27525269 101.45691616 37 99.5 C37.97461182 99.32694336 38.94922363 99.15388672 39.95336914 98.97558594 C47.27520714 97.62453612 54.29926306 95.84318818 61.3125 93.3125 C59.16815716 86.04556038 56.13046239 79.84391174 52.3125 73.3125 C51.73628906 72.31347656 51.16007812 71.31445312 50.56640625 70.28515625 C45.46438465 61.70400142 39.60776446 53.81118331 33.51416016 45.91552734 C32.3931239 44.42005314 31.34923532 42.86760298 30.3125 41.3125 C29.6525 41.3125 28.9925 41.3125 28.3125 41.3125 C28.05799072 40.73274414 27.80348145 40.15298828 27.54125977 39.55566406 C26.18078821 37.07205336 24.65887906 35.4157937 22.65234375 33.421875 C21.5859668 32.35839844 21.5859668 32.35839844 20.49804688 31.2734375 C19.38526367 30.17902344 19.38526367 30.17902344 18.25 29.0625 C17.50427734 28.31742188 16.75855469 27.57234375 15.99023438 26.8046875 C13.05661132 23.25343338 13.05661132 23.25343338 9.3125 21.3125 Z M34.3125 21.3125 C34.6425 21.9725 34.9725 22.6325 35.3125 23.3125 C35.9725 23.3125 36.6325 23.3125 37.3125 23.3125 C37.57289063 23.89644531 37.83328125 24.48039062 38.1015625 25.08203125 C39.3931706 27.46109004 40.81376839 29.05116101 42.6875 31 C57.53514086 47.43461697 68.31078989 67.22209111 77.3125 87.3125 C90.70449998 83.14842501 102.79928177 76.19476668 114.3125 68.3125 C109.53073187 62.39820784 104.28219239 57.04745385 98.3125 52.3125 C97.6525 52.3125 96.9925 52.3125 96.3125 52.3125 C96.3125 51.6525 96.3125 50.9925 96.3125 50.3125 C81.7670162 38.66644819 64.86784092 30.41598247 47.3125 24.5 C46.37913818 24.18538818 45.44577637 23.87077637 44.48413086 23.54663086 C43.60249268 23.25667236 42.72085449 22.96671387 41.8125 22.66796875 C41.0184375 22.40653076 40.224375 22.14509277 39.40625 21.87573242 C37.19102887 21.18261422 37.19102887 21.18261422 34.3125 21.3125 Z M-124.6875 81.3125 C-140.97129775 106.24604143 -150.20555294 131.52913528 -152.6875 161.3125 C-133.2175 161.3125 -113.7475 161.3125 -93.6875 161.3125 C-92.2025 148.4425 -92.2025 148.4425 -90.6875 135.3125 C-87.88529716 121.57487143 -87.88529716 121.57487143 -86.27294922 114.79248047 C-85.37162428 110.97444095 -84.53150304 107.14357373 -83.6875 103.3125 C-84.64527344 102.83941406 -85.60304688 102.36632812 -86.58984375 101.87890625 C-93.99711582 98.20629052 -101.37104558 94.47572246 -108.6875 90.625 C-109.36804443 90.26929932 -110.04858887 89.91359863 -110.74975586 89.54711914 C-115.5360711 87.01346246 -120.12972032 84.23611566 -124.6875 81.3125 Z M118.8125 85.0625 C110.87675431 90.37722565 102.28791689 94.26658907 93.58203125 98.14941406 C92.52757812 98.63249023 91.473125 99.11556641 90.38671875 99.61328125 C89.43369873 100.03778564 88.48067871 100.46229004 87.4987793 100.8996582 C85.19392958 102.10869618 85.19392958 102.10869618 84.44189453 104.24536133 C84.21504398 107.86940581 85.48930099 111.24414573 86.5 114.6875 C88.51582445 121.94998116 90.20066057 129.21147448 91.5625 136.625 C91.72516357 137.48206543 91.88782715 138.33913086 92.05541992 139.22216797 C93.38139768 146.65186403 93.7660385 153.66203896 94.3125 161.3125 C113.7825 161.3125 133.2525 161.3125 153.3125 161.3125 C150.21222722 133.41004495 143.59769839 103.7810279 125.3125 81.3125 C123.14866693 81.3125 120.45376464 83.93911013 118.8125 85.0625 Z M-67.6875 109.3125 C-70.97515147 119.74136164 -73.33823141 130.12376276 -75 140.9375 C-75.17112305 142.03884277 -75.34224609 143.14018555 -75.51855469 144.27490234 C-76.37741505 150.12890173 -76.6875 155.30560269 -76.6875 161.3125 C-54.2475 161.3125 -31.8075 161.3125 -8.6875 161.3125 C-8.6875 147.4525 -8.6875 133.5925 -8.6875 119.3125 C-12.503125 118.920625 -16.31875 118.52875 -20.25 118.125 C-32.08742522 116.82566965 -43.54575115 114.63417218 -55.125 111.89794922 C-59.29427267 110.94540388 -63.48897837 110.12480796 -67.6875 109.3125 Z M56.6875 111.625 C40.9715849 115.85316986 25.64539333 117.67921067 9.3125 119.3125 C9.3125 133.1725 9.3125 147.0325 9.3125 161.3125 C31.7525 161.3125 54.1925 161.3125 77.3125 161.3125 C77.3125 153.93152775 76.80202114 147.56513619 75.625 140.375 C75.45000977 139.28775635 75.27501953 138.2005127 75.09472656 137.08032227 C73.49990285 127.61088254 71.16713904 118.47308348 68.3125 109.3125 C64.23603796 109.3125 60.58453997 110.54186855 56.6875 111.625 Z M-152.6875 179.3125 C-149.57877881 203.14602914 -143.89895741 241.38913211 -123.6875 259.3125 C-123.16027344 258.94640625 -122.63304688 258.5803125 -122.08984375 258.203125 C-109.96370235 250.13184229 -96.72170923 243.77428114 -83.6875 237.3125 C-83.85354736 236.70067871 -84.01959473 236.08885742 -84.19067383 235.45849609 C-89.21501654 216.73789623 -92.07693613 198.6392664 -93.6875 179.3125 C-113.1575 179.3125 -132.6275 179.3125 -152.6875 179.3125 Z M-76.6875 179.3125 C-76.75321465 187.41631884 -76.75321465 187.41631884 -75.953125 195.23046875 C-75.79303955 196.25068115 -75.6329541 197.27089355 -75.46801758 198.32202148 C-75.29294678 199.37075439 -75.11787598 200.4194873 -74.9375 201.5 C-74.75920654 202.5919165 -74.58091309 203.68383301 -74.3972168 204.80883789 C-72.29924711 218.42489013 -72.29924711 218.42489013 -67.6875 231.3125 C-62.42093696 230.32906317 -57.21561085 229.20139378 -52.01953125 227.89282227 C-37.76796298 224.34831285 -23.27981519 222.77173152 -8.6875 221.3125 C-8.6875 207.4525 -8.6875 193.5925 -8.6875 179.3125 C-31.1275 179.3125 -53.5675 179.3125 -76.6875 179.3125 Z M9.3125 179.3125 C9.3125 193.1725 9.3125 207.0325 9.3125 221.3125 C14.159375 221.869375 19.00625 222.42625 24 223 C36.37051627 224.48640183 48.31370953 226.5993546 60.36425781 229.82568359 C62.99053364 230.48192344 65.63501036 230.92328026 68.3125 231.3125 C71.8630426 221.67947047 74.06001337 212.08685619 75.625 201.9375 C75.79612305 200.84518066 75.96724609 199.75286133 76.14355469 198.62744141 C77.11466342 191.98412894 77.3125 186.17845888 77.3125 179.3125 C54.8725 179.3125 32.4325 179.3125 9.3125 179.3125 Z M94.3125 179.3125 C93.3225 188.8825 92.3325 198.4525 91.3125 208.3125 C89.28156009 218.12045373 87.11780476 227.72016761 84.3125 237.3125 C85.27027344 237.78558594 86.22804688 238.25867188 87.21484375 238.74609375 C94.62211582 242.41870948 101.99604558 246.14927754 109.3125 250 C109.99304443 250.35570068 110.67358887 250.71140137 111.37475586 251.07788086 C116.1610711 253.61153754 120.75472032 256.38888434 125.3125 259.3125 C137.30545916 240.94903538 145.68805957 222.44246365 150.625 201 C150.86416138 199.98039185 150.86416138 199.98039185 151.1081543 198.94018555 C152.53410276 192.32482287 152.77942077 186.24252997 153.3125 179.3125 C133.8425 179.3125 114.3725 179.3125 94.3125 179.3125 Z M9.3125 238.3125 C9.3125 265.3725 9.3125 292.4325 9.3125 320.3125 C34.02732833 303.83594778 50.3845812 274.81898623 62.3125 248.3125 C59.53725846 246.46233898 57.997891 245.83869658 54.84765625 245.09375 C53.97141602 244.88459961 53.09517578 244.67544922 52.19238281 244.45996094 C51.26264648 244.24629883 50.33291016 244.03263672 49.375 243.8125 C48.42077148 243.59110352 47.46654297 243.36970703 46.48339844 243.14160156 C33.92088889 240.26491938 22.39532375 239.08207787 9.3125 238.3125 Z M-24.9375 239.5625 C-26.38491577 239.76057251 -26.38491577 239.76057251 -27.86157227 239.96264648 C-39.33087401 241.60004084 -50.57045893 244.05130803 -61.6875 247.3125 C-57.73644822 261.07305966 -49.14526208 274.8489548 -40.6875 286.3125 C-40.30190918 286.8379541 -39.91631836 287.3634082 -39.51904297 287.90478516 C-34.05077406 295.29114131 -28.12360113 302.20078696 -21.875 308.9375 C-21.25294678 309.61264648 -20.63089355 310.28779297 -19.98999023 310.98339844 C-19.0880896 311.93907715 -19.0880896 311.93907715 -18.16796875 312.9140625 C-17.37749146 313.75445068 -17.37749146 313.75445068 -16.57104492 314.61181641 C-14.16410387 316.78508295 -11.3857626 318.51365826 -8.6875 320.3125 C-8.6875 293.2525 -8.6875 266.1925 -8.6875 238.3125 C-14.2761596 238.3125 -19.42624157 238.80524611 -24.9375 239.5625 Z M78.3125 253.3125 C78.07764893 253.8386792 77.84279785 254.3648584 77.60083008 254.90698242 C67.20905604 277.96910066 54.35204272 298.58644963 37.3125 317.3125 C46.09412263 320.23970754 60.79100067 311.79205345 68.71557617 307.85205078 C82.54830735 300.61983327 94.92073109 291.84471908 106.375 281.25 C107.07262451 280.60651611 107.77024902 279.96303223 108.48901367 279.30004883 C109.12299072 278.69443115 109.75696777 278.08881348 110.41015625 277.46484375 C110.97226807 276.92851318 111.53437988 276.39218262 112.11352539 275.83959961 C113.62126914 274.24281941 113.62126914 274.24281941 113.3125 271.3125 C110.88220293 269.58052879 108.52306192 268.09305182 105.9375 266.625 C105.1854126 266.18945801 104.4333252 265.75391602 103.65844727 265.30517578 C95.49152288 260.67761722 86.96204845 256.93418227 78.3125 253.3125 Z M-113.6875 272.3125 C-112.7794838 273.44449353 -111.86066174 274.56782363 -110.9375 275.6875 C-110.17179687 276.62722656 -110.17179687 276.62722656 -109.390625 277.5859375 C-107.60550519 279.39562318 -106.00800356 280.31367455 -103.6875 281.3125 C-103.6875 281.9725 -103.6875 282.6325 -103.6875 283.3125 C-88.80487796 297.66912501 -69.21115395 308.53035296 -49.875 315.4375 C-49.02075439 315.74518311 -48.16650879 316.05286621 -47.28637695 316.36987305 C-46.48417725 316.64226807 -45.68197754 316.91466309 -44.85546875 317.1953125 C-44.14672607 317.43652832 -43.4379834 317.67774414 -42.70776367 317.92626953 C-40.38852536 318.36965745 -38.91151505 318.04104051 -36.6875 317.3125 C-37.12578125 316.8484375 -37.5640625 316.384375 -38.015625 315.90625 C-54.99738897 297.40579169 -67.46044108 276.14260123 -77.6875 253.3125 C-88.74765957 253.3125 -104.73218899 266.08140965 -113.6875 272.3125 Z " fill="#F3F3F3" transform="translate(173.6875,3.6875)"/>
</svg>
