<?xml version="1.0" encoding="UTF-8"?>
<svg version="1.1" xmlns="http://www.w3.org/2000/svg" width="512" height="512">
<path d="M0 0 C0.72993164 0.14018555 1.45986328 0.28037109 2.21191406 0.42480469 C19.23025031 3.84356581 33.61429475 12.07540648 44.16015625 26.1796875 C55.2763008 43.21972225 57.84646876 62.87337541 60.1875 82.6875 C60.3424292 83.97688477 60.4973584 85.26626953 60.65698242 86.59472656 C63.68345297 113.43570282 64.34287943 140.49331246 64.26074219 167.47949219 C64.24934889 171.24640137 64.2561539 175.01302762 64.26761913 178.77992725 C64.33855995 206.32458003 63.47772176 233.94243805 60.1875 261.3125 C60.06103088 262.37919418 60.06103088 262.37919418 59.93200684 263.46743774 C56.78345778 289.74172431 52.05082273 314.62328677 30.125 331.875 C20.692074 338.5531777 11.31864241 341.94635685 0 344 C-0.65468262 344.12084961 -1.30936523 344.24169922 -1.98388672 344.36621094 C-86.78375482 359.50553355 -178.97447118 354.67973056 -384 344 C-385.09489746 343.78972168 -385.09489746 343.78972168 -386.21191406 343.57519531 C-403.23025031 340.15643419 -417.61429475 331.92459352 -428.16015625 317.8203125 C-439.2763008 300.78027775 -441.84646876 281.12662459 -444.1875 261.3125 C-444.3424292 260.02311523 -444.4973584 258.73373047 -444.65698242 257.40527344 C-447.68345297 230.56429718 -448.34287943 203.50668754 -448.26074219 176.52050781 C-448.24934889 172.75359863 -448.2561539 168.98697238 -448.26761913 165.22007275 C-448.33855995 137.67541997 -447.47772176 110.05756195 -444.1875 82.6875 C-444.10318726 81.97637054 -444.01887451 81.26524109 -443.93200684 80.53256226 C-440.78345778 54.25827569 -436.05082273 29.37671323 -414.125 12.125 C-404.692074 5.4468223 -395.31864241 2.05364315 -384 0 C-383.34531738 -0.12084961 -382.69063477 -0.24169922 -382.01611328 -0.36621094 C-297.21624518 -15.50553355 -205.02552882 -10.67973056 0 0 Z M-244 97 C-244 146.5 -244 196 -244 247 C-234.60704906 242.30352453 -225.52442305 237.73445751 -216.5625 232.375 C-208.26656232 227.47381943 -199.92207295 222.68112249 -191.5 218 C-183.31785479 213.44773347 -175.19694267 208.80736716 -167.125 204.0625 C-155.20235608 197.05923061 -143.12414557 190.35692772 -131.02099609 183.67285156 C-126.77433928 181.32130053 -122.54115665 178.94623468 -118.3125 176.5625 C-117.65314453 176.19084717 -116.99378906 175.81919434 -116.31445312 175.4362793 C-114.87594089 174.62482617 -113.43790124 173.81253531 -112 173 C-112 172.34 -112 171.68 -112 171 C-112.81114258 170.56469971 -112.81114258 170.56469971 -113.63867188 170.12060547 C-125.4981128 163.74106128 -137.22189408 157.17486443 -148.83105469 150.35058594 C-156.94739548 145.58896467 -165.13812967 140.97304778 -173.3581543 136.39331055 C-181.30975062 131.95863606 -189.2244115 127.46211198 -197.125 122.9375 C-205.95237739 117.88535415 -214.77988121 112.83354666 -223.625 107.8125 C-224.53008301 107.2961499 -225.43516602 106.7797998 -226.36767578 106.24780273 C-227.2286084 105.75997314 -228.08954102 105.27214355 -228.9765625 104.76953125 C-229.70955566 104.35292236 -230.44254883 103.93631348 -231.19775391 103.50708008 C-235.41372561 101.23968216 -239.7183638 99.1408181 -244 97 Z " fill="#FEFEFE" transform="translate(448,84)"/>
</svg>
